<svg width="195" height="527" viewBox="0 0 195 527" fill="none" xmlns="http://www.w3.org/2000/svg">
<path d="M86.189 327.328L18.9993 301.628L33.5288 263.26L50.33 259.519L67.1313 255.778L131.95 280.571L118.765 315.386L86.189 327.328Z" fill="url(#paint0_linear)"/>
<path d="M33.5288 263.26L100.718 288.961M33.5288 263.26L18.9993 301.628L86.189 327.328M33.5288 263.26L50.33 259.519M100.718 288.961L86.189 327.328M100.718 288.961L116.334 284.766M86.189 327.328L118.765 315.386L131.95 280.571M131.95 280.571L67.1313 255.778L50.33 259.519M131.95 280.571L116.334 284.766M116.334 284.766L50.33 259.519" stroke="black" stroke-width="3"/>
<path d="M76.0979 448.99L141.287 388.97L123.725 446.092L163.308 458.101L102.749 514.322L118.847 461.959L76.0979 448.99Z" fill="#FFE146" stroke="black" stroke-width="3"/>
<rect x="97.3254" y="17.2507" width="143.832" height="75.3103" transform="rotate(62.4194 97.3254 17.2507)" fill="url(#paint1_linear)" stroke="black" stroke-width="3"/>
<path d="M165.942 145.373L96.1639 105.419L98.6074 16.4664L165.942 145.373Z" fill="#8C9FC5" stroke="black" stroke-width="3"/>
<defs>
<linearGradient id="paint0_linear" x1="86.1025" y1="263.035" x2="64.6601" y2="319.093" gradientUnits="userSpaceOnUse">
<stop stop-color="#B3A164"/>
<stop offset="1" stop-color="#7C6100"/>
</linearGradient>
<linearGradient id="paint1_linear" x1="171.376" y1="15.2266" x2="171.376" y2="93.5369" gradientUnits="userSpaceOnUse">
<stop stop-color="#EDF3FF"/>
<stop offset="1" stop-color="#8397BF"/>
</linearGradient>
</defs>
</svg>
