<svg width="150" height="195" viewBox="0 0 150 195" fill="none" xmlns="http://www.w3.org/2000/svg">
<rect x="1.03968" y="-0.926306" width="51.0951" height="26.3777" transform="matrix(0.0430516 -0.999742 0.996632 0.0734361 27.3664 179.403)" fill="url(#paint0_linear)" stroke="black" stroke-width="2"/>
<path d="M27.7343 126.14L42.3362 151.776L25.4702 178.716L27.7343 126.14Z" fill="#8C9FC5" stroke="black" stroke-width="2"/>
<path d="M136.008 117.782L102.942 117.602L102.982 98.7187L109.605 94.3838L116.227 90.0488L148.126 90.2232L148.089 107.358L136.008 117.782Z" fill="url(#paint1_linear)"/>
<path d="M102.982 98.7187L136.048 98.8994M102.982 98.7187L102.942 117.602L136.008 117.782M102.982 98.7187L109.605 94.3838M136.048 98.8994L136.008 117.782M136.048 98.8994L142.087 94.5613M136.008 117.782L148.089 107.358L148.126 90.2232M148.126 90.2232L116.227 90.0488L109.605 94.3838M148.126 90.2232L142.087 94.5613M142.087 94.5613L109.605 94.3838" stroke="black" stroke-width="2"/>
<path d="M27.6268 102.521L7.51344 75.5266L28.4309 84.3564L34.5555 69.8085L53.4157 94.9031L34.2413 86.8091L27.6268 102.521Z" fill="#FFE146" stroke="black" stroke-width="2"/>
<path d="M101.171 175.705L81.0579 148.711L101.975 157.54L108.1 142.993L126.96 168.087L107.786 159.993L101.171 175.705Z" fill="#FFE146" stroke="black" stroke-width="2"/>
<rect x="-0.0240358" y="1.41496" width="65.5403" height="34.0181" transform="matrix(0.694514 0.719446 -0.718549 0.695511 90.2833 3.80214)" fill="url(#paint2_linear)" stroke="black" stroke-width="2"/>
<path d="M136.181 51.9452L100.22 43.4016L89.7202 3.81641L136.181 51.9452Z" fill="#8C9FC5" stroke="black" stroke-width="2"/>
<defs>
<linearGradient id="paint0_linear" x1="26.5475" y1="0" x2="26.5475" y2="28.3777" gradientUnits="userSpaceOnUse">
<stop stop-color="#EDF3FF"/>
<stop offset="1" stop-color="#8397BF"/>
</linearGradient>
<linearGradient id="paint1_linear" x1="125.563" y1="90.0999" x2="125.412" y2="117.725" gradientUnits="userSpaceOnUse">
<stop stop-color="#B3A164"/>
<stop offset="1" stop-color="#7C6100"/>
</linearGradient>
<linearGradient id="paint2_linear" x1="33.7701" y1="0" x2="33.7701" y2="36.0181" gradientUnits="userSpaceOnUse">
<stop stop-color="#EDF3FF"/>
<stop offset="1" stop-color="#8397BF"/>
</linearGradient>
</defs>
</svg>
