<svg width="116" height="238" viewBox="0 0 116 238" fill="none" xmlns="http://www.w3.org/2000/svg">
<rect x="1.03968" y="-0.926306" width="51.0951" height="26.3777" transform="matrix(0.0430516 -0.999742 0.996632 0.0734361 27.7706 222.128)" fill="url(#paint0_linear)" stroke="black" stroke-width="2"/>
<path d="M28.1376 168.865L42.7395 194.501L25.8735 221.441L28.1376 168.865Z" fill="#8C9FC5" stroke="black" stroke-width="2"/>
<rect x="0.995304" y="0.973958" width="51.095" height="26.3778" transform="matrix(0.998976 -0.0266996 -0.0036722 1.00066 48.6482 60.066)" fill="url(#paint1_linear)" stroke="black" stroke-width="2"/>
<path d="M101.685 58.6223L77.1642 74.9956L49.1494 60.0264L101.685 58.6223Z" fill="#8C9FC5" stroke="black" stroke-width="2"/>
<path d="M102.673 138.769L84.9246 166.706L68.9799 156.624L68.8387 148.703L68.6974 140.781L85.8192 113.831L100.288 122.979L102.673 138.769Z" fill="url(#paint2_linear)"/>
<path d="M68.9799 156.624L86.7282 128.687M68.9799 156.624L84.9246 166.706L102.673 138.769M68.9799 156.624L68.8387 148.703M86.7282 128.687L102.673 138.769M86.7282 128.687L86.2737 121.259M102.673 138.769L100.288 122.979L85.8192 113.831M85.8192 113.831L68.6974 140.781L68.8387 148.703M85.8192 113.831L86.2737 121.259M86.2737 121.259L68.8387 148.703" stroke="black" stroke-width="2"/>
<path d="M42.8207 41.6853L22.7073 14.6912L43.6248 23.5209L49.7493 8.97309L68.6095 34.0676L49.4352 25.9736L42.8207 41.6853Z" fill="#FFE146" stroke="black" stroke-width="2"/>
<defs>
<linearGradient id="paint0_linear" x1="26.5475" y1="0" x2="26.5475" y2="28.3777" gradientUnits="userSpaceOnUse">
<stop stop-color="#EDF3FF"/>
<stop offset="1" stop-color="#8397BF"/>
</linearGradient>
<linearGradient id="paint1_linear" x1="26.5475" y1="0" x2="26.5475" y2="28.3778" gradientUnits="userSpaceOnUse">
<stop stop-color="#EDF3FF"/>
<stop offset="1" stop-color="#8397BF"/>
</linearGradient>
<linearGradient id="paint2_linear" x1="73.7087" y1="132.893" x2="97.0039" y2="147.693" gradientUnits="userSpaceOnUse">
<stop stop-color="#B3A164"/>
<stop offset="1" stop-color="#7C6100"/>
</linearGradient>
</defs>
</svg>
