<svg width="759" height="250" viewBox="0 0 759 250" fill="none" xmlns="http://www.w3.org/2000/svg">
<path d="M145.951 94.2031L163.699 122.14L179.644 112.057L179.785 104.136L179.927 96.2149L162.805 69.2641L148.336 78.413L145.951 94.2031Z" fill="url(#paint0_linear)"/>
<path d="M179.644 112.057L161.896 84.1206M179.644 112.057L163.699 122.14L145.951 94.2031M179.644 112.057L179.785 104.136M161.896 84.1206L145.951 94.2031M161.896 84.1206L162.35 76.6924M145.951 94.2031L148.336 78.413L162.805 69.2641M162.805 69.2641L179.927 96.2149L179.785 104.136M162.805 69.2641L162.35 76.6924M162.35 76.6924L179.785 104.136" stroke="black" stroke-width="2"/>
<path d="M259.799 121.197L290.683 109.368L284.005 91.7083L276.282 89.9863L268.559 88.2643L238.765 99.6759L244.825 115.7L259.799 121.197Z" fill="url(#paint1_linear)"/>
<path d="M284.005 91.7083L253.12 103.537M284.005 91.7083L290.683 109.368L259.799 121.197M284.005 91.7083L276.282 89.9863M253.12 103.537L259.799 121.197M253.12 103.537L245.943 101.607M259.799 121.197L244.825 115.7L238.765 99.6759M238.765 99.6759L268.559 88.2643L276.282 89.9863M238.765 99.6759L245.943 101.607M245.943 101.607L276.282 89.9863" stroke="black" stroke-width="2"/>
<rect x="-1.13152" y="0.847877" width="49.7995" height="25.6273" transform="matrix(-0.989151 -0.142569 -0.142373 0.990446 230.705 152.628)" fill="url(#paint2_linear)" stroke="black" stroke-width="2"/>
<path d="M181.598 145.396L203.052 163.949L232.348 152.71L181.598 145.396Z" fill="#8C9FC5" stroke="black" stroke-width="2"/>
<path d="M271.952 204.445L308.753 218.519L316.739 197.583L311.227 189.922L305.715 182.26L270.212 168.683L262.966 187.681L271.952 204.445Z" fill="url(#paint3_linear)"/>
<path d="M316.739 197.583L279.937 183.509M316.739 197.583L308.753 218.519L271.952 204.445M316.739 197.583L311.227 189.922M279.937 183.509L271.952 204.445M279.937 183.509L275.074 176.096M271.952 204.445L262.966 187.681L270.212 168.683M270.212 168.683L305.715 182.26L311.227 189.922M270.212 168.683L275.074 176.096M275.074 176.096L311.227 189.922" stroke="black" stroke-width="2"/>
<path d="M470.507 1.20972L503.618 1.39043L503.577 20.2735L496.946 24.6084L490.315 28.9433L458.373 28.769L458.41 11.6344L470.507 1.20972Z" fill="url(#paint4_linear)"/>
<path d="M503.577 20.2735L470.467 20.0928M503.577 20.2735L503.618 1.39043L470.507 1.20972M503.577 20.2735L496.946 24.6084M470.467 20.0928L470.507 1.20972M470.467 20.0928L464.42 24.4309M470.507 1.20972L458.41 11.6344L458.373 28.769M458.373 28.769L490.315 28.9433L496.946 24.6084M458.373 28.769L464.42 24.4309M464.42 24.4309L496.946 24.6084" stroke="black" stroke-width="2"/>
<path d="M648.819 141.684L618.815 169.309L626.898 143.018L608.679 137.49L636.552 111.613L629.143 135.714L648.819 141.684Z" fill="#FFE146" stroke="black" stroke-width="2"/>
<rect x="-1.04038" y="0.925685" width="51.1307" height="26.3966" transform="matrix(-0.0430803 0.999072 -0.997304 -0.0733871 694.206 89.7547)" fill="url(#paint5_linear)" stroke="black" stroke-width="2"/>
<path d="M692.08 140.803L677.458 115.167L694.347 88.2271L692.08 140.803Z" fill="#8C9FC5" stroke="black" stroke-width="2"/>
<path d="M731.512 156.525L751.652 183.519L730.706 174.689L724.574 189.237L705.688 164.142L724.888 172.236L731.512 156.525Z" fill="#FFE146" stroke="black" stroke-width="2"/>
<path d="M673.21 186.344L704.135 198.173L697.448 215.833L689.714 217.555L681.981 219.277L652.147 207.865L658.216 191.841L673.21 186.344Z" fill="url(#paint6_linear)"/>
<path d="M697.448 215.833L666.522 204.004M697.448 215.833L704.135 198.173L673.21 186.344M697.448 215.833L689.714 217.555M666.522 204.004L673.21 186.344M666.522 204.004L659.335 205.934M673.21 186.344L658.216 191.841L652.147 207.865M652.147 207.865L681.981 219.277L689.714 217.555M652.147 207.865L659.335 205.934M659.335 205.934L689.714 217.555" stroke="black" stroke-width="2"/>
<path d="M499.497 135.268L477.073 160.397L481.538 138.11L466.058 135.009L486.871 111.488L482.778 131.919L499.497 135.268Z" fill="#FFE146" stroke="black" stroke-width="2"/>
<rect x="-0.995969" y="-0.973312" width="51.1307" height="26.3966" transform="matrix(-0.999644 0.0266817 0.00367467 -0.999993 520.812 85.6381)" fill="url(#paint7_linear)" stroke="black" stroke-width="2"/>
<path d="M469.689 88.9749L494.243 72.6016L522.295 87.5708L469.689 88.9749Z" fill="#8C9FC5" stroke="black" stroke-width="2"/>
<rect x="-1.86447" y="-0.998828" width="78.5693" height="40.521" transform="matrix(-0.28734 -0.958435 -0.955643 0.29255 90.3347 219.66)" fill="url(#paint8_linear)" stroke="black" stroke-width="3"/>
<path d="M70.25 143.975L58.0366 187.08L93.4648 221.409L70.25 143.975Z" fill="#8C9FC5" stroke="black" stroke-width="3"/>
<defs>
<linearGradient id="paint0_linear" x1="174.915" y1="88.3269" x2="151.62" y2="103.126" gradientUnits="userSpaceOnUse">
<stop stop-color="#B3A164"/>
<stop offset="1" stop-color="#7C6100"/>
</linearGradient>
<linearGradient id="paint1_linear" x1="259.839" y1="91.6043" x2="269.718" y2="117.397" gradientUnits="userSpaceOnUse">
<stop stop-color="#B3A164"/>
<stop offset="1" stop-color="#7C6100"/>
</linearGradient>
<linearGradient id="paint2_linear" x1="25.8997" y1="0" x2="25.8997" y2="27.6273" gradientUnits="userSpaceOnUse">
<stop stop-color="#EDF3FF"/>
<stop offset="1" stop-color="#8397BF"/>
</linearGradient>
<linearGradient id="paint3_linear" x1="295.324" y1="178.287" x2="283.614" y2="208.905" gradientUnits="userSpaceOnUse">
<stop stop-color="#B3A164"/>
<stop offset="1" stop-color="#7C6100"/>
</linearGradient>
<linearGradient id="paint4_linear" x1="480.966" y1="28.8923" x2="481.117" y2="1.26762" gradientUnits="userSpaceOnUse">
<stop stop-color="#B3A164"/>
<stop offset="1" stop-color="#7C6100"/>
</linearGradient>
<linearGradient id="paint5_linear" x1="26.5654" y1="0" x2="26.5654" y2="28.3966" gradientUnits="userSpaceOnUse">
<stop stop-color="#EDF3FF"/>
<stop offset="1" stop-color="#8397BF"/>
</linearGradient>
<linearGradient id="paint6_linear" x1="673.249" y1="215.937" x2="683.119" y2="190.135" gradientUnits="userSpaceOnUse">
<stop stop-color="#B3A164"/>
<stop offset="1" stop-color="#7C6100"/>
</linearGradient>
<linearGradient id="paint7_linear" x1="26.5654" y1="0" x2="26.5654" y2="28.3966" gradientUnits="userSpaceOnUse">
<stop stop-color="#EDF3FF"/>
<stop offset="1" stop-color="#8397BF"/>
</linearGradient>
<linearGradient id="paint8_linear" x1="40.7846" y1="0" x2="40.7846" y2="43.521" gradientUnits="userSpaceOnUse">
<stop stop-color="#EDF3FF"/>
<stop offset="1" stop-color="#8397BF"/>
</linearGradient>
</defs>
</svg>
