<svg width="665" height="223" viewBox="0 0 665 223" fill="none" xmlns="http://www.w3.org/2000/svg">
<rect x="1.86575" y="-0.998117" width="78.6257" height="40.5491" transform="matrix(0.287527 -0.957773 0.956308 0.292361 31.1031 174.631)" fill="url(#paint0_linear)" stroke="black" stroke-width="3"/>
<path d="M52.291 95.3714L64.5207 138.477L29.0449 172.806L52.291 95.3714Z" fill="#8C9FC5" stroke="black" stroke-width="3"/>
<path d="M155.217 216.082L125.612 221.059L122.718 204.184L127.969 199.283L133.22 194.382L161.78 189.581L164.406 204.893L155.217 216.082Z" fill="url(#paint1_linear)"/>
<path d="M122.718 204.184L152.323 199.208M122.718 204.184L125.612 221.059L155.217 216.082M122.718 204.184L127.969 199.283M152.323 199.208L155.217 216.082M152.323 199.208L157.051 194.395M155.217 216.082L164.406 204.893L161.78 189.581M161.78 189.581L133.22 194.382L127.969 199.283M161.78 189.581L157.051 194.395M157.051 194.395L127.969 199.283" stroke="black" stroke-width="3"/>
<path d="M142.485 148.928L126.388 111.454L148.505 127.807L159.767 112.457L174.922 147.34L154.649 132.35L142.485 148.928Z" fill="#FFE146" stroke="black" stroke-width="3"/>
<path d="M123.227 51.3415L143.589 85.1275L124.394 96.6956L115.879 92.6163L107.363 88.5369L87.7199 55.9433L105.137 45.4463L123.227 51.3415Z" fill="url(#paint2_linear)"/>
<path d="M124.394 96.6956L104.032 62.9096M124.394 96.6956L143.589 85.1275L123.227 51.3415M124.394 96.6956L115.879 92.6163M104.032 62.9096L123.227 51.3415M104.032 62.9096L95.8762 59.4265M123.227 51.3415L105.137 45.4463L87.7199 55.9433M87.7199 55.9433L107.363 88.5369L115.879 92.6163M87.7199 55.9433L95.8762 59.4265M95.8762 59.4265L115.879 92.6163" stroke="black" stroke-width="3"/>
<rect x="1.56058" y="-1.38853" width="50.1307" height="25.3966" transform="matrix(0.0430803 -0.999072 0.997304 0.0733871 562.161 152.985)" fill="url(#paint3_linear)" stroke="black" stroke-width="3"/>
<path d="M561.57 99.6312L576.191 125.267L559.303 152.207L561.57 99.6312Z" fill="#8C9FC5" stroke="black" stroke-width="3"/>
<path d="M656.326 91.1985L636.881 91.0924L636.905 80.0027L640.8 77.4569L644.694 74.9111L663.453 75.0135L663.431 85.0763L656.326 91.1985Z" fill="url(#paint4_linear)"/>
<path d="M636.905 80.0027L656.35 80.1089M636.905 80.0027L636.881 91.0924L656.326 91.1985M636.905 80.0027L640.8 77.4569M656.35 80.1089L656.326 91.1985M656.35 80.1089L659.901 77.5612M656.326 91.1985L663.431 85.0763L663.453 75.0135M663.453 75.0135L644.694 74.9111L640.8 77.4569M663.453 75.0135L659.901 77.5612M659.901 77.5612L640.8 77.4569" stroke="black" stroke-width="3"/>
<path d="M561.465 76.012L541.325 49.0178L562.27 57.8476L568.403 43.2997L587.288 68.3943L568.088 60.3003L561.465 76.012Z" fill="#FFE146" stroke="black" stroke-width="3"/>
<path d="M14.547 50.9818L36.9705 25.852L32.5058 48.1398L47.9859 51.2409L27.1729 74.7614L31.2655 54.3309L14.547 50.9818Z" fill="#FFE146" stroke="black" stroke-width="3"/>
<rect x="613.703" y="7.11027" width="39.0411" height="19.4219" transform="rotate(45.9718 613.703 7.11027)" fill="url(#paint5_linear)" stroke="black" stroke-width="3"/>
<path d="M642.957 35.2164L620.557 29.9017L614.017 5.27686L642.957 35.2164Z" fill="#8C9FC5" stroke="black" stroke-width="3"/>
<defs>
<linearGradient id="paint0_linear" x1="40.8128" y1="0" x2="40.8128" y2="43.5491" gradientUnits="userSpaceOnUse">
<stop stop-color="#EDF3FF"/>
<stop offset="1" stop-color="#8397BF"/>
</linearGradient>
<linearGradient id="paint1_linear" x1="141.579" y1="192.977" x2="145.731" y2="217.677" gradientUnits="userSpaceOnUse">
<stop stop-color="#B3A164"/>
<stop offset="1" stop-color="#7C6100"/>
</linearGradient>
<linearGradient id="paint2_linear" x1="101.614" y1="78.9973" x2="129.695" y2="62.0735" gradientUnits="userSpaceOnUse">
<stop stop-color="#B3A164"/>
<stop offset="1" stop-color="#7C6100"/>
</linearGradient>
<linearGradient id="paint3_linear" x1="26.5654" y1="0" x2="26.5654" y2="28.3966" gradientUnits="userSpaceOnUse">
<stop stop-color="#EDF3FF"/>
<stop offset="1" stop-color="#8397BF"/>
</linearGradient>
<linearGradient id="paint4_linear" x1="650.184" y1="74.9411" x2="650.096" y2="91.1645" gradientUnits="userSpaceOnUse">
<stop stop-color="#B3A164"/>
<stop offset="1" stop-color="#7C6100"/>
</linearGradient>
<linearGradient id="paint5_linear" x1="634.76" y1="4.98926" x2="634.76" y2="27.4112" gradientUnits="userSpaceOnUse">
<stop stop-color="#EDF3FF"/>
<stop offset="1" stop-color="#8397BF"/>
</linearGradient>
</defs>
</svg>
