<svg width="442" height="283" viewBox="0 0 442 283" fill="none" xmlns="http://www.w3.org/2000/svg">
<rect x="1.11698" y="0.835866" width="55.1895" height="28.5584" transform="matrix(0.987796 -0.155754 0.129187 0.99162 69.6683 56.8074)" fill="url(#paint0_linear)" stroke="black" stroke-width="2"/>
<path d="M126.256 47.7188L102.387 68.6016L70.3027 56.5415L126.256 47.7188Z" fill="#8C9FC5" stroke="black" stroke-width="2"/>
<rect x="57.8354" y="199.995" width="65.5824" height="34.0439" transform="rotate(-8.19085 57.8354 199.995)" fill="url(#paint1_linear)" stroke="black" stroke-width="2"/>
<path d="M123.598 189.519L95.5884 213.709L57.3418 199.056L123.598 189.519Z" fill="#8C9FC5" stroke="black" stroke-width="2"/>
<path d="M59.7318 163.738L46.6969 144.9L57.3989 137.495L62.4832 139.548L67.5675 141.601L80.1423 159.774L70.4312 166.493L59.7318 163.738Z" fill="url(#paint2_linear)"/>
<path d="M57.3989 137.495L70.4338 156.332M57.3989 137.495L46.6969 144.9L59.7318 163.738M57.3989 137.495L62.4832 139.548M70.4338 156.332L59.7318 163.738M70.4338 156.332L75.288 158.053M59.7318 163.738L70.4312 166.493L80.1423 159.774M80.1423 159.774L67.5675 141.601L62.4832 139.548M80.1423 159.774L75.288 158.053M75.288 158.053L62.4832 139.548" stroke="black" stroke-width="2"/>
<path d="M115.037 134.533L137.461 109.403L132.996 131.691L148.476 134.792L127.663 158.313L131.756 137.882L115.037 134.533Z" fill="#FFE146" stroke="black" stroke-width="2"/>
<path d="M400.374 63.352L382.602 91.2888L366.636 81.2064L366.494 73.2851L366.353 65.3639L383.498 38.413L397.985 47.5619L400.374 63.352Z" fill="url(#paint3_linear)"/>
<path d="M366.636 81.2064L384.408 53.2696M366.636 81.2064L382.602 91.2888L400.374 63.352M366.636 81.2064L366.494 73.2851M384.408 53.2696L400.374 63.352M384.408 53.2696L383.953 45.8413M400.374 63.352L397.985 47.5619L383.498 38.413M383.498 38.413L366.353 65.3639L366.494 73.2851M383.498 38.413L383.953 45.8413M383.953 45.8413L366.494 73.2851" stroke="black" stroke-width="2"/>
<rect x="336.788" y="89.9042" width="65.5823" height="34.0439" transform="rotate(45.9718 336.788 89.9042)" fill="url(#paint4_linear)" stroke="black" stroke-width="2"/>
<path d="M383.784 137.081L347.774 128.538L337.261 88.9526L383.784 137.081Z" fill="#8C9FC5" stroke="black" stroke-width="2"/>
<path d="M216.885 195.327L180.034 209.401L172.038 188.465L177.557 180.803L183.076 173.142L218.627 159.565L225.883 178.562L216.885 195.327Z" fill="url(#paint5_linear)"/>
<path d="M172.038 188.465L208.889 174.39M172.038 188.465L180.034 209.401L216.885 195.327M172.038 188.465L177.557 180.803M208.889 174.39L216.885 195.327M208.889 174.39L213.758 166.978M216.885 195.327L225.883 178.562L218.627 159.565M218.627 159.565L183.076 173.142L177.557 180.803M218.627 159.565L213.758 166.978M213.758 166.978L177.557 180.803" stroke="black" stroke-width="2"/>
<path d="M147.47 29.1498L169.893 4.01999L165.429 26.3078L180.909 29.4088L160.096 52.9294L164.188 32.4989L147.47 29.1498Z" fill="#FFE146" stroke="black" stroke-width="2"/>
<path d="M416.14 40.3595L434.774 46.2116L425.928 36.4386L432.716 30.2945L415.362 24.7653L423.471 33.7239L416.14 40.3595Z" fill="#FFE146" stroke="black" stroke-width="2"/>
<path d="M88.3717 109.33L85.3821 122.049L92.6079 123.747L94.8784 121.597L97.149 119.446L100.033 107.177L93.4764 105.635L88.3717 109.33Z" fill="url(#paint6_linear)"/>
<path d="M92.6079 123.747L95.5975 111.029M92.6079 123.747L85.3821 122.049L88.3717 109.33M92.6079 123.747L94.8784 121.597M95.5975 111.029L88.3717 109.33M95.5975 111.029L97.8153 109.103M88.3717 109.33L93.4764 105.635L100.033 107.177M100.033 107.177L97.149 119.446L94.8784 121.597M100.033 107.177L97.8153 109.103M97.8153 109.103L94.8784 121.597" stroke="black" stroke-width="2"/>
<path d="M41.4809 270.035L60.1151 275.887L51.269 266.114L58.0569 259.97L40.7029 254.441L48.8118 263.399L41.4809 270.035Z" fill="#FFE146" stroke="black" stroke-width="2"/>
<rect x="1.39813" y="0.212688" width="20.3836" height="9.93792" transform="matrix(0.59272 0.805408 0.805408 -0.59272 3.55438 83.3518)" fill="url(#paint7_linear)" stroke="black" stroke-width="2"/>
<path d="M16.4231 102.167L15.6266 89.9351L3.28223 84.3105L16.4231 102.167Z" fill="#8C9FC5" stroke="black" stroke-width="2"/>
<path d="M383.865 171.006L380.875 183.725L388.101 185.423L390.372 183.273L392.642 181.122L395.526 168.852L388.97 167.311L383.865 171.006Z" fill="url(#paint8_linear)"/>
<path d="M388.101 185.423L391.091 172.705M388.101 185.423L380.875 183.725L383.865 171.006M388.101 185.423L390.372 183.273M391.091 172.705L383.865 171.006M391.091 172.705L393.308 170.779M383.865 171.006L388.97 167.311L395.526 168.852M395.526 168.852L392.642 181.122L390.372 183.273M395.526 168.852L393.308 170.779M393.308 170.779L390.372 183.273" stroke="black" stroke-width="2"/>
<defs>
<linearGradient id="paint0_linear" x1="28.5947" y1="0" x2="28.5947" y2="30.5584" gradientUnits="userSpaceOnUse">
<stop stop-color="#EDF3FF"/>
<stop offset="1" stop-color="#8397BF"/>
</linearGradient>
<linearGradient id="paint1_linear" x1="90.4943" y1="199.147" x2="90.4943" y2="235.191" gradientUnits="userSpaceOnUse">
<stop stop-color="#EDF3FF"/>
<stop offset="1" stop-color="#8397BF"/>
</linearGradient>
<linearGradient id="paint2_linear" x1="71.2479" y1="146.92" x2="55.5913" y2="157.754" gradientUnits="userSpaceOnUse">
<stop stop-color="#B3A164"/>
<stop offset="1" stop-color="#7C6100"/>
</linearGradient>
<linearGradient id="paint3_linear" x1="371.371" y1="57.4758" x2="394.679" y2="72.3035" gradientUnits="userSpaceOnUse">
<stop stop-color="#B3A164"/>
<stop offset="1" stop-color="#7C6100"/>
</linearGradient>
<linearGradient id="paint4_linear" x1="370.603" y1="88.4902" x2="370.603" y2="124.534" gradientUnits="userSpaceOnUse">
<stop stop-color="#EDF3FF"/>
<stop offset="1" stop-color="#8397BF"/>
</linearGradient>
<linearGradient id="paint5_linear" x1="193.481" y1="169.168" x2="205.179" y2="199.797" gradientUnits="userSpaceOnUse">
<stop stop-color="#B3A164"/>
<stop offset="1" stop-color="#7C6100"/>
</linearGradient>
<linearGradient id="paint6_linear" x1="97.9931" y1="115.855" x2="87.4221" y2="113.37" gradientUnits="userSpaceOnUse">
<stop stop-color="#B3A164"/>
<stop offset="1" stop-color="#7C6100"/>
</linearGradient>
<linearGradient id="paint7_linear" x1="11.1918" y1="0" x2="11.1918" y2="11.9379" gradientUnits="userSpaceOnUse">
<stop stop-color="#EDF3FF"/>
<stop offset="1" stop-color="#8397BF"/>
</linearGradient>
<linearGradient id="paint8_linear" x1="393.486" y1="177.531" x2="382.915" y2="175.046" gradientUnits="userSpaceOnUse">
<stop stop-color="#B3A164"/>
<stop offset="1" stop-color="#7C6100"/>
</linearGradient>
</defs>
</svg>
