<svg width="173" height="215" viewBox="0 0 173 215" fill="none" xmlns="http://www.w3.org/2000/svg">
<path d="M85.2943 151.273L54.3688 139.444L61.0563 121.784L68.7894 120.062L76.5225 118.34L106.357 129.752L100.288 145.776L85.2943 151.273Z" fill="url(#paint0_linear)"/>
<path d="M61.0563 121.784L91.9817 133.613M61.0563 121.784L54.3688 139.444L85.2943 151.273M61.0563 121.784L68.7894 120.062M91.9817 133.613L85.2943 151.273M91.9817 133.613L99.1691 131.683M85.2943 151.273L100.288 145.776L106.357 129.752M106.357 129.752L76.5225 118.34L68.7894 120.062M106.357 129.752L99.1691 131.683M99.1691 131.683L68.7894 120.062" stroke="black" stroke-width="1.5"/>
<path d="M89.7134 192.73L107.965 175.926L103.048 191.919L114.13 195.281L97.1752 211.022L101.682 196.361L89.7134 192.73Z" fill="#FFE146" stroke="black" stroke-width="1.5"/>
<rect x="90.3954" y="8.63506" width="66.0824" height="34.5439" transform="rotate(62.4194 90.3954 8.63506)" fill="url(#paint1_linear)" stroke="black" stroke-width="1.5"/>
<path d="M122.001 67.5247L89.8841 49.135L91.0088 8.19287L122.001 67.5247Z" fill="#8C9FC5" stroke="black" stroke-width="1.5"/>
<path d="M133.026 100.895L155.449 75.7651L150.984 98.0529L166.464 101.154L145.651 124.674L149.744 104.244L133.026 100.895Z" fill="#FFE146" stroke="black" stroke-width="1.5"/>
<rect x="20.0963" y="152.785" width="47.571" height="24.6712" transform="rotate(45.9718 20.0963 152.785)" fill="url(#paint2_linear)" stroke="black" stroke-width="1.5"/>
<path d="M54.2196 187.006L28.0733 180.803L20.4395 152.06L54.2196 187.006Z" fill="#8C9FC5" stroke="black" stroke-width="1.5"/>
<rect x="-0.743217" y="-0.756722" width="20.8836" height="10.4379" transform="matrix(0.0090029 -0.999959 -0.999959 -0.0090029 27.0781 115.406)" fill="url(#paint3_linear)" stroke="black" stroke-width="1.5"/>
<path d="M28.7738 94.5297L22.0727 104.793L28.5742 116.699L28.7738 94.5297Z" fill="#8C9FC5" stroke="black" stroke-width="1.5"/>
<path d="M41.7057 66.9285L38.7161 79.647L45.9418 81.3455L48.2124 79.195L50.483 77.0444L53.3671 64.7748L46.8104 63.2336L41.7057 66.9285Z" fill="url(#paint4_linear)"/>
<path d="M45.9418 81.3455L48.9315 68.627M45.9418 81.3455L38.7161 79.647L41.7057 66.9285M45.9418 81.3455L48.2124 79.195M48.9315 68.627L41.7057 66.9285M48.9315 68.627L51.1493 66.7009M41.7057 66.9285L46.8104 63.2336L53.3671 64.7748M53.3671 64.7748L50.483 77.0444L48.2124 79.195M53.3671 64.7748L51.1493 66.7009M51.1493 66.7009L48.2124 79.195" stroke="black" stroke-width="1.5"/>
<defs>
<linearGradient id="paint0_linear" x1="85.2544" y1="121.68" x2="75.3851" y2="147.482" gradientUnits="userSpaceOnUse">
<stop stop-color="#B3A164"/>
<stop offset="1" stop-color="#7C6100"/>
</linearGradient>
<linearGradient id="paint1_linear" x1="124.504" y1="7.62305" x2="124.504" y2="43.667" gradientUnits="userSpaceOnUse">
<stop stop-color="#EDF3FF"/>
<stop offset="1" stop-color="#8397BF"/>
</linearGradient>
<linearGradient id="paint2_linear" x1="44.6498" y1="151.725" x2="44.6498" y2="177.896" gradientUnits="userSpaceOnUse">
<stop stop-color="#EDF3FF"/>
<stop offset="1" stop-color="#8397BF"/>
</linearGradient>
<linearGradient id="paint3_linear" x1="11.1918" y1="0" x2="11.1918" y2="11.9379" gradientUnits="userSpaceOnUse">
<stop stop-color="#EDF3FF"/>
<stop offset="1" stop-color="#8397BF"/>
</linearGradient>
<linearGradient id="paint4_linear" x1="51.3271" y1="73.4533" x2="40.7561" y2="70.9685" gradientUnits="userSpaceOnUse">
<stop stop-color="#B3A164"/>
<stop offset="1" stop-color="#7C6100"/>
</linearGradient>
</defs>
</svg>
