<svg width="679" height="230" viewBox="0 0 679 230" fill="none" xmlns="http://www.w3.org/2000/svg">
<rect x="0.746977" y="0.729984" width="29.3732" height="15.0007" transform="matrix(0.999644 -0.0266817 -0.00367467 0.999993 61.7412 95.0702)" fill="url(#paint0_linear)" stroke="black" stroke-width="1.5"/>
<path d="M92.6005 94.2271L78.3329 103.741L62.0322 95.043L92.6005 94.2271Z" fill="#8C9FC5" stroke="black" stroke-width="1.5"/>
<path d="M121.78 167.26L104.008 195.197L88.0421 185.115L87.9006 177.193L87.7592 169.272L104.904 142.321L119.392 151.47L121.78 167.26Z" fill="url(#paint1_linear)"/>
<path d="M88.0421 185.115L105.814 157.178M88.0421 185.115L104.008 195.197L121.78 167.26M88.0421 185.115L87.9006 177.193M105.814 157.178L121.78 167.26M105.814 157.178L105.359 149.75M121.78 167.26L119.392 151.47L104.904 142.321M104.904 142.321L87.7592 169.272L87.9006 177.193M104.904 142.321L105.359 149.75M105.359 149.75L87.9006 177.193" stroke="black" stroke-width="1.5"/>
<path d="M19.2092 195.655L5.17858 176.85L19.7701 183.001L24.0425 172.867L37.1989 190.348L23.8233 184.71L19.2092 195.655Z" fill="#FFE146" stroke="black" stroke-width="1.5"/>
<path d="M61.8477 70.177L41.7074 43.1829L62.6529 52.0126L68.7857 37.4648L87.6712 62.5593L68.4711 54.4653L61.8477 70.177Z" fill="#FFE146" stroke="black" stroke-width="1.5"/>
<path d="M51.477 158.997L70.1112 164.849L61.2651 155.076L68.053 148.932L50.699 143.403L58.8079 152.362L51.477 158.997Z" fill="#FFE146" stroke="black" stroke-width="1.5"/>
<path d="M630.927 174.59L650.766 180.443L641.348 170.67L648.574 164.525L630.099 158.996L638.732 167.955L630.927 174.59Z" fill="#FFE146" stroke="black" stroke-width="1.5"/>
<path d="M665.694 114.052L641.703 117.993L644.087 130.795L649.437 132.97L654.787 135.146L677.931 131.344L675.768 119.727L665.694 114.052Z" fill="url(#paint2_linear)"/>
<path d="M644.087 130.795L668.078 126.854M644.087 130.795L641.703 117.993L665.694 114.052M644.087 130.795L649.437 132.97M668.078 126.854L665.694 114.052M668.078 126.854L673.004 129.099M665.694 114.052L675.768 119.727L677.931 131.344M677.931 131.344L654.787 135.146L649.437 132.97M677.931 131.344L673.004 129.099M673.004 129.099L649.437 132.97" stroke="black" stroke-width="1.5"/>
<rect x="-0.765955" y="-0.732816" width="21.6137" height="10.832" transform="matrix(0.00928194 -0.968373 -1.03056 -0.00871519 283.892 91.4409)" fill="url(#paint3_linear)" stroke="black" stroke-width="1.5"/>
<path d="M285.621 70.539L278.486 80.8027L285.408 92.7085L285.621 70.539Z" fill="#8C9FC5" stroke="black" stroke-width="1.5"/>
<path d="M603.2 174.576L600.017 187.294L607.71 188.993L610.127 186.842L612.545 184.692L615.615 172.422L608.635 170.881L603.2 174.576Z" fill="url(#paint4_linear)"/>
<path d="M607.71 188.993L610.893 176.274M607.71 188.993L600.017 187.294L603.2 174.576M607.71 188.993L610.127 186.842M610.893 176.274L603.2 174.576M610.893 176.274L613.254 174.348M603.2 174.576L608.635 170.881L615.615 172.422M615.615 172.422L612.545 184.692L610.127 186.842M615.615 172.422L613.254 174.348M613.254 174.348L610.127 186.842" stroke="black" stroke-width="1.5"/>
<path d="M305.331 106.066L325.17 111.918L315.752 102.145L322.979 96.0006L304.503 90.4714L313.136 99.4299L305.331 106.066Z" fill="#FFE146" stroke="black" stroke-width="1.5"/>
<path d="M640.685 44.988L651.169 43.4808L644.369 40.8763L646.031 36.3994L636.246 37.7655L642.48 40.1529L640.685 44.988Z" fill="#FFE146" stroke="black" stroke-width="1.5"/>
<rect x="-0.113426" y="-1.03939" width="19.5321" height="9.74195" transform="matrix(0.640054 -0.735832 -0.791288 -0.650023 658.565 63.725)" fill="url(#paint5_linear)" stroke="black" stroke-width="1.5"/>
<path d="M672.89 50.0473L661.757 53.1398L659.557 65.376L672.89 50.0473Z" fill="#8C9FC5" stroke="black" stroke-width="1.5"/>
<path d="M606.395 2.66949L596.588 9.72151L601.001 15.2831L603.984 15.1601L606.967 15.0371L616.428 8.23398L612.423 3.18735L606.395 2.66949Z" fill="url(#paint6_linear)"/>
<path d="M601.001 15.2831L610.808 8.23108M601.001 15.2831L596.588 9.72151L606.395 2.66949M601.001 15.2831L603.984 15.1601M610.808 8.23108L606.395 2.66949M610.808 8.23108L613.618 8.23253M606.395 2.66949L612.423 3.18735L616.428 8.23398M616.428 8.23398L606.967 15.0371L603.984 15.1601M616.428 8.23398L613.618 8.23253M613.618 8.23253L603.984 15.1601" stroke="black" stroke-width="1.5"/>
<path d="M354.036 161.003L344.229 168.055L348.642 173.616L351.625 173.493L354.608 173.37L364.07 166.567L360.065 161.52L354.036 161.003Z" fill="url(#paint7_linear)"/>
<path d="M348.642 173.616L358.45 166.564M348.642 173.616L344.229 168.055L354.036 161.003M348.642 173.616L351.625 173.493M358.45 166.564L354.036 161.003M358.45 166.564L361.26 166.566M354.036 161.003L360.065 161.52L364.07 166.567M364.07 166.567L354.608 173.37L351.625 173.493M364.07 166.567L361.26 166.566M361.26 166.566L351.625 173.493" stroke="black" stroke-width="1.5"/>
<path d="M560.576 118.119L544.622 129.59L551.801 138.638L556.654 138.438L561.507 138.237L576.897 127.171L570.383 118.961L560.576 118.119Z" fill="url(#paint8_linear)"/>
<path d="M551.801 138.638L567.755 127.166M551.801 138.638L544.622 129.59L560.576 118.119M551.801 138.638L556.654 138.438M567.755 127.166L560.576 118.119M567.755 127.166L572.326 127.168M560.576 118.119L570.383 118.961L576.897 127.171M576.897 127.171L561.507 138.237L556.654 138.438M576.897 127.171L572.326 127.168M572.326 127.168L556.654 138.438" stroke="black" stroke-width="1.5"/>
<path d="M560.382 105.328L571.712 108.67L566.334 103.089L570.461 99.5797L559.909 96.4218L564.84 101.538L560.382 105.328Z" fill="#FFE146" stroke="black" stroke-width="1.5"/>
<rect x="-0.765955" y="-0.732816" width="21.6137" height="10.832" transform="matrix(0.00928194 -0.968373 -1.03056 -0.00871519 622.493 88.6792)" fill="url(#paint9_linear)" stroke="black" stroke-width="1.5"/>
<path d="M624.221 67.7773L617.087 78.041L624.009 89.9468L624.221 67.7773Z" fill="#8C9FC5" stroke="black" stroke-width="1.5"/>
<path d="M558.212 67.1428L555.029 79.8613L562.722 81.5598L565.139 79.4093L567.556 77.2588L570.627 64.9892L563.646 63.4479L558.212 67.1428Z" fill="url(#paint10_linear)"/>
<path d="M562.722 81.5598L565.905 68.8413M562.722 81.5598L555.029 79.8613L558.212 67.1428M562.722 81.5598L565.139 79.4093M565.905 68.8413L558.212 67.1428M565.905 68.8413L568.266 66.9152M558.212 67.1428L563.646 63.4479L570.627 64.9892M570.627 64.9892L567.556 77.2588L565.139 79.4093M570.627 64.9892L568.266 66.9152M568.266 66.9152L565.139 79.4093" stroke="black" stroke-width="1.5"/>
<path d="M610.235 51.5742L617.96 43.1024L610.382 45.5538L608.569 40.6098L601.33 48.4818L608.277 46.2347L610.235 51.5742Z" fill="#FFE146" stroke="black" stroke-width="1.5"/>
<path d="M576.924 34.6855L584.65 26.2137L577.072 28.6651L575.259 23.7211L568.02 31.5931L574.967 29.346L576.924 34.6855Z" fill="#FFE146" stroke="black" stroke-width="1.5"/>
<path d="M617.517 115.486L618.599 90.9123L609.03 104.868L598.711 98.6252L597.601 121.537L606.372 108.744L617.517 115.486Z" fill="#FFE146" stroke="black" stroke-width="1.5"/>
<path d="M189.367 96.3507L165.376 100.292L167.76 113.094L173.11 115.269L178.46 117.445L201.603 113.643L199.441 102.026L189.367 96.3507Z" fill="url(#paint11_linear)"/>
<path d="M167.76 113.094L191.75 109.153M167.76 113.094L165.376 100.292L189.367 96.3507M167.76 113.094L173.11 115.269M191.75 109.153L189.367 96.3507M191.75 109.153L196.677 111.398M189.367 96.3507L199.441 102.026L201.603 113.643M201.603 113.643L178.46 117.445L173.11 115.269M201.603 113.643L196.677 111.398M196.677 111.398L173.11 115.269" stroke="black" stroke-width="1.5"/>
<path d="M300.431 164.519L320.269 170.371L310.852 160.598L318.078 154.454L299.603 148.925L308.236 157.884L300.431 164.519Z" fill="#FFE146" stroke="black" stroke-width="1.5"/>
<rect x="1.03965" y="0.31783" width="39.0459" height="20.0526" transform="matrix(0.465213 0.862207 0.920989 -0.438433 305.773 189.375)" fill="url(#paint12_linear)" stroke="black" stroke-width="1.5"/>
<path d="M324.372 224.773L326.661 203.419L305.689 190.147L324.372 224.773Z" fill="#8C9FC5" stroke="black" stroke-width="1.5"/>
<rect x="-0.575013" y="-0.873459" width="27.8587" height="14.1926" transform="matrix(0.235745 -0.943666 -1.00243 -0.220947 262.342 170.035)" fill="url(#paint13_linear)" stroke="black" stroke-width="1.5"/>
<path d="M270.578 143.939L258.678 154.797L263.723 171.38L270.578 143.939Z" fill="#8C9FC5" stroke="black" stroke-width="1.5"/>
<rect x="0.86193" y="-0.660911" width="19.5888" height="9.7082" transform="matrix(1.0033 0.0996267 0.14594 -0.980841 651.481 87.4702)" fill="url(#paint14_linear)" stroke="black" stroke-width="1.5"/>
<path d="M672.548 90.9667L663.695 83.9121L651.591 88.8857L672.548 90.9667Z" fill="#8C9FC5" stroke="black" stroke-width="1.5"/>
<path d="M157.052 143.052L147.245 150.104L151.658 155.665L154.641 155.542L157.624 155.419L167.085 148.616L163.081 143.57L157.052 143.052Z" fill="url(#paint15_linear)"/>
<path d="M151.658 155.665L161.465 148.613M151.658 155.665L147.245 150.104L157.052 143.052M151.658 155.665L154.641 155.542M161.465 148.613L157.052 143.052M161.465 148.613L164.275 148.615M157.052 143.052L163.081 143.57L167.085 148.616M167.085 148.616L157.624 155.419L154.641 155.542M167.085 148.616L164.275 148.615M164.275 148.615L154.641 155.542" stroke="black" stroke-width="1.5"/>
<path d="M272.473 106.922L256.519 118.394L263.698 127.441L268.55 127.241L273.403 127.041L288.794 115.974L282.279 107.764L272.473 106.922Z" fill="url(#paint16_linear)"/>
<path d="M263.698 127.441L279.652 115.969M263.698 127.441L256.519 118.394L272.473 106.922M263.698 127.441L268.55 127.241M279.652 115.969L272.473 106.922M279.652 115.969L284.223 115.971M272.473 106.922L282.279 107.764L288.794 115.974M288.794 115.974L273.403 127.041L268.55 127.241M288.794 115.974L284.223 115.971M284.223 115.971L268.55 127.241" stroke="black" stroke-width="1.5"/>
<path d="M321.057 30.7685L285.429 36.6208L288.969 55.6334L296.914 58.864L304.859 62.0946L339.229 56.4488L336.017 39.1967L321.057 30.7685Z" fill="url(#paint17_linear)"/>
<path d="M288.969 55.6334L324.596 49.7811M288.969 55.6334L285.429 36.6208L321.057 30.7685M288.969 55.6334L296.914 58.864M324.596 49.7811L321.057 30.7685M324.596 49.7811L331.913 53.115M321.057 30.7685L336.017 39.1967L339.229 56.4488M339.229 56.4488L304.859 62.0946L296.914 58.864M339.229 56.4488L331.913 53.115M331.913 53.115L296.914 58.864" stroke="black" stroke-width="1.5"/>
<path d="M589.266 151.974L600.596 155.317L595.217 149.735L599.345 146.226L588.793 143.068L593.723 148.185L589.266 151.974Z" fill="#FFE146" stroke="black" stroke-width="1.5"/>
<path d="M146.568 74.7667L166.406 80.6188L156.988 70.8458L164.215 64.7017L145.74 59.1726L154.372 68.1311L146.568 74.7667Z" fill="#FFE146" stroke="black" stroke-width="1.5"/>
<defs>
<linearGradient id="paint0_linear" x1="15.4366" y1="0" x2="15.4366" y2="16.5007" gradientUnits="userSpaceOnUse">
<stop stop-color="#EDF3FF"/>
<stop offset="1" stop-color="#8397BF"/>
</linearGradient>
<linearGradient id="paint1_linear" x1="92.7772" y1="161.384" x2="116.086" y2="176.212" gradientUnits="userSpaceOnUse">
<stop stop-color="#B3A164"/>
<stop offset="1" stop-color="#7C6100"/>
</linearGradient>
<linearGradient id="paint2_linear" x1="661.56" y1="134.033" x2="658.473" y2="115.238" gradientUnits="userSpaceOnUse">
<stop stop-color="#B3A164"/>
<stop offset="1" stop-color="#7C6100"/>
</linearGradient>
<linearGradient id="paint3_linear" x1="11.5569" y1="0" x2="11.5569" y2="12.332" gradientUnits="userSpaceOnUse">
<stop stop-color="#EDF3FF"/>
<stop offset="1" stop-color="#8397BF"/>
</linearGradient>
<linearGradient id="paint4_linear" x1="613.443" y1="181.101" x2="602.267" y2="178.304" gradientUnits="userSpaceOnUse">
<stop stop-color="#B3A164"/>
<stop offset="1" stop-color="#7C6100"/>
</linearGradient>
<linearGradient id="paint5_linear" x1="10.5161" y1="0" x2="10.5161" y2="11.2419" gradientUnits="userSpaceOnUse">
<stop stop-color="#EDF3FF"/>
<stop offset="1" stop-color="#8397BF"/>
</linearGradient>
<linearGradient id="paint6_linear" x1="609.736" y1="13.0459" x2="603.679" y2="4.62243" gradientUnits="userSpaceOnUse">
<stop stop-color="#B3A164"/>
<stop offset="1" stop-color="#7C6100"/>
</linearGradient>
<linearGradient id="paint7_linear" x1="357.378" y1="171.379" x2="351.321" y2="162.955" gradientUnits="userSpaceOnUse">
<stop stop-color="#B3A164"/>
<stop offset="1" stop-color="#7C6100"/>
</linearGradient>
<linearGradient id="paint8_linear" x1="566.011" y1="134.998" x2="556.158" y2="121.295" gradientUnits="userSpaceOnUse">
<stop stop-color="#B3A164"/>
<stop offset="1" stop-color="#7C6100"/>
</linearGradient>
<linearGradient id="paint9_linear" x1="11.5569" y1="0" x2="11.5569" y2="12.332" gradientUnits="userSpaceOnUse">
<stop stop-color="#EDF3FF"/>
<stop offset="1" stop-color="#8397BF"/>
</linearGradient>
<linearGradient id="paint10_linear" x1="568.455" y1="73.6677" x2="557.279" y2="70.8708" gradientUnits="userSpaceOnUse">
<stop stop-color="#B3A164"/>
<stop offset="1" stop-color="#7C6100"/>
</linearGradient>
<linearGradient id="paint11_linear" x1="185.233" y1="116.332" x2="182.146" y2="97.5369" gradientUnits="userSpaceOnUse">
<stop stop-color="#B3A164"/>
<stop offset="1" stop-color="#7C6100"/>
</linearGradient>
<linearGradient id="paint12_linear" x1="20.273" y1="0" x2="20.273" y2="21.5526" gradientUnits="userSpaceOnUse">
<stop stop-color="#EDF3FF"/>
<stop offset="1" stop-color="#8397BF"/>
</linearGradient>
<linearGradient id="paint13_linear" x1="14.6793" y1="0" x2="14.6793" y2="15.6926" gradientUnits="userSpaceOnUse">
<stop stop-color="#EDF3FF"/>
<stop offset="1" stop-color="#8397BF"/>
</linearGradient>
<linearGradient id="paint14_linear" x1="10.5444" y1="0" x2="10.5444" y2="11.2082" gradientUnits="userSpaceOnUse">
<stop stop-color="#EDF3FF"/>
<stop offset="1" stop-color="#8397BF"/>
</linearGradient>
<linearGradient id="paint15_linear" x1="160.393" y1="153.428" x2="154.336" y2="145.005" gradientUnits="userSpaceOnUse">
<stop stop-color="#B3A164"/>
<stop offset="1" stop-color="#7C6100"/>
</linearGradient>
<linearGradient id="paint16_linear" x1="277.908" y1="123.802" x2="268.054" y2="110.099" gradientUnits="userSpaceOnUse">
<stop stop-color="#B3A164"/>
<stop offset="1" stop-color="#7C6100"/>
</linearGradient>
<linearGradient id="paint17_linear" x1="314.918" y1="60.4422" x2="310.333" y2="32.53" gradientUnits="userSpaceOnUse">
<stop stop-color="#B3A164"/>
<stop offset="1" stop-color="#7C6100"/>
</linearGradient>
</defs>
</svg>
