<svg width="496" height="252" viewBox="0 0 496 252" fill="none" xmlns="http://www.w3.org/2000/svg">
<rect x="-0.990957" y="-1.00896" width="20.3836" height="9.93792" transform="matrix(0.0090029 -0.999959 -0.999959 -0.0090029 21.6018 118.122)" fill="url(#paint0_linear)" stroke="black" stroke-width="2"/>
<path d="M23.7943 97.7485L17.0932 108.012L23.5947 119.918L23.7943 97.7485Z" fill="#8C9FC5" stroke="black" stroke-width="2"/>
<path d="M395.254 123.374L415.093 129.226L405.675 119.453L412.902 113.309L394.426 107.78L403.059 116.739L395.254 123.374Z" fill="#FFE146" stroke="black" stroke-width="2"/>
<rect x="-0.766684" y="-1.16461" width="27.3587" height="13.6926" transform="matrix(0.235745 -0.943666 -1.00243 -0.220947 398.43 186.513)" fill="url(#paint1_linear)" stroke="black" stroke-width="2"/>
<path d="M407.104 160.954L395.204 171.812L400.249 188.395L407.104 160.954Z" fill="#8C9FC5" stroke="black" stroke-width="2"/>
<path d="M419.533 203.838L439.371 209.691L429.953 199.918L437.18 193.774L418.704 188.244L427.337 197.203L419.533 203.838Z" fill="#FFE146" stroke="black" stroke-width="2"/>
<rect x="0.556712" y="-1.2655" width="21.0848" height="10.3474" transform="matrix(0.952795 -0.373114 -0.396083 -0.892388 423.748 150.504)" fill="url(#paint2_linear)" stroke="black" stroke-width="2"/>
<path d="M446.217 144.078L433.366 141.951L424.432 152.609L446.217 144.078Z" fill="#8C9FC5" stroke="black" stroke-width="2"/>
<path d="M439.856 108.93L426.154 111.181L427.515 118.492L430.571 119.735L433.626 120.977L446.844 118.806L445.609 112.171L439.856 108.93Z" fill="url(#paint3_linear)"/>
<path d="M427.515 118.492L441.217 116.242M427.515 118.492L426.154 111.181L439.856 108.93M427.515 118.492L430.571 119.735M441.217 116.242L439.856 108.93M441.217 116.242L444.03 117.524M439.856 108.93L445.609 112.171L446.844 118.806M446.844 118.806L433.626 120.977L430.571 119.735M446.844 118.806L444.03 117.524M444.03 117.524L430.571 119.735" stroke="black" stroke-width="2"/>
<path d="M380.092 127.85L356.102 131.791L358.485 144.593L363.835 146.769L369.185 148.944L392.329 145.143L390.166 133.526L380.092 127.85Z" fill="url(#paint4_linear)"/>
<path d="M358.485 144.593L382.476 140.653M358.485 144.593L356.102 131.791L380.092 127.85M358.485 144.593L363.835 146.769M382.476 140.653L380.092 127.85M382.476 140.653L387.402 142.898M380.092 127.85L390.166 133.526L392.329 145.143M392.329 145.143L369.185 148.944L363.835 146.769M392.329 145.143L387.402 142.898M387.402 142.898L363.835 146.769" stroke="black" stroke-width="2"/>
<rect x="-0.766684" y="-1.16461" width="27.3587" height="13.6926" transform="matrix(0.235745 -0.943666 -1.00243 -0.220947 46.2984 183.36)" fill="url(#paint5_linear)" stroke="black" stroke-width="2"/>
<path d="M54.9724 157.8L43.0722 168.659L48.1172 185.241L54.9724 157.8Z" fill="#8C9FC5" stroke="black" stroke-width="2"/>
<path d="M456.487 37.9339L490.347 33.0661L468.385 24.6548L473.754 10.1959L442.153 14.608L462.285 22.3183L456.487 37.9339Z" fill="#FFE146" stroke="black" stroke-width="2"/>
<path d="M367.76 73.6031L357.953 80.6551L362.366 86.2167L365.349 86.0937L368.332 85.9707L377.793 79.1676L373.789 74.1209L367.76 73.6031Z" fill="url(#paint6_linear)"/>
<path d="M362.366 86.2167L372.173 79.1647M362.366 86.2167L357.953 80.6551L367.76 73.6031M362.366 86.2167L365.349 86.0937M372.173 79.1647L367.76 73.6031M372.173 79.1647L374.983 79.1661M367.76 73.6031L373.789 74.1209L377.793 79.1676M377.793 79.1676L368.332 85.9707L365.349 86.0937M377.793 79.1676L374.983 79.1661M374.983 79.1661L365.349 86.0937" stroke="black" stroke-width="2"/>
<rect x="0.556712" y="-1.2655" width="21.0848" height="10.3474" transform="matrix(0.952795 -0.373114 -0.396083 -0.892388 256.672 189.13)" fill="url(#paint7_linear)" stroke="black" stroke-width="2"/>
<path d="M279.141 182.704L266.289 180.577L257.355 191.235L279.141 182.704Z" fill="#8C9FC5" stroke="black" stroke-width="2"/>
<path d="M264.603 87.1765L261.421 99.895L269.113 101.594L271.531 99.443L273.948 97.2925L277.018 85.0228L270.038 83.4816L264.603 87.1765Z" fill="url(#paint8_linear)"/>
<path d="M269.113 101.594L272.296 88.875M269.113 101.594L261.421 99.895L264.603 87.1765M269.113 101.594L271.531 99.443M272.296 88.875L264.603 87.1765M272.296 88.875L274.657 86.9489M264.603 87.1765L270.038 83.4816L277.018 85.0228M277.018 85.0228L273.948 97.2925L271.531 99.443M277.018 85.0228L274.657 86.9489M274.657 86.9489L271.531 99.443" stroke="black" stroke-width="2"/>
<path d="M295.4 61.2667L299.807 23.0447L283.316 43.8271L267.886 33.0246L263.619 68.6505L278.736 49.6L295.4 61.2667Z" fill="#FFE146" stroke="black" stroke-width="2"/>
<rect x="-1.02127" y="-0.977088" width="50.81" height="26.1761" transform="matrix(0.00928194 -0.968373 -1.03056 -0.00871519 435.388 92.0298)" fill="url(#paint9_linear)" stroke="black" stroke-width="2"/>
<path d="M437.896 42.8644L421.596 66.3148L437.41 93.5171L437.896 42.8644Z" fill="#8C9FC5" stroke="black" stroke-width="2"/>
<path d="M162.189 236.304L159.007 249.023L166.699 250.721L169.117 248.571L171.534 246.42L174.604 234.151L167.624 232.61L162.189 236.304Z" fill="url(#paint10_linear)"/>
<path d="M166.699 250.721L169.882 238.003M166.699 250.721L159.007 249.023L162.189 236.304M166.699 250.721L169.117 248.571M169.882 238.003L162.189 236.304M169.882 238.003L172.243 236.077M162.189 236.304L167.624 232.61L174.604 234.151M174.604 234.151L171.534 246.42L169.117 248.571M174.604 234.151L172.243 236.077M172.243 236.077L169.117 248.571" stroke="black" stroke-width="2"/>
<path d="M272.544 141.892L273.626 117.318L264.057 131.273L253.738 125.031L252.627 147.942L261.399 135.15L272.544 141.892Z" fill="#FFE146" stroke="black" stroke-width="2"/>
<defs>
<linearGradient id="paint0_linear" x1="11.1918" y1="0" x2="11.1918" y2="11.9379" gradientUnits="userSpaceOnUse">
<stop stop-color="#EDF3FF"/>
<stop offset="1" stop-color="#8397BF"/>
</linearGradient>
<linearGradient id="paint1_linear" x1="14.6793" y1="0" x2="14.6793" y2="15.6926" gradientUnits="userSpaceOnUse">
<stop stop-color="#EDF3FF"/>
<stop offset="1" stop-color="#8397BF"/>
</linearGradient>
<linearGradient id="paint2_linear" x1="11.5424" y1="0" x2="11.5424" y2="12.3474" gradientUnits="userSpaceOnUse">
<stop stop-color="#EDF3FF"/>
<stop offset="1" stop-color="#8397BF"/>
</linearGradient>
<linearGradient id="paint3_linear" x1="437.495" y1="120.342" x2="435.732" y2="109.607" gradientUnits="userSpaceOnUse">
<stop stop-color="#B3A164"/>
<stop offset="1" stop-color="#7C6100"/>
</linearGradient>
<linearGradient id="paint4_linear" x1="375.959" y1="147.832" x2="372.872" y2="129.036" gradientUnits="userSpaceOnUse">
<stop stop-color="#B3A164"/>
<stop offset="1" stop-color="#7C6100"/>
</linearGradient>
<linearGradient id="paint5_linear" x1="14.6793" y1="0" x2="14.6793" y2="15.6926" gradientUnits="userSpaceOnUse">
<stop stop-color="#EDF3FF"/>
<stop offset="1" stop-color="#8397BF"/>
</linearGradient>
<linearGradient id="paint6_linear" x1="371.101" y1="83.9795" x2="365.044" y2="75.556" gradientUnits="userSpaceOnUse">
<stop stop-color="#B3A164"/>
<stop offset="1" stop-color="#7C6100"/>
</linearGradient>
<linearGradient id="paint7_linear" x1="11.5424" y1="0" x2="11.5424" y2="12.3474" gradientUnits="userSpaceOnUse">
<stop stop-color="#EDF3FF"/>
<stop offset="1" stop-color="#8397BF"/>
</linearGradient>
<linearGradient id="paint8_linear" x1="274.847" y1="93.7014" x2="263.671" y2="90.9045" gradientUnits="userSpaceOnUse">
<stop stop-color="#B3A164"/>
<stop offset="1" stop-color="#7C6100"/>
</linearGradient>
<linearGradient id="paint9_linear" x1="26.405" y1="0" x2="26.405" y2="28.1761" gradientUnits="userSpaceOnUse">
<stop stop-color="#EDF3FF"/>
<stop offset="1" stop-color="#8397BF"/>
</linearGradient>
<linearGradient id="paint10_linear" x1="172.433" y1="242.829" x2="161.256" y2="240.032" gradientUnits="userSpaceOnUse">
<stop stop-color="#B3A164"/>
<stop offset="1" stop-color="#7C6100"/>
</linearGradient>
</defs>
</svg>
