<svg width="631" height="190" viewBox="0 0 631 190" fill="none" xmlns="http://www.w3.org/2000/svg">
<rect x="-0.766684" y="-1.16461" width="27.3587" height="13.6926" transform="matrix(0.235745 -0.943666 -1.00243 -0.220947 510.651 106.168)" fill="url(#paint0_linear)" stroke="black" stroke-width="2"/>
<path d="M519.327 80.6084L507.427 91.4669L512.472 108.049L519.327 80.6084Z" fill="#8C9FC5" stroke="black" stroke-width="2"/>
<path d="M492.923 177.306L512.762 183.158L503.344 173.385L510.57 167.241L492.095 161.712L500.728 170.67L492.923 177.306Z" fill="#FFE146" stroke="black" stroke-width="2"/>
<rect x="0.556712" y="-1.2655" width="38.4202" height="19.6196" transform="matrix(0.952795 -0.373114 -0.396083 -0.892388 516.77 139.868)" fill="url(#paint1_linear)" stroke="black" stroke-width="2"/>
<path d="M555.758 126.974L533.255 123.25L517.612 141.912L555.758 126.974Z" fill="#8C9FC5" stroke="black" stroke-width="2"/>
<path d="M567.164 105.729L587.002 111.581L577.584 101.808L584.811 95.6636L566.335 90.1345L574.968 99.093L567.164 105.729Z" fill="#FFE146" stroke="black" stroke-width="2"/>
<rect x="-0.766684" y="-1.16461" width="27.3587" height="13.6926" transform="matrix(0.235745 -0.943666 -1.00243 -0.220947 601.889 176.761)" fill="url(#paint2_linear)" stroke="black" stroke-width="2"/>
<path d="M610.563 151.202L598.663 162.06L603.708 178.643L610.563 151.202Z" fill="#8C9FC5" stroke="black" stroke-width="2"/>
<rect x="-0.151234" y="-1.38585" width="19.0321" height="9.24195" transform="matrix(0.640054 -0.735832 -0.791288 -0.650023 527.943 33.476)" fill="url(#paint3_linear)" stroke="black" stroke-width="2"/>
<path d="M542.555 20.3979L531.422 23.4904L529.222 35.7266L542.555 20.3979Z" fill="#8C9FC5" stroke="black" stroke-width="2"/>
<path d="M501.937 141.108L492.13 148.16L496.543 153.722L499.526 153.599L502.509 153.476L511.97 146.673L507.965 141.626L501.937 141.108Z" fill="url(#paint4_linear)"/>
<path d="M496.543 153.722L506.35 146.67M496.543 153.722L492.13 148.16L501.937 141.108M496.543 153.722L499.526 153.599M506.35 146.67L501.937 141.108M506.35 146.67L509.16 146.671M501.937 141.108L507.965 141.626L511.97 146.673M511.97 146.673L502.509 153.476L499.526 153.599M511.97 146.673L509.16 146.671M509.16 146.671L499.526 153.599" stroke="black" stroke-width="2"/>
<rect x="0.556712" y="-1.2655" width="21.0848" height="10.3474" transform="matrix(0.952795 -0.373114 -0.396083 -0.892388 584.404 72.0678)" fill="url(#paint5_linear)" stroke="black" stroke-width="2"/>
<path d="M606.874 65.6406L594.022 63.5136L585.088 74.1719L606.874 65.6406Z" fill="#8C9FC5" stroke="black" stroke-width="2"/>
<path d="M600.894 1.73662L587.192 3.98728L588.553 11.299L591.609 12.5414L594.664 13.7838L607.882 11.6126L606.647 4.97787L600.894 1.73662Z" fill="url(#paint6_linear)"/>
<path d="M588.553 11.299L602.255 9.04836M588.553 11.299L587.192 3.98728L600.894 1.73662M588.553 11.299L591.609 12.5414M602.255 9.04836L600.894 1.73662M602.255 9.04836L605.069 10.3305M600.894 1.73662L606.647 4.97787L607.882 11.6126M607.882 11.6126L594.664 13.7838L591.609 12.5414M607.882 11.6126L605.069 10.3305M605.069 10.3305L591.609 12.5414" stroke="black" stroke-width="2"/>
<path d="M619.47 103.624L627.196 95.1527L619.617 97.604L617.805 92.6601L610.566 100.532L617.512 98.285L619.47 103.624Z" fill="#FFE146" stroke="black" stroke-width="2"/>
<path d="M571.494 160.691L573.734 141.266L565.353 151.828L557.511 146.338L555.342 164.444L563.025 154.762L571.494 160.691Z" fill="#FFE146" stroke="black" stroke-width="2"/>
<rect x="0.94422" y="-1.04323" width="21.1135" height="10.3322" transform="matrix(1.02762 -0.0783699 -0.0834008 -0.964857 563.076 45.4891)" fill="url(#paint7_linear)" stroke="black" stroke-width="2"/>
<path d="M586.942 45.6531L575.418 39.9017L563.416 47.4473L586.942 45.6531Z" fill="#8C9FC5" stroke="black" stroke-width="2"/>
<rect x="0.556712" y="-1.2655" width="38.4202" height="19.6196" transform="matrix(0.952795 -0.373114 -0.396083 -0.892388 14.5075 125.6)" fill="url(#paint8_linear)" stroke="black" stroke-width="2"/>
<path d="M53.495 112.706L30.9923 108.982L15.3496 127.644L53.495 112.706Z" fill="#8C9FC5" stroke="black" stroke-width="2"/>
<path d="M39.1694 53.0323L59.0078 58.8844L49.59 49.1114L56.8166 42.9674L38.3411 37.4382L46.974 46.3967L39.1694 53.0323Z" fill="#FFE146" stroke="black" stroke-width="2"/>
<path d="M543.518 70.9453L551.244 62.4735L543.665 64.9248L541.853 59.9809L534.614 67.8529L541.56 65.6058L543.518 70.9453Z" fill="#FFE146" stroke="black" stroke-width="2"/>
<path d="M560.178 19.855L567.904 11.3831L560.325 13.8345L558.513 8.89052L551.274 16.7625L558.22 14.5155L560.178 19.855Z" fill="#FFE146" stroke="black" stroke-width="2"/>
<path d="M62.3668 133.531L38.3762 137.472L40.7598 150.274L46.1097 152.449L51.4595 154.625L74.6034 150.823L72.4405 139.206L62.3668 133.531Z" fill="url(#paint9_linear)"/>
<path d="M40.7598 150.274L64.7504 146.333M40.7598 150.274L38.3762 137.472L62.3668 133.531M40.7598 150.274L46.1097 152.449M64.7504 146.333L62.3668 133.531M64.7504 146.333L69.6769 148.578M62.3668 133.531L72.4405 139.206L74.6034 150.823M74.6034 150.823L51.4595 154.625L46.1097 152.449M74.6034 150.823L69.6769 148.578M69.6769 148.578L46.1097 152.449" stroke="black" stroke-width="2"/>
<defs>
<linearGradient id="paint0_linear" x1="14.6793" y1="0" x2="14.6793" y2="15.6926" gradientUnits="userSpaceOnUse">
<stop stop-color="#EDF3FF"/>
<stop offset="1" stop-color="#8397BF"/>
</linearGradient>
<linearGradient id="paint1_linear" x1="20.2101" y1="0" x2="20.2101" y2="21.6196" gradientUnits="userSpaceOnUse">
<stop stop-color="#EDF3FF"/>
<stop offset="1" stop-color="#8397BF"/>
</linearGradient>
<linearGradient id="paint2_linear" x1="14.6793" y1="0" x2="14.6793" y2="15.6926" gradientUnits="userSpaceOnUse">
<stop stop-color="#EDF3FF"/>
<stop offset="1" stop-color="#8397BF"/>
</linearGradient>
<linearGradient id="paint3_linear" x1="10.5161" y1="0" x2="10.5161" y2="11.2419" gradientUnits="userSpaceOnUse">
<stop stop-color="#EDF3FF"/>
<stop offset="1" stop-color="#8397BF"/>
</linearGradient>
<linearGradient id="paint4_linear" x1="505.278" y1="151.485" x2="499.221" y2="143.061" gradientUnits="userSpaceOnUse">
<stop stop-color="#B3A164"/>
<stop offset="1" stop-color="#7C6100"/>
</linearGradient>
<linearGradient id="paint5_linear" x1="11.5424" y1="0" x2="11.5424" y2="12.3474" gradientUnits="userSpaceOnUse">
<stop stop-color="#EDF3FF"/>
<stop offset="1" stop-color="#8397BF"/>
</linearGradient>
<linearGradient id="paint6_linear" x1="598.533" y1="13.1483" x2="596.77" y2="2.41404" gradientUnits="userSpaceOnUse">
<stop stop-color="#B3A164"/>
<stop offset="1" stop-color="#7C6100"/>
</linearGradient>
<linearGradient id="paint7_linear" x1="11.5568" y1="0" x2="11.5568" y2="12.3322" gradientUnits="userSpaceOnUse">
<stop stop-color="#EDF3FF"/>
<stop offset="1" stop-color="#8397BF"/>
</linearGradient>
<linearGradient id="paint8_linear" x1="20.2101" y1="0" x2="20.2101" y2="21.6196" gradientUnits="userSpaceOnUse">
<stop stop-color="#EDF3FF"/>
<stop offset="1" stop-color="#8397BF"/>
</linearGradient>
<linearGradient id="paint9_linear" x1="58.2333" y1="153.512" x2="55.146" y2="134.717" gradientUnits="userSpaceOnUse">
<stop stop-color="#B3A164"/>
<stop offset="1" stop-color="#7C6100"/>
</linearGradient>
</defs>
</svg>
