<svg width="401" height="252" viewBox="0 0 401 252" fill="none" xmlns="http://www.w3.org/2000/svg">
<rect x="0.278356" y="-0.632751" width="39.4202" height="20.6196" transform="matrix(0.952795 -0.373114 -0.396083 -0.892388 14.7322 54.1164)" fill="url(#paint0_linear)" stroke="black"/>
<path d="M53.4823 40.1292L30.9796 36.4048L15.3369 55.0669L53.4823 40.1292Z" fill="#8C9FC5" stroke="black"/>
<path d="M24.4565 160.421L44.2949 166.273L34.8771 156.5L42.1037 150.356L23.6282 144.826L32.2611 153.785L24.4565 160.421Z" fill="#FFE146" stroke="black"/>
<path d="M17.3226 94.9442L28.6527 98.2864L23.274 92.7049L27.4013 89.1959L16.8495 86.038L21.78 91.1545L17.3226 94.9442Z" fill="#FFE146" stroke="black"/>
<rect x="-0.510637" y="-0.488544" width="22.1137" height="11.332" transform="matrix(0.00928194 -0.968373 -1.03056 -0.00871519 61.4174 144.366)" fill="url(#paint1_linear)" stroke="black"/>
<path d="M62.6412 122.97L55.507 133.234L62.4287 145.14L62.6412 122.97Z" fill="#8C9FC5" stroke="black"/>
<path d="M40.5674 91.7708L37.3845 104.489L45.0772 106.188L47.4945 104.037L49.9118 101.887L52.9823 89.6171L46.0019 88.0759L40.5674 91.7708Z" fill="url(#paint2_linear)"/>
<path d="M45.0772 106.188L48.2601 93.4693M45.0772 106.188L37.3845 104.489L40.5674 91.7708M45.0772 106.188L47.4945 104.037M48.2601 93.4693L40.5674 91.7708M48.2601 93.4693L50.6212 91.5432M40.5674 91.7708L46.0019 88.0759L52.9823 89.6171M52.9823 89.6171L49.9118 101.887L47.4945 104.037M52.9823 89.6171L50.6212 91.5432M50.6212 91.5432L47.4945 104.037" stroke="black"/>
<path d="M60.682 80.7021L68.4076 72.2303L60.8294 74.6817L59.0167 69.7377L51.7776 77.6097L58.7243 75.3626L60.682 80.7021Z" fill="#FFE146" stroke="black"/>
<rect x="155.421" y="34.0421" width="38.1924" height="19.9026" transform="rotate(22.6315 155.421 34.0421)" fill="url(#paint3_linear)" stroke="black"/>
<path d="M191.328 48.4695L170.191 52.1938L155.498 33.5317L191.328 48.4695Z" fill="#8C9FC5" stroke="black"/>
<path d="M161.517 88.972L180.151 83.12L171.305 92.893L178.093 99.037L160.739 104.566L168.848 95.6077L161.517 88.972Z" fill="#FFE146" stroke="black"/>
<path d="M194.173 149.511L171.639 145.57L173.878 132.768L178.903 130.593L183.928 128.417L205.667 132.219L203.635 143.836L194.173 149.511Z" fill="url(#paint4_linear)"/>
<path d="M173.878 132.768L196.412 136.709M173.878 132.768L171.639 145.57L194.173 149.511M173.878 132.768L178.903 130.593M196.412 136.709L194.173 149.511M196.412 136.709L201.039 134.464M194.173 149.511L203.635 143.836L205.667 132.219M205.667 132.219L183.928 128.417L178.903 130.593M205.667 132.219L201.039 134.464M201.039 134.464L178.903 130.593" stroke="black"/>
<path d="M208.982 46.1263L227.616 40.2743L218.77 50.0472L225.558 56.1913L208.204 61.7205L216.313 52.762L208.982 46.1263Z" fill="#FFE146" stroke="black"/>
<rect x="-0.0748049" y="0.714983" width="19.425" height="9.87007" transform="matrix(0.619075 0.757706 -0.768685 0.67226 385.71 137.205)" fill="url(#paint5_linear)" stroke="black"/>
<path d="M397.832 152.39L387.374 149.297L385.308 137.061L397.832 152.39Z" fill="#8C9FC5" stroke="black"/>
<path d="M390.206 111.824L380.994 104.772L385.139 99.2101L387.941 99.3331L390.743 99.4561L399.63 106.259L395.869 111.306L390.206 111.824Z" fill="url(#paint6_linear)"/>
<path d="M385.139 99.2101L394.351 106.262M385.139 99.2101L380.994 104.772L390.206 111.824M385.139 99.2101L387.941 99.3331M394.351 106.262L390.206 111.824M394.351 106.262L396.991 106.261M390.206 111.824L395.869 111.306L399.63 106.259M399.63 106.259L390.743 99.4561L387.941 99.3331M399.63 106.259L396.991 106.261M396.991 106.261L387.941 99.3331" stroke="black"/>
<path d="M329.99 63.879L340.632 60.5368L335.58 66.1184L339.457 69.6274L329.545 72.7852L334.177 67.6688L329.99 63.879Z" fill="#FFE146" stroke="black"/>
<rect x="369.075" y="78.714" width="21.3836" height="10.9379" transform="rotate(89.4842 369.075 78.714)" fill="url(#paint7_linear)" stroke="black"/>
<path d="M369.772 100.592L363.071 90.3287L369.572 78.4229L369.772 100.592Z" fill="#8C9FC5" stroke="black"/>
<path d="M327.952 102.066L324.962 89.3471L332.188 87.6486L334.459 89.7992L336.729 91.9497L339.613 104.219L333.056 105.761L327.952 102.066Z" fill="url(#paint8_linear)"/>
<path d="M332.188 87.6486L335.178 100.367M332.188 87.6486L324.962 89.3471L327.952 102.066M332.188 87.6486L334.459 89.7992M335.178 100.367L327.952 102.066M335.178 100.367L337.395 102.293M327.952 102.066L333.056 105.761L339.613 104.219M339.613 104.219L336.729 91.9497L334.459 89.7992M339.613 104.219L337.395 102.293M337.395 102.293L334.459 89.7992" stroke="black"/>
<path d="M376.818 117.633L384.074 126.105L376.956 123.654L375.253 128.598L368.454 120.726L374.979 122.973L376.818 117.633Z" fill="#FFE146" stroke="black"/>
<path d="M338.051 122.932L340.155 142.357L332.283 131.795L324.917 137.285L322.88 119.179L330.096 128.861L338.051 122.932Z" fill="#FFE146" stroke="black"/>
<rect x="366.148" y="115.09" width="21.3836" height="10.9379" transform="rotate(89.4842 366.148 115.09)" fill="url(#paint9_linear)" stroke="black"/>
<path d="M366.846 136.968L360.145 126.705L366.646 114.799L366.846 136.968Z" fill="#8C9FC5" stroke="black"/>
<path d="M177.12 16.0618L174.13 3.34324L181.356 1.64474L183.626 3.79527L185.897 5.94581L188.781 18.2154L182.224 19.7567L177.12 16.0618Z" fill="url(#paint10_linear)"/>
<path d="M181.356 1.64474L184.346 14.3633M181.356 1.64474L174.13 3.34324L177.12 16.0618M181.356 1.64474L183.626 3.79527M184.346 14.3633L177.12 16.0618M184.346 14.3633L186.563 16.2893M177.12 16.0618L182.224 19.7567L188.781 18.2154M188.781 18.2154L185.897 5.94581L183.626 3.79527M188.781 18.2154L186.563 16.2893M186.563 16.2893L183.626 3.79527" stroke="black"/>
<path d="M367.932 142.861L375.189 151.333L368.07 148.881L366.368 153.825L359.568 145.953L366.093 148.2L367.932 142.861Z" fill="#FFE146" stroke="black"/>
<path d="M383.658 53.721L384.674 78.2953L375.686 64.3396L365.993 70.5823L364.951 47.6704L373.19 60.4631L383.658 53.721Z" fill="#FFE146" stroke="black"/>
<path d="M326.541 237.287L345.176 243.139L336.33 233.366L343.117 227.222L325.763 221.693L333.872 230.651L326.541 237.287Z" fill="#FFE146" stroke="black"/>
<path d="M370.265 186.657L388.899 192.509L380.053 182.736L386.841 176.592L369.487 171.063L377.596 180.021L370.265 186.657Z" fill="#FFE146" stroke="black"/>
<path d="M363.981 194.892L341.446 198.833L343.685 211.635L348.71 213.81L353.735 215.986L375.474 212.184L373.443 200.567L363.981 194.892Z" fill="url(#paint11_linear)"/>
<path d="M343.685 211.635L366.22 207.694M343.685 211.635L341.446 198.833L363.981 194.892M343.685 211.635L348.71 213.81M366.22 207.694L363.981 194.892M366.22 207.694L370.847 209.939M363.981 194.892L373.443 200.567L375.474 212.184M375.474 212.184L353.735 215.986L348.71 213.81M375.474 212.184L370.847 209.939M370.847 209.939L348.71 213.81" stroke="black"/>
<defs>
<linearGradient id="paint0_linear" x1="20.2101" y1="0" x2="20.2101" y2="21.6196" gradientUnits="userSpaceOnUse">
<stop stop-color="#EDF3FF"/>
<stop offset="1" stop-color="#8397BF"/>
</linearGradient>
<linearGradient id="paint1_linear" x1="11.5569" y1="0" x2="11.5569" y2="12.332" gradientUnits="userSpaceOnUse">
<stop stop-color="#EDF3FF"/>
<stop offset="1" stop-color="#8397BF"/>
</linearGradient>
<linearGradient id="paint2_linear" x1="50.8105" y1="98.2956" x2="39.6344" y2="95.4988" gradientUnits="userSpaceOnUse">
<stop stop-color="#B3A164"/>
<stop offset="1" stop-color="#7C6100"/>
</linearGradient>
<linearGradient id="paint3_linear" x1="174.749" y1="33.3882" x2="174.749" y2="54.2908" gradientUnits="userSpaceOnUse">
<stop stop-color="#EDF3FF"/>
<stop offset="1" stop-color="#8397BF"/>
</linearGradient>
<linearGradient id="paint4_linear" x1="190.29" y1="129.53" x2="187.015" y2="148.259" gradientUnits="userSpaceOnUse">
<stop stop-color="#B3A164"/>
<stop offset="1" stop-color="#7C6100"/>
</linearGradient>
<linearGradient id="paint5_linear" x1="10.2125" y1="0" x2="10.2125" y2="10.8701" gradientUnits="userSpaceOnUse">
<stop stop-color="#EDF3FF"/>
<stop offset="1" stop-color="#8397BF"/>
</linearGradient>
<linearGradient id="paint6_linear" x1="393.344" y1="101.447" x2="387.176" y2="109.504" gradientUnits="userSpaceOnUse">
<stop stop-color="#B3A164"/>
<stop offset="1" stop-color="#7C6100"/>
</linearGradient>
<linearGradient id="paint7_linear" x1="380.762" y1="78.2095" x2="380.762" y2="90.1474" gradientUnits="userSpaceOnUse">
<stop stop-color="#EDF3FF"/>
<stop offset="1" stop-color="#8397BF"/>
</linearGradient>
<linearGradient id="paint8_linear" x1="337.573" y1="95.5408" x2="327.002" y2="98.0257" gradientUnits="userSpaceOnUse">
<stop stop-color="#B3A164"/>
<stop offset="1" stop-color="#7C6100"/>
</linearGradient>
<linearGradient id="paint9_linear" x1="377.835" y1="114.585" x2="377.835" y2="126.523" gradientUnits="userSpaceOnUse">
<stop stop-color="#EDF3FF"/>
<stop offset="1" stop-color="#8397BF"/>
</linearGradient>
<linearGradient id="paint10_linear" x1="186.741" y1="9.53692" x2="176.17" y2="12.0218" gradientUnits="userSpaceOnUse">
<stop stop-color="#B3A164"/>
<stop offset="1" stop-color="#7C6100"/>
</linearGradient>
<linearGradient id="paint11_linear" x1="360.098" y1="214.873" x2="356.823" y2="196.144" gradientUnits="userSpaceOnUse">
<stop stop-color="#B3A164"/>
<stop offset="1" stop-color="#7C6100"/>
</linearGradient>
</defs>
</svg>
