<svg width="387" height="296" viewBox="0 0 387 296" fill="none" xmlns="http://www.w3.org/2000/svg">
<path d="M48.3947 93.6272L58.8792 92.1199L52.0789 89.5155L53.7411 85.0385L43.9563 86.4047L50.1899 88.7921L48.3947 93.6272Z" fill="#FFE146" stroke="black"/>
<path d="M74.7753 103.142L58.8215 114.614L66.0006 123.661L70.8532 123.461L75.7058 123.261L91.0966 112.194L84.5822 103.984L74.7753 103.142Z" fill="url(#paint0_linear)"/>
<path d="M66.0006 123.661L81.9544 112.189M66.0006 123.661L58.8215 114.614L74.7753 103.142M66.0006 123.661L70.8532 123.461M81.9544 112.189L74.7753 103.142M81.9544 112.189L86.5255 112.192M74.7753 103.142L84.5822 103.984L91.0966 112.194M91.0966 112.194L75.7058 123.261L70.8532 123.461M91.0966 112.194L86.5255 112.192M86.5255 112.192L70.8532 123.461" stroke="black"/>
<path d="M46.0633 59.896L48.3031 40.4706L39.922 51.0327L32.08 45.5426L29.9113 63.6487L37.5939 53.9667L46.0633 59.896Z" fill="#FFE146" stroke="black"/>
<path d="M54.2664 157.852L55.3483 133.277L45.7795 147.233L35.4602 140.99L34.3501 163.902L43.1215 151.11L54.2664 157.852Z" fill="#FFE146" stroke="black"/>
<path d="M24.9909 1.43717L1.00027 5.37793L3.38381 18.1804L8.73368 20.3557L14.0835 22.5311L37.2274 18.7294L35.0646 7.11242L24.9909 1.43717Z" fill="url(#paint1_linear)"/>
<path d="M3.38381 18.1804L27.3744 14.2396M3.38381 18.1804L1.00027 5.37793L24.9909 1.43717M3.38381 18.1804L8.73368 20.3557M27.3744 14.2396L24.9909 1.43717M27.3744 14.2396L32.3009 16.4845M24.9909 1.43717L35.0646 7.11242L37.2274 18.7294M37.2274 18.7294L14.0835 22.5311L8.73368 20.3557M37.2274 18.7294L32.3009 16.4845M32.3009 16.4845L8.73368 20.3557" stroke="black"/>
<rect x="164.54" y="120.166" width="27.4573" height="14.1772" transform="rotate(76.7942 164.54 120.166)" fill="url(#paint2_linear)" stroke="black"/>
<path d="M171.414 147.271L160.236 136.413L164.975 119.83L171.414 147.271Z" fill="#8C9FC5" stroke="black"/>
<rect x="170.959" y="26.8731" width="38.1924" height="19.9026" transform="rotate(22.6315 170.959 26.8731)" fill="url(#paint3_linear)" stroke="black"/>
<path d="M206.865 41.3005L185.728 45.0249L171.035 26.3628L206.865 41.3005Z" fill="#8C9FC5" stroke="black"/>
<rect x="220.6" y="57.4657" width="27.4573" height="14.1772" transform="rotate(76.7942 220.6 57.4657)" fill="url(#paint4_linear)" stroke="black"/>
<path d="M227.474 84.5703L216.296 73.7118L221.035 57.1294L227.474 84.5703Z" fill="#8C9FC5" stroke="black"/>
<path d="M354.824 153.535L364.672 155.043L358.284 157.647L359.845 162.124L350.655 160.758L356.51 158.371L354.824 153.535Z" fill="#FFE146" stroke="black"/>
<rect x="-0.0748049" y="0.714983" width="19.425" height="9.87007" transform="matrix(0.619075 0.757706 -0.768685 0.67226 372.954 133.292)" fill="url(#paint5_linear)" stroke="black"/>
<path d="M385.077 148.478L374.62 145.385L372.553 133.149L385.077 148.478Z" fill="#8C9FC5" stroke="black"/>
<path d="M364.228 183.631L355.016 176.579L359.161 171.018L361.963 171.141L364.765 171.264L373.652 178.067L369.89 183.113L364.228 183.631Z" fill="url(#paint6_linear)"/>
<path d="M359.161 171.018L368.373 178.07M359.161 171.018L355.016 176.579L364.228 183.631M359.161 171.018L361.963 171.141M368.373 178.07L364.228 183.631M368.373 178.07L371.012 178.068M364.228 183.631L369.89 183.113L373.652 178.067M373.652 178.067L364.765 171.264L361.963 171.141M373.652 178.067L371.012 178.068M371.012 178.068L361.963 171.141" stroke="black"/>
<path d="M202.102 117.673L179.567 113.732L181.806 100.93L186.831 98.7546L191.857 96.5792L213.596 100.381L211.564 111.998L202.102 117.673Z" fill="url(#paint7_linear)"/>
<path d="M181.806 100.93L204.341 104.871M181.806 100.93L179.567 113.732L202.102 117.673M181.806 100.93L186.831 98.7546M204.341 104.871L202.102 117.673M204.341 104.871L208.968 102.626M202.102 117.673L211.564 111.998L213.596 100.381M213.596 100.381L191.857 96.5792L186.831 98.7546M213.596 100.381L208.968 102.626M208.968 102.626L186.831 98.7546" stroke="black"/>
<rect x="0.269098" y="-0.653901" width="38.1924" height="19.9026" transform="matrix(0.922999 -0.384803 -0.384803 -0.922999 222.158 283.131)" fill="url(#paint8_linear)" stroke="black"/>
<path d="M258.561 269.204L237.425 265.48L222.731 284.142L258.561 269.204Z" fill="#8C9FC5" stroke="black"/>
<path d="M239.123 233.924L257.758 239.776L248.912 230.003L255.699 223.859L238.345 218.33L246.454 227.288L239.123 233.924Z" fill="#FFE146" stroke="black"/>
<path d="M252.201 181.154L229.667 185.095L231.906 197.898L236.931 200.073L241.956 202.248L263.695 198.447L261.664 186.83L252.201 181.154Z" fill="url(#paint9_linear)"/>
<path d="M231.906 197.898L254.44 193.957M231.906 197.898L229.667 185.095L252.201 181.154M231.906 197.898L236.931 200.073M254.44 193.957L252.201 181.154M254.44 193.957L259.068 196.202M252.201 181.154L261.664 186.83L263.695 198.447M263.695 198.447L241.956 202.248L236.931 200.073M263.695 198.447L259.068 196.202M259.068 196.202L236.931 200.073" stroke="black"/>
<rect x="0.269098" y="-0.653901" width="38.1924" height="19.9026" transform="matrix(0.922999 -0.384803 -0.384803 -0.922999 181.654 182.331)" fill="url(#paint10_linear)" stroke="black"/>
<path d="M218.058 168.405L196.921 164.68L182.228 183.342L218.058 168.405Z" fill="#8C9FC5" stroke="black"/>
<rect x="-0.372553" y="-0.601003" width="27.4573" height="14.1772" transform="matrix(0.22845 -0.973556 -0.973556 -0.22845 334.426 279.992)" fill="url(#paint11_linear)" stroke="black"/>
<path d="M341.8 253.387L330.623 264.246L335.361 280.828L341.8 253.387Z" fill="#8C9FC5" stroke="black"/>
<rect x="0.269098" y="-0.653901" width="21.3836" height="10.9379" transform="matrix(0.922999 -0.384803 -0.384803 -0.922999 351.962 248.009)" fill="url(#paint12_linear)" stroke="black"/>
<path d="M372.854 240.549L360.782 238.422L352.391 249.081L372.854 240.549Z" fill="#8C9FC5" stroke="black"/>
<path d="M361.715 201.499L348.845 203.75L350.124 211.062L352.994 212.304L355.864 213.547L368.279 211.375L367.119 204.741L361.715 201.499Z" fill="url(#paint13_linear)"/>
<path d="M350.124 211.062L362.994 208.811M350.124 211.062L348.845 203.75L361.715 201.499M350.124 211.062L352.994 212.304M362.994 208.811L361.715 201.499M362.994 208.811L365.637 210.093M361.715 201.499L367.119 204.741L368.279 211.375M368.279 211.375L355.864 213.547L352.994 212.304M368.279 211.375L365.637 210.093M365.637 210.093L352.994 212.304" stroke="black"/>
<defs>
<linearGradient id="paint0_linear" x1="80.2104" y1="120.022" x2="70.3572" y2="106.319" gradientUnits="userSpaceOnUse">
<stop stop-color="#B3A164"/>
<stop offset="1" stop-color="#7C6100"/>
</linearGradient>
<linearGradient id="paint1_linear" x1="20.8574" y1="21.4184" x2="17.77" y2="2.62329" gradientUnits="userSpaceOnUse">
<stop stop-color="#B3A164"/>
<stop offset="1" stop-color="#7C6100"/>
</linearGradient>
<linearGradient id="paint2_linear" x1="179.141" y1="119.565" x2="179.141" y2="134.743" gradientUnits="userSpaceOnUse">
<stop stop-color="#EDF3FF"/>
<stop offset="1" stop-color="#8397BF"/>
</linearGradient>
<linearGradient id="paint3_linear" x1="190.286" y1="26.2192" x2="190.286" y2="47.1218" gradientUnits="userSpaceOnUse">
<stop stop-color="#EDF3FF"/>
<stop offset="1" stop-color="#8397BF"/>
</linearGradient>
<linearGradient id="paint4_linear" x1="235.201" y1="56.8647" x2="235.201" y2="72.042" gradientUnits="userSpaceOnUse">
<stop stop-color="#EDF3FF"/>
<stop offset="1" stop-color="#8397BF"/>
</linearGradient>
<linearGradient id="paint5_linear" x1="10.2125" y1="0" x2="10.2125" y2="10.8701" gradientUnits="userSpaceOnUse">
<stop stop-color="#EDF3FF"/>
<stop offset="1" stop-color="#8397BF"/>
</linearGradient>
<linearGradient id="paint6_linear" x1="367.366" y1="173.255" x2="361.198" y2="181.312" gradientUnits="userSpaceOnUse">
<stop stop-color="#B3A164"/>
<stop offset="1" stop-color="#7C6100"/>
</linearGradient>
<linearGradient id="paint7_linear" x1="198.219" y1="97.6919" x2="194.944" y2="116.421" gradientUnits="userSpaceOnUse">
<stop stop-color="#B3A164"/>
<stop offset="1" stop-color="#7C6100"/>
</linearGradient>
<linearGradient id="paint8_linear" x1="19.5962" y1="0" x2="19.5962" y2="20.9026" gradientUnits="userSpaceOnUse">
<stop stop-color="#EDF3FF"/>
<stop offset="1" stop-color="#8397BF"/>
</linearGradient>
<linearGradient id="paint9_linear" x1="248.319" y1="201.136" x2="245.043" y2="182.406" gradientUnits="userSpaceOnUse">
<stop stop-color="#B3A164"/>
<stop offset="1" stop-color="#7C6100"/>
</linearGradient>
<linearGradient id="paint10_linear" x1="19.5962" y1="0" x2="19.5962" y2="20.9026" gradientUnits="userSpaceOnUse">
<stop stop-color="#EDF3FF"/>
<stop offset="1" stop-color="#8397BF"/>
</linearGradient>
<linearGradient id="paint11_linear" x1="14.2287" y1="0" x2="14.2287" y2="15.1772" gradientUnits="userSpaceOnUse">
<stop stop-color="#EDF3FF"/>
<stop offset="1" stop-color="#8397BF"/>
</linearGradient>
<linearGradient id="paint12_linear" x1="11.1918" y1="0" x2="11.1918" y2="11.9379" gradientUnits="userSpaceOnUse">
<stop stop-color="#EDF3FF"/>
<stop offset="1" stop-color="#8397BF"/>
</linearGradient>
<linearGradient id="paint13_linear" x1="359.498" y1="212.911" x2="357.627" y2="202.214" gradientUnits="userSpaceOnUse">
<stop stop-color="#B3A164"/>
<stop offset="1" stop-color="#7C6100"/>
</linearGradient>
</defs>
</svg>
