<svg width="484" height="265" viewBox="0 0 484 265" fill="none" xmlns="http://www.w3.org/2000/svg">
<rect x="-0.0756171" y="-0.692927" width="20.0321" height="10.2419" transform="matrix(0.640054 -0.735832 -0.791288 -0.650023 9.71647 60.1863)" fill="url(#paint0_linear)" stroke="black"/>
<path d="M23.7534 45.9091L12.6203 49.0016L10.4199 61.2378L23.7534 45.9091Z" fill="#8C9FC5" stroke="black"/>
<path d="M15.475 3.22272L5.66771 10.2747L10.0809 15.8363L13.0639 15.7133L16.0469 15.5903L25.508 8.78721L21.5035 3.74058L15.475 3.22272Z" fill="url(#paint1_linear)"/>
<path d="M10.0809 15.8363L19.8881 8.78431M10.0809 15.8363L5.66771 10.2747L15.475 3.22272M10.0809 15.8363L13.0639 15.7133M19.8881 8.78431L15.475 3.22272M19.8881 8.78431L22.6981 8.78576M15.475 3.22272L21.5035 3.74058L25.508 8.7872M25.508 8.7872L16.0469 15.5903L13.0639 15.7133M25.508 8.7872L22.6981 8.78576M22.6981 8.78576L13.0639 15.7133" stroke="black"/>
<path d="M150.94 110.834L169.574 104.982L160.728 114.755L167.516 120.899L150.162 126.428L158.271 117.469L150.94 110.834Z" fill="#FFE146" stroke="black"/>
<path d="M214.175 69.0895L199.189 57.6177L205.933 48.5704L210.491 48.7705L215.049 48.9706L229.505 60.0375L223.387 68.247L214.175 69.0895Z" fill="url(#paint2_linear)"/>
<path d="M205.933 48.5704L220.918 60.0422M205.933 48.5704L199.189 57.6177L214.175 69.0895M205.933 48.5704L210.491 48.7705M220.918 60.0422L214.175 69.0895M220.918 60.0422L225.212 60.0398M214.175 69.0895L223.387 68.247L229.505 60.0375M229.505 60.0375L215.049 48.9706L210.491 48.7705M229.505 60.0375L225.212 60.0398M225.212 60.0398L210.491 48.7705" stroke="black"/>
<path d="M173.743 30.369L192.377 24.517L183.531 34.2899L190.319 40.434L172.965 45.9632L181.073 37.0046L173.743 30.369Z" fill="#FFE146" stroke="black"/>
<rect x="178.418" y="82.1705" width="21.3836" height="10.9379" transform="rotate(22.6315 178.418 82.1705)" fill="url(#paint3_linear)" stroke="black"/>
<path d="M198.808 90.1299L186.736 92.2569L178.345 81.5986L198.808 90.1299Z" fill="#8C9FC5" stroke="black"/>
<path d="M192.832 125.278L179.962 123.027L181.241 115.716L184.111 114.473L186.981 113.231L199.397 115.402L198.236 122.037L192.832 125.278Z" fill="url(#paint4_linear)"/>
<path d="M181.241 115.716L194.111 117.966M181.241 115.716L179.962 123.027L192.832 125.278M181.241 115.716L184.111 114.473M194.111 117.966L192.832 125.278M194.111 117.966L196.754 116.684M192.832 125.278L198.236 122.037L199.397 115.402M199.397 115.402L186.981 113.231L184.111 114.473M199.397 115.402L196.754 116.684M196.754 116.684L184.111 114.473" stroke="black"/>
<path d="M398.044 195.13L407.892 193.623L401.505 191.018L403.066 186.541L393.875 187.908L399.73 190.295L398.044 195.13Z" fill="#FFE146" stroke="black"/>
<rect x="-0.0748049" y="-0.714983" width="19.425" height="9.87007" transform="matrix(0.619075 -0.757706 -0.768685 -0.67226 415.073 214.412)" fill="url(#paint5_linear)" stroke="black"/>
<path d="M428.296 200.188L417.838 203.281L415.771 215.517L428.296 200.188Z" fill="#8C9FC5" stroke="black"/>
<path d="M414.623 165.238L405.411 172.29L409.556 177.852L412.358 177.729L415.16 177.606L424.047 170.803L420.286 165.756L414.623 165.238Z" fill="url(#paint6_linear)"/>
<path d="M409.556 177.852L418.768 170.8M409.556 177.852L405.411 172.29L414.623 165.238M409.556 177.852L412.358 177.729M418.768 170.8L414.623 165.238M418.768 170.8L421.408 170.801M414.623 165.238L420.286 165.756L424.047 170.803M424.047 170.803L415.16 177.606L412.358 177.729M424.047 170.803L421.408 170.801M421.408 170.801L412.358 177.729" stroke="black"/>
<path d="M322.614 255.47L333.256 258.812L328.204 253.231L332.081 249.722L322.169 246.564L326.801 251.68L322.614 255.47Z" fill="#FFE146" stroke="black"/>
<path d="M320.578 217.284L317.588 230.002L324.814 231.701L327.084 229.55L329.355 227.4L332.239 215.13L325.682 213.589L320.578 217.284Z" fill="url(#paint7_linear)"/>
<path d="M324.814 231.701L327.804 218.982M324.814 231.701L317.588 230.002L320.578 217.284M324.814 231.701L327.084 229.55M327.804 218.982L320.578 217.284M327.804 218.982L330.021 217.056M320.578 217.284L325.682 213.589L332.239 215.13M332.239 215.13L329.355 227.4L327.084 229.55M332.239 215.13L330.021 217.056M330.021 217.056L327.084 229.55" stroke="black"/>
<path d="M330.676 196.417L332.78 176.992L324.908 187.554L317.542 182.064L315.505 200.17L322.721 190.488L330.676 196.417Z" fill="#FFE146" stroke="black"/>
<path d="M135.922 190.318L132.932 203.037L140.158 204.735L142.428 202.585L144.699 200.434L147.583 188.164L141.026 186.623L135.922 190.318Z" fill="url(#paint8_linear)"/>
<path d="M140.158 204.735L143.147 192.017M140.158 204.735L132.932 203.037L135.922 190.318M140.158 204.735L142.428 202.585M143.147 192.017L135.922 190.318M143.147 192.017L145.365 190.091M135.922 190.318L141.026 186.623L147.583 188.164M147.583 188.164L144.699 200.434L142.428 202.585M147.583 188.164L145.365 190.091M145.365 190.091L142.428 202.585" stroke="black"/>
<path d="M464.017 182.243L473.865 180.736L467.477 178.131L469.039 173.654L459.848 175.02L465.703 177.408L464.017 182.243Z" fill="#FFE146" stroke="black"/>
<path d="M473.422 152.147L464.21 159.199L468.355 164.76L471.157 164.637L473.959 164.514L482.846 157.711L479.085 152.664L473.422 152.147Z" fill="url(#paint9_linear)"/>
<path d="M468.355 164.76L477.567 157.708M468.355 164.76L464.21 159.199L473.422 152.147M468.355 164.76L471.157 164.637M477.567 157.708L473.422 152.147M477.567 157.708L480.207 157.71M473.422 152.147L479.085 152.664L482.846 157.711M482.846 157.711L473.959 164.514L471.157 164.637M482.846 157.711L480.207 157.71M480.207 157.71L471.157 164.637" stroke="black"/>
<path d="M448.805 194.638L439.593 201.69L443.738 207.251L446.54 207.128L449.342 207.005L458.229 200.202L454.467 195.156L448.805 194.638Z" fill="url(#paint10_linear)"/>
<path d="M443.738 207.251L452.95 200.199M443.738 207.251L439.593 201.69L448.805 194.638M443.738 207.251L446.54 207.128M452.95 200.199L448.805 194.638M452.95 200.199L455.589 200.201M448.805 194.638L454.467 195.156L458.229 200.202M458.229 200.202L449.342 207.005L446.54 207.128M458.229 200.202L455.589 200.201M455.589 200.201L446.54 207.128" stroke="black"/>
<rect x="-0.519461" y="0.479751" width="21.3836" height="10.9379" transform="matrix(-0.999211 -0.0397099 -0.0397099 0.999211 458.703 222.083)" fill="url(#paint11_linear)" stroke="black"/>
<path d="M437.358 221.214L447.411 228.228L459.511 222.095L437.358 221.214Z" fill="#8C9FC5" stroke="black"/>
<path d="M436.748 186.947L437.276 174.17L432.603 181.426L427.564 178.181L427.021 190.093L431.305 183.442L436.748 186.947Z" fill="#FFE146" stroke="black"/>
<defs>
<linearGradient id="paint0_linear" x1="10.5161" y1="0" x2="10.5161" y2="11.2419" gradientUnits="userSpaceOnUse">
<stop stop-color="#EDF3FF"/>
<stop offset="1" stop-color="#8397BF"/>
</linearGradient>
<linearGradient id="paint1_linear" x1="18.816" y1="13.5992" x2="12.759" y2="5.17566" gradientUnits="userSpaceOnUse">
<stop stop-color="#B3A164"/>
<stop offset="1" stop-color="#7C6100"/>
</linearGradient>
<linearGradient id="paint2_linear" x1="219.28" y1="52.2097" x2="209.246" y2="65.3165" gradientUnits="userSpaceOnUse">
<stop stop-color="#B3A164"/>
<stop offset="1" stop-color="#7C6100"/>
</linearGradient>
<linearGradient id="paint3_linear" x1="189.34" y1="81.5166" x2="189.34" y2="93.4545" gradientUnits="userSpaceOnUse">
<stop stop-color="#EDF3FF"/>
<stop offset="1" stop-color="#8397BF"/>
</linearGradient>
<linearGradient id="paint4_linear" x1="190.615" y1="113.866" x2="188.744" y2="124.563" gradientUnits="userSpaceOnUse">
<stop stop-color="#B3A164"/>
<stop offset="1" stop-color="#7C6100"/>
</linearGradient>
<linearGradient id="paint5_linear" x1="10.2125" y1="0" x2="10.2125" y2="10.8701" gradientUnits="userSpaceOnUse">
<stop stop-color="#EDF3FF"/>
<stop offset="1" stop-color="#8397BF"/>
</linearGradient>
<linearGradient id="paint6_linear" x1="417.761" y1="175.615" x2="411.593" y2="167.558" gradientUnits="userSpaceOnUse">
<stop stop-color="#B3A164"/>
<stop offset="1" stop-color="#7C6100"/>
</linearGradient>
<linearGradient id="paint7_linear" x1="330.199" y1="223.809" x2="319.628" y2="221.324" gradientUnits="userSpaceOnUse">
<stop stop-color="#B3A164"/>
<stop offset="1" stop-color="#7C6100"/>
</linearGradient>
<linearGradient id="paint8_linear" x1="145.543" y1="196.843" x2="134.972" y2="194.358" gradientUnits="userSpaceOnUse">
<stop stop-color="#B3A164"/>
<stop offset="1" stop-color="#7C6100"/>
</linearGradient>
<linearGradient id="paint9_linear" x1="476.56" y1="162.523" x2="470.392" y2="154.466" gradientUnits="userSpaceOnUse">
<stop stop-color="#B3A164"/>
<stop offset="1" stop-color="#7C6100"/>
</linearGradient>
<linearGradient id="paint10_linear" x1="451.943" y1="205.014" x2="445.775" y2="196.957" gradientUnits="userSpaceOnUse">
<stop stop-color="#B3A164"/>
<stop offset="1" stop-color="#7C6100"/>
</linearGradient>
<linearGradient id="paint11_linear" x1="11.1918" y1="0" x2="11.1918" y2="11.9379" gradientUnits="userSpaceOnUse">
<stop stop-color="#EDF3FF"/>
<stop offset="1" stop-color="#8397BF"/>
</linearGradient>
</defs>
</svg>
