<svg width="162" height="109" viewBox="0 0 162 109" fill="none" xmlns="http://www.w3.org/2000/svg">
<rect x="-0.0748049" y="-0.714983" width="19.425" height="9.87007" transform="matrix(0.619075 -0.757706 -0.768685 -0.67226 41.2344 33.1842)" fill="url(#paint0_linear)" stroke="black"/>
<path d="M54.4568 18.9603L43.9995 22.0529L41.9326 34.2891L54.4568 18.9603Z" fill="#8C9FC5" stroke="black"/>
<path d="M46.8302 59.5259L37.6182 66.578L41.7635 72.1395L44.5654 72.0165L47.3674 71.8935L56.2542 65.0904L52.4928 60.0438L46.8302 59.5259Z" fill="url(#paint1_linear)"/>
<path d="M41.7635 72.1395L50.9755 65.0875M41.7635 72.1395L37.6182 66.578L46.8302 59.5259M41.7635 72.1395L44.5654 72.0165M50.9755 65.0875L46.8302 59.5259M50.9755 65.0875L53.6148 65.089M46.8302 59.5259L52.4928 60.0438L56.2542 65.0904M56.2542 65.0904L47.3674 71.8935L44.5654 72.0165M56.2542 65.0904L53.6148 65.089M53.6148 65.089L44.5654 72.0165" stroke="black"/>
<path d="M133.677 64.3097L141.592 72.7917L146.724 68.1249L146.329 65.3482L145.934 62.5715L138.298 54.3889L133.641 58.6235L133.677 64.3097Z" fill="url(#paint2_linear)"/>
<path d="M146.724 68.1249L138.809 59.6429M146.724 68.1249L141.592 72.7917L133.677 64.3097M146.724 68.1249L146.329 65.3482M138.809 59.6429L133.677 64.3097M138.809 59.6429L138.553 57.0159M133.677 64.3097L133.641 58.6235L138.298 54.3889M138.298 54.3889L145.934 62.5715L146.329 65.3482M138.298 54.3889L138.553 57.0159M138.553 57.0159L146.329 65.3482" stroke="black"/>
<rect x="-0.495478" y="-0.504481" width="21.3836" height="10.9379" transform="matrix(0.0090029 -0.999959 -0.999959 -0.0090029 25.1979 92.1342)" fill="url(#paint3_linear)" stroke="black"/>
<path d="M26.3959 70.7558L19.6947 81.0195L26.1963 92.9253L26.3959 70.7558Z" fill="#8C9FC5" stroke="black"/>
<path d="M33.4397 53.7158L40.6963 45.244L33.5781 47.6954L31.8755 42.7514L25.0758 50.6234L31.6008 48.3763L33.4397 53.7158Z" fill="#FFE146" stroke="black"/>
<rect x="-0.495478" y="-0.504481" width="21.3836" height="10.9379" transform="matrix(0.0090029 -0.999959 -0.999959 -0.0090029 22.275 55.7597)" fill="url(#paint4_linear)" stroke="black"/>
<path d="M23.4721 34.3803L16.7709 44.644L23.2725 56.5498L23.4721 34.3803Z" fill="#8C9FC5" stroke="black"/>
<path d="M24.5549 28.4883L31.8116 20.0164L24.6934 22.4678L22.9907 17.5238L16.1911 25.3958L22.7161 23.1488L24.5549 28.4883Z" fill="#FFE146" stroke="black"/>
<rect x="-0.0748049" y="-0.714983" width="19.425" height="9.87007" transform="matrix(0.619075 -0.757706 -0.768685 -0.67226 146.359 45.6115)" fill="url(#paint5_linear)" stroke="black"/>
<path d="M159.582 31.3876L149.124 34.4802L147.058 46.7163L159.582 31.3876Z" fill="#8C9FC5" stroke="black"/>
<rect x="-0.495478" y="-0.504481" width="21.3836" height="10.9379" transform="matrix(0.0090029 -0.999959 -0.999959 -0.0090029 71.6168 101.424)" fill="url(#paint6_linear)" stroke="black"/>
<path d="M72.8139 80.0448L66.1127 90.3086L72.6143 102.214L72.8139 80.0448Z" fill="#8C9FC5" stroke="black"/>
<path d="M90.5276 15.6001L97.7842 7.12826L90.666 9.57963L88.9634 4.63564L82.1637 12.5077L88.6887 10.2606L90.5276 15.6001Z" fill="#FFE146" stroke="black"/>
<defs>
<linearGradient id="paint0_linear" x1="10.2125" y1="0" x2="10.2125" y2="10.8701" gradientUnits="userSpaceOnUse">
<stop stop-color="#EDF3FF"/>
<stop offset="1" stop-color="#8397BF"/>
</linearGradient>
<linearGradient id="paint1_linear" x1="49.9684" y1="69.9024" x2="43.8005" y2="61.8453" gradientUnits="userSpaceOnUse">
<stop stop-color="#B3A164"/>
<stop offset="1" stop-color="#7C6100"/>
</linearGradient>
<linearGradient id="paint2_linear" x1="143.699" y1="60.1766" x2="136.28" y2="67.0993" gradientUnits="userSpaceOnUse">
<stop stop-color="#B3A164"/>
<stop offset="1" stop-color="#7C6100"/>
</linearGradient>
<linearGradient id="paint3_linear" x1="11.1918" y1="0" x2="11.1918" y2="11.9379" gradientUnits="userSpaceOnUse">
<stop stop-color="#EDF3FF"/>
<stop offset="1" stop-color="#8397BF"/>
</linearGradient>
<linearGradient id="paint4_linear" x1="11.1918" y1="0" x2="11.1918" y2="11.9379" gradientUnits="userSpaceOnUse">
<stop stop-color="#EDF3FF"/>
<stop offset="1" stop-color="#8397BF"/>
</linearGradient>
<linearGradient id="paint5_linear" x1="10.2125" y1="0" x2="10.2125" y2="10.8701" gradientUnits="userSpaceOnUse">
<stop stop-color="#EDF3FF"/>
<stop offset="1" stop-color="#8397BF"/>
</linearGradient>
<linearGradient id="paint6_linear" x1="11.1918" y1="0" x2="11.1918" y2="11.9379" gradientUnits="userSpaceOnUse">
<stop stop-color="#EDF3FF"/>
<stop offset="1" stop-color="#8397BF"/>
</linearGradient>
</defs>
</svg>
