<svg width="490" height="216" viewBox="0 0 490 216" fill="none" xmlns="http://www.w3.org/2000/svg">
<rect x="85.7713" y="62.6611" width="64.5824" height="33.0439" transform="rotate(171.809 85.7713 62.6611)" fill="url(#paint0_linear)" stroke="black" stroke-width="3"/>
<path d="M20.5762 73.5603L48.5854 49.3701L86.832 64.0234L20.5762 73.5603Z" fill="#8C9FC5" stroke="black" stroke-width="3"/>
<path d="M60.2667 103.463L78.0387 75.5266L94.0048 85.6091L94.1462 93.5303L94.2877 101.452L77.1429 128.402L62.6552 119.253L60.2667 103.463Z" fill="url(#paint1_linear)"/>
<path d="M94.0048 85.6091L76.2328 113.546M94.0048 85.6091L78.0387 75.5266L60.2667 103.463M94.0048 85.6091L94.1462 93.5303M76.2328 113.546L60.2667 103.463M76.2328 113.546L76.6878 120.974M60.2667 103.463L62.6552 119.253L77.1429 128.402M77.1429 128.402L94.2877 101.452L94.1462 93.5303M77.1429 128.402L76.6878 120.974M76.6878 120.974L94.1462 93.5303" stroke="black" stroke-width="3"/>
<rect x="49.1239" y="208.945" width="46.071" height="23.1712" transform="rotate(-134.028 49.1239 208.945)" fill="url(#paint2_linear)" stroke="black" stroke-width="3"/>
<path d="M14.983 175.785L41.1293 181.989L48.7632 210.731L14.983 175.785Z" fill="#8C9FC5" stroke="black" stroke-width="3"/>
<rect x="-1.86575" y="0.998117" width="78.6257" height="40.5491" transform="matrix(-0.287527 0.957773 -0.956308 -0.292361 353.066 59.7229)" fill="url(#paint3_linear)" stroke="black" stroke-width="3"/>
<path d="M331.043 134.825L318.813 91.7196L354.289 57.3906L331.043 134.825Z" fill="#8C9FC5" stroke="black" stroke-width="3"/>
<path d="M357.313 158.181L386.919 163.157L389.813 146.282L384.561 141.381L379.31 136.48L350.75 131.679L348.124 146.991L357.313 158.181Z" fill="url(#paint4_linear)"/>
<path d="M389.813 146.282L360.207 141.306M389.813 146.282L386.919 163.157L357.313 158.181M389.813 146.282L384.561 141.381M360.207 141.306L357.313 158.181M360.207 141.306L355.479 136.493M357.313 158.181L348.124 146.991L350.75 131.679M350.75 131.679L379.31 136.48L384.561 141.381M350.75 131.679L355.479 136.493M355.479 136.493L384.561 141.381" stroke="black" stroke-width="3"/>
<path d="M411.117 80.9921L388.694 55.8623L393.158 78.1501L377.678 81.2511L398.491 104.772L394.399 84.3412L411.117 80.9921Z" fill="#FFE146" stroke="black" stroke-width="3"/>
<path d="M455.798 109.856L475.938 136.85L454.993 128.021L448.86 142.568L429.974 117.474L449.174 125.568L455.798 109.856Z" fill="#FFE146" stroke="black" stroke-width="3"/>
<rect x="463.006" y="74.6929" width="64.5823" height="33.0439" transform="rotate(-134.028 463.006 74.6929)" fill="url(#paint5_linear)" stroke="black" stroke-width="3"/>
<path d="M415.997 28.2228L452.007 36.7664L462.521 76.3516L415.997 28.2228Z" fill="#8C9FC5" stroke="black" stroke-width="3"/>
<path d="M335.63 179.49L313.207 154.36L317.671 176.648L302.191 179.749L323.004 203.27L318.912 182.839L335.63 179.49Z" fill="#FFE146" stroke="black" stroke-width="3"/>
<defs>
<linearGradient id="paint0_linear" x1="121.261" y1="63.9321" x2="121.261" y2="99.9761" gradientUnits="userSpaceOnUse">
<stop stop-color="#EDF3FF"/>
<stop offset="1" stop-color="#8397BF"/>
</linearGradient>
<linearGradient id="paint1_linear" x1="89.2697" y1="109.34" x2="65.9612" y2="94.5119" gradientUnits="userSpaceOnUse">
<stop stop-color="#B3A164"/>
<stop offset="1" stop-color="#7C6100"/>
</linearGradient>
<linearGradient id="paint2_linear" x1="73.6234" y1="211.066" x2="73.6234" y2="237.238" gradientUnits="userSpaceOnUse">
<stop stop-color="#EDF3FF"/>
<stop offset="1" stop-color="#8397BF"/>
</linearGradient>
<linearGradient id="paint3_linear" x1="40.8128" y1="0" x2="40.8128" y2="43.5491" gradientUnits="userSpaceOnUse">
<stop stop-color="#EDF3FF"/>
<stop offset="1" stop-color="#8397BF"/>
</linearGradient>
<linearGradient id="paint4_linear" x1="370.951" y1="135.075" x2="366.799" y2="159.775" gradientUnits="userSpaceOnUse">
<stop stop-color="#B3A164"/>
<stop offset="1" stop-color="#7C6100"/>
</linearGradient>
<linearGradient id="paint5_linear" x1="496.761" y1="76.814" x2="496.761" y2="112.858" gradientUnits="userSpaceOnUse">
<stop stop-color="#EDF3FF"/>
<stop offset="1" stop-color="#8397BF"/>
</linearGradient>
</defs>
</svg>
