<svg width="322" height="428" viewBox="0 0 322 428" fill="none" xmlns="http://www.w3.org/2000/svg">
<path d="M136.052 161.565L1.99967 111.417L30.4898 35.2587L63.8951 27.6588L97.3004 20.0589L226.621 68.4363L200.769 137.543L136.052 161.565Z" fill="url(#paint0_linear)"/>
<path d="M30.4898 35.2587L164.542 85.406M30.4898 35.2587L1.99967 111.417L136.052 161.565M30.4898 35.2587L63.8951 27.6588M164.542 85.406L136.052 161.565M164.542 85.406L195.581 76.9212M136.052 161.565L200.769 137.543L226.621 68.4363M226.621 68.4363L97.3004 20.0589L63.8951 27.6588M226.621 68.4363L195.581 76.9212M195.581 76.9212L63.8951 27.6588" stroke="black" stroke-width="3"/>
<path d="M111.249 248.065L265.495 200.031L192.132 280.69L248.155 331.645L104.505 377.033L171.754 303.096L111.249 248.065Z" fill="#FFE146" stroke="black" stroke-width="3"/>
<defs>
<linearGradient id="paint0_linear" x1="135.15" y1="34.2182" x2="93.4703" y2="145.636" gradientUnits="userSpaceOnUse">
<stop stop-color="#B3A164"/>
<stop offset="1" stop-color="#7C6100"/>
</linearGradient>
</defs>
</svg>
