<svg width="386" height="440" viewBox="0 0 386 440" fill="none" xmlns="http://www.w3.org/2000/svg">
<path d="M318.519 426.578L254.198 437.389L247.91 400.728L259.319 390.079L270.728 379.43L332.779 369L338.484 402.267L318.519 426.578Z" fill="url(#paint0_linear)"/>
<path d="M247.91 400.728L312.231 389.916M247.91 400.728L254.198 437.389L318.519 426.578M247.91 400.728L259.319 390.079M312.231 389.916L318.519 426.578M312.231 389.916L322.505 379.458M318.519 426.578L338.484 402.267L332.779 369M332.779 369L270.728 379.43L259.319 390.079M332.779 369L322.505 379.458M322.505 379.458L259.319 390.079" stroke="black" stroke-width="3"/>
<path d="M290.857 280.676L255.883 199.258L303.935 234.788L328.404 201.437L361.331 277.226L317.283 244.657L290.857 280.676Z" fill="#FFE146" stroke="black" stroke-width="3"/>
<path d="M249.018 68.6557L293.257 142.06L251.554 167.194L233.052 158.331L214.551 149.468L171.874 78.6537L209.716 55.8476L249.018 68.6557Z" fill="url(#paint1_linear)"/>
<path d="M251.554 167.194L207.315 93.789M251.554 167.194L293.257 142.06L249.018 68.6557M251.554 167.194L233.052 158.331M207.315 93.789L249.018 68.6557M207.315 93.789L189.594 86.2214M249.018 68.6557L209.716 55.8476L171.874 78.6537M171.874 78.6537L214.551 149.468L233.052 158.331M171.874 78.6537L189.594 86.2214M189.594 86.2214L233.052 158.331" stroke="black" stroke-width="3"/>
<rect x="1.86575" y="-0.998117" width="174.343" height="91.6162" transform="matrix(0.287527 -0.957773 0.956308 0.292361 47.1886 362.253)" fill="url(#paint2_linear)" stroke="black" stroke-width="3"/>
<path d="M95.8958 191.319L122.467 284.971L45.3906 359.555L95.8958 191.319Z" fill="#8C9FC5" stroke="black" stroke-width="3"/>
<path d="M12.8919 67.8743L61.6099 13.2765L51.9096 61.6998L85.5423 68.4371L40.3232 119.539L49.2151 75.1507L12.8919 67.8743Z" fill="#FFE146" stroke="black" stroke-width="3"/>
<defs>
<linearGradient id="paint0_linear" x1="288.889" y1="376.377" x2="297.909" y2="430.042" gradientUnits="userSpaceOnUse">
<stop stop-color="#B3A164"/>
<stop offset="1" stop-color="#7C6100"/>
</linearGradient>
<linearGradient id="paint1_linear" x1="202.06" y1="128.742" x2="263.071" y2="91.9725" gradientUnits="userSpaceOnUse">
<stop stop-color="#B3A164"/>
<stop offset="1" stop-color="#7C6100"/>
</linearGradient>
<linearGradient id="paint2_linear" x1="88.6714" y1="0" x2="88.6714" y2="94.6162" gradientUnits="userSpaceOnUse">
<stop stop-color="#EDF3FF"/>
<stop offset="1" stop-color="#8397BF"/>
</linearGradient>
</defs>
</svg>
