<svg width="247" height="529" viewBox="0 0 247 529" fill="none" xmlns="http://www.w3.org/2000/svg">
<rect x="34.9552" y="83.4901" width="143.832" height="75.3102" transform="rotate(-8.19085 34.9552 83.4901)" fill="url(#paint0_linear)" stroke="black" stroke-width="3"/>
<path d="M178.591 61.3004L117.737 113.857L34.6411 82.0204L178.591 61.3004Z" fill="#8C9FC5" stroke="black" stroke-width="3"/>
<rect x="35.3908" y="390.49" width="143.832" height="75.3102" transform="rotate(-8.19085 35.3908 390.49)" fill="url(#paint1_linear)" stroke="black" stroke-width="3"/>
<path d="M179.026 368.3L118.173 420.857L35.0767 389.02L179.026 368.3Z" fill="#8C9FC5" stroke="black" stroke-width="3"/>
<path d="M40.2723 312.285L11.9523 271.359L35.2037 255.269L46.25 259.73L57.2963 264.191L84.6167 303.673L63.5182 318.273L40.2723 312.285Z" fill="url(#paint2_linear)"/>
<path d="M35.2037 255.269L63.5237 296.196M35.2037 255.269L11.9523 271.359L40.2723 312.285M35.2037 255.269L46.25 259.73M63.5237 296.196L40.2723 312.285M63.5237 296.196L74.0702 299.934M40.2723 312.285L63.5182 318.273L84.6167 303.673M84.6167 303.673L57.2963 264.191L46.25 259.73M84.6167 303.673L74.0702 299.934M74.0702 299.934L46.25 259.73" stroke="black" stroke-width="3"/>
<path d="M160.429 248.834L209.147 194.236L199.447 242.66L233.079 249.397L187.86 300.499L196.752 256.111L160.429 248.834Z" fill="#FFE146" stroke="black" stroke-width="3"/>
<defs>
<linearGradient id="paint0_linear" x1="106.673" y1="82.2191" x2="106.673" y2="160.529" gradientUnits="userSpaceOnUse">
<stop stop-color="#EDF3FF"/>
<stop offset="1" stop-color="#8397BF"/>
</linearGradient>
<linearGradient id="paint1_linear" x1="107.108" y1="389.219" x2="107.108" y2="467.529" gradientUnits="userSpaceOnUse">
<stop stop-color="#EDF3FF"/>
<stop offset="1" stop-color="#8397BF"/>
</linearGradient>
<linearGradient id="paint2_linear" x1="65.2925" y1="275.747" x2="31.2765" y2="299.285" gradientUnits="userSpaceOnUse">
<stop stop-color="#B3A164"/>
<stop offset="1" stop-color="#7C6100"/>
</linearGradient>
</defs>
</svg>
