<svg width="577" height="462" viewBox="0 0 577 462" fill="none" xmlns="http://www.w3.org/2000/svg">
<path d="M562.36 142.183L523.747 202.88L489.059 180.974L488.752 163.764L488.444 146.554L525.694 88.0001L557.17 107.877L562.36 142.183Z" fill="url(#paint0_linear)"/>
<path d="M489.059 180.974L527.671 120.278M489.059 180.974L523.747 202.88L562.36 142.183M489.059 180.974L488.752 163.764M527.671 120.278L562.36 142.183M527.671 120.278L526.682 104.139M562.36 142.183L557.17 107.877L525.694 88.0001M525.694 88.0001L488.444 146.554L488.752 163.764M525.694 88.0001L526.682 104.139M526.682 104.139L488.752 163.764" stroke="black" stroke-width="3"/>
<path d="M363.892 86.8743L412.61 32.2765L402.91 80.6998L436.542 87.4371L391.323 138.539L400.215 94.1507L363.892 86.8743Z" fill="#FFE146" stroke="black" stroke-width="3"/>
<rect x="118.543" y="199.428" width="103.613" height="53.8605" transform="rotate(45.9718 118.543 199.428)" fill="url(#paint1_linear)" stroke="black" stroke-width="3"/>
<path d="M192.676 273.962L135.87 260.484L119.284 198.037L192.676 273.962Z" fill="#8C9FC5" stroke="black" stroke-width="3"/>
<rect x="424.229" y="198.921" width="143.832" height="75.3102" transform="rotate(45.9718 424.229 198.921)" fill="url(#paint2_linear)" stroke="black" stroke-width="3"/>
<path d="M526.314 302.372L448.079 283.81L425.236 197.806L526.314 302.372Z" fill="#8C9FC5" stroke="black" stroke-width="3"/>
<path d="M163.705 428.917L83.6412 459.495L66.2688 414.008L78.2603 397.363L90.2518 380.718L167.49 351.219L183.254 392.494L163.705 428.917Z" fill="url(#paint3_linear)"/>
<path d="M66.2688 414.008L146.333 383.43M66.2688 414.008L83.6412 459.495L163.705 428.917M66.2688 414.008L78.2603 397.363M146.333 383.43L163.705 428.917M146.333 383.43L156.912 367.324M163.705 428.917L183.254 392.494L167.49 351.219M167.49 351.219L90.2518 380.718L78.2603 397.363M167.49 351.219L156.912 367.324M156.912 367.324L78.2603 397.363" stroke="black" stroke-width="3"/>
<path d="M12.8919 67.8743L61.6099 13.2765L51.9096 61.6998L85.5423 68.4371L40.3232 119.539L49.2151 75.1507L12.8919 67.8743Z" fill="#FFE146" stroke="black" stroke-width="3"/>
<defs>
<linearGradient id="paint0_linear" x1="499.347" y1="129.416" x2="549.987" y2="161.632" gradientUnits="userSpaceOnUse">
<stop stop-color="#B3A164"/>
<stop offset="1" stop-color="#7C6100"/>
</linearGradient>
<linearGradient id="paint1_linear" x1="171.885" y1="197.307" x2="171.885" y2="254.167" gradientUnits="userSpaceOnUse">
<stop stop-color="#EDF3FF"/>
<stop offset="1" stop-color="#8397BF"/>
</linearGradient>
<linearGradient id="paint2_linear" x1="497.681" y1="196.8" x2="497.681" y2="275.11" gradientUnits="userSpaceOnUse">
<stop stop-color="#EDF3FF"/>
<stop offset="1" stop-color="#8397BF"/>
</linearGradient>
<linearGradient id="paint3_linear" x1="112.858" y1="372.084" x2="138.273" y2="438.63" gradientUnits="userSpaceOnUse">
<stop stop-color="#B3A164"/>
<stop offset="1" stop-color="#7C6100"/>
</linearGradient>
</defs>
</svg>
