<svg width="691" height="347" viewBox="0 0 691 347" fill="none" xmlns="http://www.w3.org/2000/svg">
<g filter="url(#filter0_f)">
<ellipse cx="353.625" cy="315.663" rx="332.379" ry="26.9953" fill="#C4C4C4" fill-opacity="0.18"/>
</g>
<path d="M520.579 75.6588L508 94.9826V224.368H538.548C538.548 224.368 568.433 221.494 583.472 230.249C595.104 237.021 599.842 243.977 605.934 255.454C610.178 263.449 613.122 277.298 613.122 277.298L618.513 280.659H664.335V277.298H668.827V280.659H680.508L683.203 277.298L685 258.815L674.218 255.454L682.305 252.933C682.305 252.933 684.416 177.067 682.305 173.118C680.193 169.169 675.117 163.036 674.218 159.675C673.32 156.315 657.147 87.4211 657.147 87.4211C657.147 87.4211 652.655 79.0196 640.076 77.3391C627.497 75.6587 520.579 75.6588 520.579 75.6588Z" fill="url(#paint0_linear)" stroke="black"/>
<path d="M538.375 86.2038C536.688 90.515 538.375 225.398 538.375 225.398C538.375 225.398 564.944 222.58 580.555 227.929C587.107 230.174 591.126 231.256 596.583 235.521C603.072 240.594 605.295 245.162 609.237 252.393C613.427 260.079 616.83 273.483 616.83 273.483L667.446 270.953C667.446 270.953 673.732 223.176 672.507 192.498C671.056 156.131 657.323 100.545 657.323 100.545C657.323 100.545 654.792 88.7346 651.417 86.2038C648.043 83.673 641.294 81.1424 630.327 79.455C619.361 77.7677 548.498 78.6114 545.124 79.455C541.749 80.2986 540.062 81.8926 538.375 86.2038Z" fill="#DCDADA" stroke="black"/>
<path d="M635.388 87.0477C635.388 87.0477 555.247 84.5168 549.341 88.7349C543.436 92.9529 549.341 145.256 552.716 148.631C556.09 152.005 569.873 150.239 580.555 152.849C588.955 154.901 593.47 156.775 601.645 159.597C622.869 166.924 649.73 179.844 654.791 181.531C659.853 183.218 661.54 181.531 661.54 181.531C661.54 181.531 661.54 141.038 658.166 128.384C654.791 115.73 651.417 100.545 647.199 94.6401C642.981 88.7349 635.388 87.0477 635.388 87.0477Z" fill="url(#paint1_linear)" stroke="black"/>
<path d="M546.811 184.906C546.811 184.906 545.967 184.906 545.967 186.593C545.967 188.28 545.123 210.214 545.123 210.214C545.123 210.214 545.123 211.901 546.811 211.901H559.465C561.152 211.901 561.152 211.057 561.152 211.057V186.593C561.152 184.906 559.465 184.906 559.465 184.906H546.811Z" fill="#141414" stroke="black"/>
<path d="M556.09 208.526H551.028V205.996L552.716 204.308V187.436L551.872 184.906H556.934L556.09 187.436V208.526Z" fill="#232323" stroke="black"/>
<path d="M480.166 1L1 1.00002V233.834H480.166V1Z" fill="url(#paint2_linear)" stroke="black"/>
<path d="M489.445 184.062L480.166 190.5V226.991H20.5V237.991L54.9905 232.929L49.9289 237.991L10.2796 246.427V254.019L5.21802 254.863V267.517L22.9337 264.142L31.3697 254.863V246.427L49.9289 243.052V258.237L77.7678 245.645V241.427H87.891V247.332L90.4218 256.611L80.2986 262.517L85.3602 267.578L96.327 262.517L123.322 265.891L130.915 270.953L135.133 285.294L142.725 282.763L225.398 288.668L238.896 279.389L478.479 285.294L487.758 286.981L499.569 285.294L518.972 276.858H617.673C617.673 276.858 613.452 261.272 608.393 252.393C603.63 244.033 601.196 238.356 593.209 232.991C585.769 227.993 571.275 226.242 571.275 226.242L518.972 224.555V195.872L489.445 184.062Z" fill="url(#paint3_linear)" stroke="black"/>
<path d="M391.588 253.237V231.303H398.337V253.237H477.635V288.668L465.825 291.199L240.583 284.45L237.208 271.796H245.645V259.986H237.208V248.175H243.957V228.772H250.706V248.175L391.588 253.237Z" fill="url(#paint4_linear)" stroke="black"/>
<path d="M391.588 264.204L250.706 259.142V271.796L391.588 278.545V264.204Z" fill="url(#paint5_linear)"/>
<path d="M398.336 278.545V264.204H464.981V278.545H398.336Z" fill="url(#paint6_linear)"/>
<path d="M391.588 264.204L250.706 259.142V271.796L391.588 278.545V264.204Z" stroke="black"/>
<path d="M398.336 278.545V264.204H464.981V278.545H398.336Z" stroke="black"/>
<path d="M510.536 285.294V303.01L497.882 285.294L523.19 243.957L528.251 223.711H538.374C538.374 223.711 567.551 220.789 583.929 227.929L583.938 227.933C591.392 231.182 595.893 233.145 601.645 238.896C607.398 244.649 609.429 249.123 612.611 256.611C615.674 263.818 617.673 276.014 617.673 276.014H612.611C612.611 276.014 611.231 270.311 610.081 266.735C607.551 258.869 603.332 249.019 601.645 247.332C599.957 245.645 593.209 236.365 588.147 234.678C583.085 232.991 574.317 232.339 565.37 232.147C558.445 231.999 554.38 231.335 547.654 232.991C543.91 233.912 545.123 232.991 538.374 236.365C531.626 239.739 519.815 276.014 519.815 276.014L513.91 285.294H510.536Z" fill="url(#paint7_linear)" stroke="black"/>
<path d="M465.825 17.8721L11.9668 17.8721V224.555H465.825V17.8721Z" fill="url(#paint8_linear)" stroke="black"/>
<path d="M134.289 285.294L131.758 290.355L128.384 288.668C128.384 288.668 129.221 261.201 135.976 245.645C139.69 237.092 147.5 227.085 147.5 227.085L211.057 227.085L217.806 233.834C217.806 233.834 230.005 250.39 234.678 262.517C239.394 274.755 241.427 295.417 241.427 295.417C241.427 295.417 234.102 295.346 230.46 292.886C228.529 291.583 226.242 288.668 226.242 288.668C226.242 288.668 224.789 273.449 220.337 265.047C214.554 254.136 208.719 248.4 197.559 243.114C187.327 238.267 175.626 237.209 168.877 238.896C162.128 240.583 149.138 245.674 141.881 255.768C134.932 265.435 134.289 285.294 134.289 285.294Z" fill="url(#paint9_linear)" stroke="black"/>
<path d="M97.1704 177.313H53.3032V199.246H97.1704V177.313Z" fill="#898080" stroke="black"/>
<path d="M221.524 283.607C221.524 305.2 202.893 322.756 179.844 322.756C156.795 322.756 138.164 305.2 138.164 283.607C138.164 262.014 156.795 244.457 179.844 244.457C202.893 244.457 221.524 262.014 221.524 283.607Z" fill="url(#paint10_linear)" stroke="black"/>
<path d="M199.992 284.905C199.992 295.811 191.151 304.652 180.246 304.652C169.34 304.652 160.5 295.811 160.5 284.905C160.5 274 169.34 265.159 180.246 265.159C191.151 265.159 199.992 274 199.992 284.905Z" fill="url(#paint11_linear)" stroke="black"/>
<path d="M607.894 281.919C607.894 303.512 589.262 321.069 566.213 321.069C543.164 321.069 524.533 303.512 524.533 281.919C524.533 260.327 543.164 242.77 566.213 242.77C589.262 242.77 607.894 260.327 607.894 281.919Z" fill="url(#paint12_linear)" stroke="black"/>
<path d="M586.993 284.905C586.993 295.811 578.152 304.652 567.247 304.652C556.341 304.652 547.5 295.811 547.5 284.905C547.5 273.999 556.341 265.159 567.247 265.159C578.152 265.159 586.993 273.999 586.993 284.905Z" fill="url(#paint13_linear)" stroke="black"/>
<defs>
<filter id="filter0_f" x="17.2463" y="284.668" width="672.758" height="61.9905" filterUnits="userSpaceOnUse" color-interpolation-filters="sRGB">
<feFlood flood-opacity="0" result="BackgroundImageFix"/>
<feBlend mode="normal" in="SourceGraphic" in2="BackgroundImageFix" result="shape"/>
<feGaussianBlur stdDeviation="2" result="effect1_foregroundBlur"/>
</filter>
<linearGradient id="paint0_linear" x1="596.5" y1="75.6588" x2="596.5" y2="280.659" gradientUnits="userSpaceOnUse">
<stop stop-color="#E6E6E6" stop-opacity="0.99"/>
<stop offset="1" stop-color="#ADADAD"/>
</linearGradient>
<linearGradient id="paint1_linear" x1="604.184" y1="86.2947" x2="604.184" y2="182.281" gradientUnits="userSpaceOnUse">
<stop stop-color="#5971AF"/>
<stop offset="1" stop-color="#B2E0FB"/>
</linearGradient>
<linearGradient id="paint2_linear" x1="242.692" y1="-13.3412" x2="242.692" y2="233.834" gradientUnits="userSpaceOnUse">
<stop stop-color="#BABABA"/>
<stop offset="1" stop-color="#777777"/>
</linearGradient>
<linearGradient id="paint3_linear" x1="311.445" y1="184.062" x2="311.445" y2="288.668" gradientUnits="userSpaceOnUse">
<stop stop-color="#3C3C3C"/>
<stop offset="0.963542" stop-color="#737373"/>
</linearGradient>
<linearGradient id="paint4_linear" x1="357.422" y1="228.772" x2="357.422" y2="291.199" gradientUnits="userSpaceOnUse">
<stop stop-color="#696969"/>
<stop offset="1" stop-color="#A4A3A3"/>
<stop offset="1" stop-color="#AEAEAE"/>
</linearGradient>
<linearGradient id="paint5_linear" x1="357.843" y1="259.142" x2="357.843" y2="278.545" gradientUnits="userSpaceOnUse">
<stop stop-color="#656565"/>
<stop offset="1" stop-color="#707070"/>
</linearGradient>
<linearGradient id="paint6_linear" x1="357.843" y1="259.142" x2="357.843" y2="278.545" gradientUnits="userSpaceOnUse">
<stop stop-color="#656565"/>
<stop offset="1" stop-color="#707070"/>
</linearGradient>
<linearGradient id="paint7_linear" x1="557.777" y1="223.119" x2="557.777" y2="303.01" gradientUnits="userSpaceOnUse">
<stop stop-color="#2C2C2C"/>
<stop offset="0.973958"/>
</linearGradient>
<linearGradient id="paint8_linear" x1="238.896" y1="5.21804" x2="238.896" y2="224.555" gradientUnits="userSpaceOnUse">
<stop stop-color="#D5D4D4"/>
<stop offset="1" stop-color="#A9A9A9"/>
</linearGradient>
<linearGradient id="paint9_linear" x1="184.905" y1="225.398" x2="184.905" y2="295.417" gradientUnits="userSpaceOnUse">
<stop stop-color="#373737"/>
<stop offset="0.984375"/>
</linearGradient>
<linearGradient id="paint10_linear" x1="179.844" y1="243.957" x2="179.844" y2="323.256" gradientUnits="userSpaceOnUse">
<stop stop-color="#2A2A2A"/>
<stop offset="0.979167" stop-color="#282828"/>
</linearGradient>
<linearGradient id="paint11_linear" x1="180.246" y1="299.246" x2="186.995" y2="264.659" gradientUnits="userSpaceOnUse">
<stop stop-color="#C4C4C4"/>
<stop offset="1" stop-color="#4D4D4D"/>
</linearGradient>
<linearGradient id="paint12_linear" x1="566.213" y1="242.27" x2="566.213" y2="321.569" gradientUnits="userSpaceOnUse">
<stop stop-color="#2A2A2A"/>
<stop offset="0.979167" stop-color="#282828"/>
</linearGradient>
<linearGradient id="paint13_linear" x1="567.247" y1="299.246" x2="573.995" y2="264.659" gradientUnits="userSpaceOnUse">
<stop stop-color="#C4C4C4"/>
<stop offset="1" stop-color="#4D4D4D"/>
</linearGradient>
</defs>
</svg>
