<svg width="1857" height="482" viewBox="0 0 1857 482" fill="none" xmlns="http://www.w3.org/2000/svg">
<path d="M1788.94 174.288C1839.32 210.68 1835.2 213.096 1855.74 247.035L1849.72 477.486L16.4622 480.774V248.288C75.052 207.082 108.515 106.27 164.853 83.4629C235.276 54.9547 276.916 47.8752 316.529 15.2943C356.142 -17.2865 383.968 15.2943 480.8 15.2943C577.632 15.2943 635.469 138.433 697.089 97.7071C758.709 56.981 786.472 10.1872 874.501 38.6955C944.924 61.5021 1028.91 87.024 1132.95 69.7275L1302.15 3.08503C1365.24 -17.278 1728.95 130.949 1788.94 174.288Z" fill="url(#paint0_linear)" stroke="black"/>
<path d="M1740.75 134.658C1808.13 105.377 1820.5 338.233 1853 294.855V476.265H12.0814L1.13 200.741C76.4836 174.985 264.252 176.952 342.265 134.658C439.781 81.7898 459.771 4.52134 535.124 53.3225C610.478 102.124 686.74 154.991 775.391 183.459C864.042 211.926 1007.72 187.525 1087.5 134.658C1167.29 81.7897 1290.03 73.6562 1343.22 134.658C1396.41 195.659 1656.53 171.258 1740.75 134.658Z" fill="url(#paint1_linear)" stroke="black"/>
<defs>
<linearGradient id="paint0_linear" x1="938.566" y1="-149.022" x2="938.566" y2="480.774" gradientUnits="userSpaceOnUse">
<stop stop-color="#E6C36A"/>
<stop offset="1" stop-color="#221902"/>
</linearGradient>
<linearGradient id="paint1_linear" x1="945.137" y1="-116.903" x2="945.137" y2="476.265" gradientUnits="userSpaceOnUse">
<stop stop-color="#EBD190"/>
<stop offset="1" stop-color="#7C6731"/>
</linearGradient>
</defs>
</svg>
