<svg width="2064" height="291" viewBox="0 0 2064 291" fill="none" xmlns="http://www.w3.org/2000/svg">
<path d="M180.634 144.338H255.306V155.489V166.978V179.143V191.645V203.134H180.634V191.645V179.143V166.978V155.489V144.338Z" fill="#9D7100"/>
<path d="M255.306 155.489V144.338H180.634V155.489M255.306 155.489H180.634M255.306 155.489V166.978M180.634 155.489V166.978M180.634 166.978H255.306M180.634 166.978V179.143M255.306 166.978V179.143M255.306 179.143H180.634M255.306 179.143V191.645M180.634 179.143V191.645M180.634 191.645H255.306M180.634 191.645V203.134H255.306V191.645" stroke="black"/>
<circle cx="180.046" cy="184.907" r="5.37963" fill="#7B5900" stroke="black"/>
<circle cx="180.046" cy="196.667" r="5.37963" fill="#7B5900" stroke="black"/>
<circle cx="180.046" cy="173.148" r="5.37963" fill="#7B5900" stroke="black"/>
<circle cx="180.046" cy="161.389" r="5.37963" fill="#7B5900" stroke="black"/>
<circle cx="180.046" cy="149.63" r="5.37963" fill="#7B5900" stroke="black"/>
<circle cx="254.718" cy="184.907" r="5.37963" fill="#7B5900" stroke="black"/>
<circle cx="254.718" cy="196.667" r="5.37963" fill="#7B5900" stroke="black"/>
<circle cx="254.718" cy="173.148" r="5.37963" fill="#7B5900" stroke="black"/>
<circle cx="254.718" cy="161.389" r="5.37963" fill="#7B5900" stroke="black"/>
<circle cx="254.718" cy="149.63" r="5.37963" fill="#7B5900" stroke="black"/>
<path d="M242.37 157.273H220.028V183.144H242.37V157.273Z" fill="#7B5900" stroke="black"/>
<rect x="235.227" y="158.949" width="4.29167" height="21.9306" fill="#0099A4" stroke="black"/>
<rect x="222.292" y="158.949" width="9.58333" height="5.46759" fill="#0099A4" stroke="black"/>
<rect x="222.292" y="167.181" width="9.58333" height="13.6991" fill="#0099A4" stroke="black"/>
<path d="M217.088 157.273H194.157V183.144H217.088V157.273Z" fill="#7B5900" stroke="black"/>
<rect x="209.357" y="158.949" width="4.87963" height="21.9306" fill="#0099A4" stroke="black"/>
<rect x="197.009" y="158.949" width="8.99537" height="5.46759" fill="#0099A4" stroke="black"/>
<rect x="197.009" y="167.181" width="8.99537" height="13.6991" fill="#0099A4" stroke="black"/>
<path d="M210.076 126.125L218.264 121.397L226.452 126.125L234.89 130.998L245.149 136.922L258.144 144.426H178.384L191.378 136.922L201.638 130.998L210.076 126.125Z" fill="#9D7100" stroke="black"/>
<path d="M204.71 112L215.995 113.333L280 151.981L266.862 148.65L218.184 121.162L170.18 147.983L153 151.981L211.447 116.581L204.71 112Z" fill="#7B5900"/>
<path d="M218.184 121.162L266.862 148.65L280 151.981L215.995 113.333L204.71 112L211.447 116.581M218.184 121.162L211.447 116.581M218.184 121.162L170.18 147.983L153 151.981L211.447 116.581" stroke="black"/>
<path d="M28.6343 96.2037H103.306V107.355V118.844V131.008V143.511V155H28.6343V143.511V131.008V118.844V107.355V96.2037Z" fill="#9D7100"/>
<path d="M103.306 107.355V96.2037H28.6343V107.355M103.306 107.355H28.6343M103.306 107.355V118.844M28.6343 107.355V118.844M28.6343 118.844H103.306M28.6343 118.844V131.008M103.306 118.844V131.008M103.306 131.008H28.6343M103.306 131.008V143.511M28.6343 131.008V143.511M28.6343 143.511H103.306M28.6343 143.511V155H103.306V143.511" stroke="black"/>
<circle cx="28.0463" cy="136.773" r="5.37963" fill="#7B5900" stroke="black"/>
<circle cx="28.0463" cy="148.532" r="5.37963" fill="#7B5900" stroke="black"/>
<circle cx="28.0463" cy="125.014" r="5.37963" fill="#7B5900" stroke="black"/>
<circle cx="28.0463" cy="113.255" r="5.37963" fill="#7B5900" stroke="black"/>
<circle cx="28.0463" cy="101.495" r="5.37963" fill="#7B5900" stroke="black"/>
<circle cx="102.718" cy="136.773" r="5.37963" fill="#7B5900" stroke="black"/>
<circle cx="102.718" cy="148.532" r="5.37963" fill="#7B5900" stroke="black"/>
<circle cx="102.718" cy="125.014" r="5.37963" fill="#7B5900" stroke="black"/>
<circle cx="102.718" cy="113.255" r="5.37963" fill="#7B5900" stroke="black"/>
<circle cx="102.718" cy="101.495" r="5.37963" fill="#7B5900" stroke="black"/>
<path d="M90.3704 109.139H68.0278V135.009H90.3704V109.139Z" fill="#7B5900" stroke="black"/>
<rect x="83.2269" y="110.815" width="4.29167" height="21.9306" fill="#0099A4" stroke="black"/>
<rect x="70.2916" y="110.815" width="9.58333" height="5.46759" fill="#0099A4" stroke="black"/>
<rect x="70.2916" y="119.046" width="9.58333" height="13.6991" fill="#0099A4" stroke="black"/>
<path d="M65.0879 109.139H42.1573V135.009H65.0879V109.139Z" fill="#7B5900" stroke="black"/>
<rect x="57.3564" y="110.815" width="4.87963" height="21.9306" fill="#0099A4" stroke="black"/>
<rect x="45.0093" y="110.815" width="8.99537" height="5.46759" fill="#0099A4" stroke="black"/>
<rect x="45.0093" y="119.046" width="8.99537" height="13.6991" fill="#0099A4" stroke="black"/>
<path d="M58.0761 77.9908L66.2639 73.2626L74.4518 77.9908L82.8897 82.8633L93.1494 88.788L106.144 96.2917H26.3843L39.3785 88.788L49.6382 82.8633L58.0761 77.9908Z" fill="#9D7100" stroke="black"/>
<path d="M52.7095 63.8657L63.9947 65.1984L128 103.847L114.862 100.515L66.1843 73.0281L18.1804 99.8491L1 103.847L59.4469 68.4469L52.7095 63.8657Z" fill="#7B5900"/>
<path d="M66.1843 73.0281L114.862 100.515L128 103.847L63.9947 65.1984L52.7095 63.8657L59.4469 68.4469M66.1843 73.0281L59.4469 68.4469M66.1843 73.0281L18.1804 99.8491L1 103.847L59.4469 68.4469" stroke="black"/>
<path d="M768.023 125.789H937.569V151.079V177.135V204.723V233.078V259.134H768.023V233.078V204.723V177.135V151.079V125.789Z" fill="#9D7100"/>
<path d="M937.569 151.079V125.789H768.023V151.079M937.569 151.079H768.023M937.569 151.079V177.135M768.023 151.079V177.135M768.023 177.135H937.569M768.023 177.135V204.723M937.569 177.135V204.723M937.569 204.723H768.023M937.569 204.723V233.078M768.023 204.723V233.078M768.023 233.078H937.569M768.023 233.078V259.134H937.569V233.078" stroke="black"/>
<path d="M779.534 217.797C779.534 224.885 773.782 230.632 766.684 230.632C759.587 230.632 753.834 224.885 753.834 217.797C753.834 210.71 759.587 204.963 766.684 204.963C773.782 204.963 779.534 210.71 779.534 217.797Z" fill="#7B5900" stroke="black"/>
<path d="M779.534 244.466C779.534 251.554 773.782 257.301 766.684 257.301C759.587 257.301 753.834 251.554 753.834 244.466C753.834 237.379 759.587 231.632 766.684 231.632C773.782 231.632 779.534 237.379 779.534 244.466Z" fill="#7B5900" stroke="black"/>
<path d="M779.534 191.128C779.534 198.216 773.782 203.963 766.684 203.963C759.587 203.963 753.834 198.216 753.834 191.128C753.834 184.04 759.587 178.294 766.684 178.294C773.782 178.294 779.534 184.04 779.534 191.128Z" fill="#7B5900" stroke="black"/>
<path d="M779.534 164.459C779.534 171.547 773.782 177.294 766.684 177.294C759.587 177.294 753.834 171.547 753.834 164.459C753.834 157.371 759.587 151.625 766.684 151.625C773.782 151.625 779.534 157.371 779.534 164.459Z" fill="#7B5900" stroke="black"/>
<path d="M779.534 137.79C779.534 144.878 773.782 150.625 766.684 150.625C759.587 150.625 753.834 144.878 753.834 137.79C753.834 130.702 759.587 124.956 766.684 124.956C773.782 124.956 779.534 130.702 779.534 137.79Z" fill="#7B5900" stroke="black"/>
<path d="M949.083 217.797C949.083 224.885 943.33 230.632 936.232 230.632C929.135 230.632 923.382 224.885 923.382 217.797C923.382 210.71 929.135 204.963 936.232 204.963C943.33 204.963 949.083 210.71 949.083 217.797Z" fill="#7B5900" stroke="black"/>
<path d="M949.083 244.466C949.083 251.554 943.33 257.301 936.232 257.301C929.135 257.301 923.382 251.554 923.382 244.466C923.382 237.379 929.135 231.632 936.232 231.632C943.33 231.632 949.083 237.379 949.083 244.466Z" fill="#7B5900" stroke="black"/>
<path d="M949.083 191.128C949.083 198.216 943.33 203.963 936.232 203.963C929.135 203.963 923.382 198.216 923.382 191.128C923.382 184.04 929.135 178.294 936.232 178.294C943.33 178.294 949.083 184.04 949.083 191.128Z" fill="#7B5900" stroke="black"/>
<path d="M949.083 164.459C949.083 171.547 943.33 177.294 936.232 177.294C929.135 177.294 923.382 171.547 923.382 164.459C923.382 157.371 929.135 151.625 936.232 151.625C943.33 151.625 949.083 157.371 949.083 164.459Z" fill="#7B5900" stroke="black"/>
<path d="M949.083 137.79C949.083 144.878 943.33 150.625 936.232 150.625C929.135 150.625 923.382 144.878 923.382 137.79C923.382 130.702 929.135 124.956 936.232 124.956C943.33 124.956 949.083 130.702 949.083 137.79Z" fill="#7B5900" stroke="black"/>
<path d="M908.195 155.125H857.465V213.797H908.195V155.125Z" fill="#7B5900" stroke="black"/>
<rect x="891.341" y="158.292" width="11.0151" height="51.0047" fill="#0099A4" stroke="black"/>
<rect x="861.97" y="158.292" width="23.0301" height="13.668" fill="#0099A4" stroke="black"/>
<rect x="861.97" y="176.961" width="23.0301" height="32.3363" fill="#0099A4" stroke="black"/>
<path d="M850.792 155.125H798.727V213.797H850.792V155.125Z" fill="#7B5900" stroke="black"/>
<rect x="832.603" y="158.292" width="12.3501" height="51.0047" fill="#0099A4" stroke="black"/>
<rect x="804.567" y="158.292" width="21.6951" height="13.668" fill="#0099A4" stroke="black"/>
<rect x="804.567" y="176.961" width="21.6951" height="32.3363" fill="#0099A4" stroke="black"/>
<path d="M834.551 83.9346L853.46 73.028L872.369 83.9346L891.527 94.9852L914.823 108.422L946.378 126.622H760.542L792.097 108.422L815.392 94.9852L834.551 83.9346Z" fill="#9D7100" stroke="black"/>
<path d="M822.686 52.4492L848.309 55.4717L993.638 143.124L963.807 135.568L853.281 73.2289L744.285 134.057L705.276 143.124L837.983 62.839L822.686 52.4492Z" fill="#7B5900"/>
<path d="M853.281 73.2289L963.807 135.568L993.638 143.124L848.309 55.4717L822.686 52.4492L837.983 62.839M853.281 73.2289L837.983 62.839M853.281 73.2289L744.285 134.057L705.276 143.124L837.983 62.839" stroke="black"/>
<path d="M931.539 98H1152.8V131V165V201V238V272H931.539V238V201V165V131V98Z" fill="#7B6E4B"/>
<path d="M1152.8 131V98H931.539V131M1152.8 131H931.539M1152.8 131V165M931.539 131V165M931.539 165H1152.8M931.539 165V201M1152.8 165V201M1152.8 201H931.539M1152.8 201V238M931.539 201V238M931.539 238H1152.8M931.539 238V272H1152.8V238" stroke="black"/>
<path d="M947.058 220.5C947.058 229.888 939.438 237.5 930.038 237.5C920.637 237.5 913.017 229.888 913.017 220.5C913.017 211.112 920.637 203.5 930.038 203.5C939.438 203.5 947.058 211.112 947.058 220.5Z" fill="#7B5900" stroke="black"/>
<path d="M947.058 255.5C947.058 264.888 939.438 272.5 930.038 272.5C920.637 272.5 913.017 264.888 913.017 255.5C913.017 246.112 920.637 238.5 930.038 238.5C939.438 238.5 947.058 246.112 947.058 255.5Z" fill="#7B5900" stroke="black"/>
<path d="M947.058 185.5C947.058 194.888 939.438 202.5 930.038 202.5C920.637 202.5 913.017 194.888 913.017 185.5C913.017 176.112 920.637 168.5 930.038 168.5C939.438 168.5 947.058 176.112 947.058 185.5Z" fill="#7B5900" stroke="black"/>
<path d="M947.058 150.5C947.058 159.888 939.438 167.5 930.038 167.5C920.637 167.5 913.017 159.888 913.017 150.5C913.017 141.112 920.637 133.5 930.038 133.5C939.438 133.5 947.058 141.112 947.058 150.5Z" fill="#7B5900" stroke="black"/>
<path d="M947.058 115.5C947.058 124.888 939.438 132.5 930.038 132.5C920.637 132.5 913.017 124.888 913.017 115.5C913.017 106.112 920.637 98.5 930.038 98.5C939.438 98.5 947.058 106.112 947.058 115.5Z" fill="#7B5900" stroke="black"/>
<path d="M1226.88 231.604L1152.8 271V238.585V201.682V164.78V132.864V100.948L1219.88 88.5L1226.88 108.927V136.853V170.764V201.682V231.604Z" fill="#706444"/>
<path d="M1152.8 238.585V271L1226.88 231.604V201.682M1152.8 238.585L1226.88 201.682M1152.8 238.585V201.682M1226.88 201.682V170.764M1152.8 201.682L1226.88 170.764M1152.8 201.682V164.78M1226.88 170.764V136.853M1152.8 164.78L1226.88 136.853M1152.8 164.78V132.864M1226.88 136.853V108.927M1152.8 132.864V100.948L1219.88 88.5L1226.88 108.927M1152.8 132.864L1226.88 108.927" stroke="black"/>
<path d="M1168.32 220.5C1168.32 229.888 1160.7 237.5 1151.3 237.5C1141.89 237.5 1134.28 229.888 1134.28 220.5C1134.28 211.112 1141.89 203.5 1151.3 203.5C1160.7 203.5 1168.32 211.112 1168.32 220.5Z" fill="#7B5900" stroke="black"/>
<path d="M1168.32 255.5C1168.32 264.888 1160.7 272.5 1151.3 272.5C1141.89 272.5 1134.28 264.888 1134.28 255.5C1134.28 246.112 1141.89 238.5 1151.3 238.5C1160.7 238.5 1168.32 246.112 1168.32 255.5Z" fill="#7B5900" stroke="black"/>
<path d="M1168.32 185.5C1168.32 194.888 1160.7 202.5 1151.3 202.5C1141.89 202.5 1134.28 194.888 1134.28 185.5C1134.28 176.112 1141.89 168.5 1151.3 168.5C1160.7 168.5 1168.32 176.112 1168.32 185.5Z" fill="#7B5900" stroke="black"/>
<path d="M1168.32 150.5C1168.32 159.888 1160.7 167.5 1151.3 167.5C1141.89 167.5 1134.28 159.888 1134.28 150.5C1134.28 141.112 1141.89 133.5 1151.3 133.5C1160.7 133.5 1168.32 141.112 1168.32 150.5Z" fill="#7B5900" stroke="black"/>
<path d="M1168.32 115.5C1168.32 124.888 1160.7 132.5 1151.3 132.5C1141.89 132.5 1134.28 124.888 1134.28 115.5C1134.28 106.112 1141.89 98.5 1151.3 98.5C1160.7 98.5 1168.32 106.112 1168.32 115.5Z" fill="#7B5900" stroke="black"/>
<path d="M1115.25 135H1048.18V212.5H1115.25V135Z" fill="#7B5900" stroke="black"/>
<rect x="1092.23" y="140.5" width="16.0198" height="67" fill="#0099A4" stroke="black"/>
<rect x="1055.18" y="140.5" width="29.035" height="18" fill="#0099A4" stroke="black"/>
<rect x="1055.18" y="163.5" width="29.035" height="44" fill="#0099A4" stroke="black"/>
<path d="M1039.16 135H972.087V212.5H1039.16V135Z" fill="#7B5900" stroke="black"/>
<rect x="1016.14" y="140.5" width="16.0198" height="67" fill="#0099A4" stroke="black"/>
<rect x="979.094" y="140.5" width="29.035" height="18" fill="#0099A4" stroke="black"/>
<rect x="979.094" y="163.5" width="29.035" height="44" fill="#0099A4" stroke="black"/>
<path d="M1017.85 42.6846L1042.67 28.5752L1067.48 42.6846L1092.54 56.9346L1123.02 74.2613L1164.76 98H920.574L962.322 74.2613L992.794 56.9346L1017.85 42.6846Z" fill="#7B6E4B" stroke="black"/>
<path d="M1114.25 18L1294.46 122H1278.07H1261.67H1245.28L1226.38 120.5L1037.16 5.5L1056.43 8.625L1075.71 11.75L1094.98 14.875L1114.25 18Z" fill="#5F4E22"/>
<path d="M1075.71 11.75L1261.67 122M1075.71 11.75L1056.43 8.625M1075.71 11.75L1094.98 14.875M1261.67 122H1245.28M1261.67 122H1278.07M1245.28 122L1226.38 120.5L1037.16 5.5L1056.43 8.625M1245.28 122L1056.43 8.625M1094.98 14.875L1114.25 18L1294.46 122H1278.07M1094.98 14.875L1278.07 122" stroke="black"/>
<path d="M1003.12 1L1036.66 5L1226.88 121L1187.84 111L1043.17 28.5L900.503 109L849.444 121L1023.15 14.75L1003.12 1Z" fill="#5A4A20"/>
<path d="M1043.17 28.5L1187.84 111L1226.88 121L1036.66 5L1003.12 1L1023.15 14.75M1043.17 28.5L1023.15 14.75M1043.17 28.5L900.503 109L849.444 121L1023.15 14.75" stroke="black"/>
<path d="M381.969 185.63H514.375V205.378V225.724V247.268V269.409V289.756H381.969V269.409V247.268V225.724V205.378V185.63Z" fill="#7B6E4B"/>
<path d="M514.375 205.378V185.63H381.969V205.378M514.375 205.378H381.969M514.375 205.378V225.724M381.969 205.378V225.724M381.969 225.724H514.375M381.969 225.724V247.268M514.375 225.724V247.268M514.375 247.268H381.969M514.375 247.268V269.409M381.969 247.268V269.409M381.969 269.409H514.375M381.969 269.409V289.756H514.375V269.409" stroke="black"/>
<path d="M391.056 258.938C391.056 264.445 386.586 268.91 381.071 268.91C375.556 268.91 371.087 264.445 371.087 258.938C371.087 253.43 375.556 248.965 381.071 248.965C386.586 248.965 391.056 253.43 391.056 258.938Z" fill="#7B5900" stroke="black"/>
<path d="M391.056 279.882C391.056 285.389 386.586 289.854 381.071 289.854C375.556 289.854 371.087 285.389 371.087 279.882C371.087 274.375 375.556 269.909 381.071 269.909C386.586 269.909 391.056 274.375 391.056 279.882Z" fill="#7B5900" stroke="black"/>
<path d="M391.056 237.992C391.056 243.499 386.586 247.965 381.071 247.965C375.556 247.965 371.087 243.499 371.087 237.992C371.087 232.485 375.556 228.02 381.071 228.02C386.586 228.02 391.056 232.485 391.056 237.992Z" fill="#7B5900" stroke="black"/>
<path d="M391.056 217.048C391.056 222.555 386.586 227.02 381.071 227.02C375.556 227.02 371.087 222.555 371.087 217.048C371.087 211.541 375.556 207.075 381.071 207.075C386.586 207.075 391.056 211.541 391.056 217.048Z" fill="#7B5900" stroke="black"/>
<path d="M391.056 196.102C391.056 201.609 386.586 206.075 381.071 206.075C375.556 206.075 371.087 201.609 371.087 196.102C371.087 190.595 375.556 186.13 381.071 186.13C386.586 186.13 391.056 190.595 391.056 196.102Z" fill="#7B5900" stroke="black"/>
<path d="M558.711 265.582L514.376 289.158V269.76V247.677V225.593V206.494V187.394L554.518 179.945L558.711 192.169V208.881V229.174V247.677V265.582Z" fill="#706444"/>
<path d="M514.376 269.76V289.158L558.711 265.582V247.677M514.376 269.76L558.711 247.677M514.376 269.76V247.677M558.711 247.677V229.174M514.376 247.677L558.711 229.174M514.376 247.677V225.593M558.711 229.174V208.881M514.376 225.593L558.711 208.881M514.376 225.593V206.494M558.711 208.881V192.169M514.376 206.494V187.394L554.518 179.945L558.711 192.169M514.376 206.494L558.711 192.169" stroke="black"/>
<path d="M523.461 258.938C523.461 264.445 518.991 268.91 513.477 268.91C507.962 268.91 503.492 264.445 503.492 258.938C503.492 253.43 507.962 248.965 513.477 248.965C518.991 248.965 523.461 253.43 523.461 258.938Z" fill="#7B5900" stroke="black"/>
<path d="M523.461 279.882C523.461 285.389 518.991 289.854 513.477 289.854C507.962 289.854 503.492 285.389 503.492 279.882C503.492 274.375 507.962 269.909 513.477 269.909C518.991 269.909 523.461 274.375 523.461 279.882Z" fill="#7B5900" stroke="black"/>
<path d="M523.461 237.992C523.461 243.499 518.991 247.965 513.477 247.965C507.962 247.965 503.492 243.499 503.492 237.992C503.492 232.485 507.962 228.02 513.477 228.02C518.991 228.02 523.461 232.485 523.461 237.992Z" fill="#7B5900" stroke="black"/>
<path d="M523.461 217.048C523.461 222.555 518.991 227.02 513.477 227.02C507.962 227.02 503.492 222.555 503.492 217.048C503.492 211.541 507.962 207.075 513.477 207.075C518.991 207.075 523.461 211.541 523.461 217.048Z" fill="#7B5900" stroke="black"/>
<path d="M523.461 196.102C523.461 201.609 518.991 206.075 513.477 206.075C507.962 206.075 503.492 201.609 503.492 196.102C503.492 190.595 507.962 186.13 513.477 186.13C518.991 186.13 523.461 190.595 523.461 196.102Z" fill="#7B5900" stroke="black"/>
<path d="M491.91 207.772H451.769V254.15H491.91V207.772Z" fill="#7B5900" stroke="black"/>
<rect x="478.329" y="211.264" width="9.18509" height="39.6929" fill="#0099A4" stroke="black"/>
<rect x="456.162" y="211.264" width="16.9737" height="10.3701" fill="#0099A4" stroke="black"/>
<rect x="456.162" y="225.028" width="16.9737" height="25.9291" fill="#0099A4" stroke="black"/>
<path d="M446.376 207.772H406.235V254.15H446.376V207.772Z" fill="#7B5900" stroke="black"/>
<rect x="432.796" y="211.264" width="9.18509" height="39.6929" fill="#0099A4" stroke="black"/>
<rect x="410.628" y="211.264" width="16.9737" height="10.3701" fill="#0099A4" stroke="black"/>
<rect x="410.628" y="225.028" width="16.9737" height="25.9291" fill="#0099A4" stroke="black"/>
<path d="M433.724 152.702L448.474 144.315L463.224 152.702L478.221 161.23L496.456 171.599L520.779 185.429H376.168L400.491 171.599L418.726 161.23L433.724 152.702Z" fill="#7B6E4B" stroke="black"/>
<path d="M491.31 137.757L599.153 199.993H589.342H579.531H569.721L558.412 199.095L445.178 130.276L456.711 132.146L468.244 134.016L479.777 135.886L491.31 137.757Z" fill="#5F4E22"/>
<path d="M468.244 134.016L579.531 199.993M468.244 134.016L456.711 132.146M468.244 134.016L479.777 135.886M579.531 199.993H569.721M579.531 199.993H589.342M569.721 199.993L558.412 199.095L445.178 130.276L456.711 132.146M569.721 199.993L456.711 132.146M479.777 135.886L491.31 137.757L599.153 199.993H589.342M479.777 135.886L589.342 199.993" stroke="black"/>
<path d="M424.807 127.583L444.878 129.977L558.711 199.394L535.345 193.41L448.772 144.04L363.397 192.213L332.842 199.394L436.79 135.811L424.807 127.583Z" fill="#5A4A20"/>
<path d="M448.772 144.04L535.345 193.41L558.711 199.394L444.878 129.977L424.807 127.583L436.79 135.811M448.772 144.04L436.79 135.811M448.772 144.04L363.397 192.213L332.842 199.394L436.79 135.811" stroke="black"/>
<path d="M1886.64 174.333H1955.75V184.652V195.285V206.542V218.113V228.745H1886.64V218.113V206.542V195.285V184.652V174.333Z" fill="#9D7100"/>
<path d="M1955.75 184.652V174.333H1886.64V184.652M1955.75 184.652H1886.64M1955.75 184.652V195.285M1886.64 184.652V195.285M1886.64 195.285H1955.75M1886.64 195.285V206.542M1955.75 195.285V206.542M1955.75 206.542H1886.64M1955.75 206.542V218.113M1886.64 206.542V218.113M1886.64 218.113H1955.75M1886.64 218.113V228.745H1955.75V218.113" stroke="black"/>
<circle cx="1886.17" cy="212.64" r="4.97246" fill="#7B5900" stroke="black"/>
<circle cx="1886.17" cy="223.585" r="4.97246" fill="#7B5900" stroke="black"/>
<circle cx="1886.17" cy="201.695" r="4.97246" fill="#7B5900" stroke="black"/>
<circle cx="1886.17" cy="190.75" r="4.97246" fill="#7B5900" stroke="black"/>
<circle cx="1886.17" cy="179.805" r="4.97246" fill="#7B5900" stroke="black"/>
<path d="M1978.89 216.113L1955.75 228.432V218.296V206.756V195.216V185.235V175.255L1976.7 171.362L1978.89 177.75V186.483V197.087V206.756V216.113Z" fill="#9D7100"/>
<path d="M1955.75 218.296V228.432L1978.89 216.113V206.756M1955.75 218.296L1978.89 206.756M1955.75 218.296V206.756M1978.89 206.756V197.087M1955.75 206.756L1978.89 197.087M1955.75 206.756V195.216M1978.89 197.087V186.483M1955.75 195.216L1978.89 186.483M1955.75 195.216V185.235M1978.89 186.483V177.75M1955.75 185.235V175.255L1976.7 171.362L1978.89 177.75M1955.75 185.235L1978.89 177.75" stroke="black"/>
<circle cx="1955.28" cy="212.64" r="4.97246" fill="#7B5900" stroke="black"/>
<circle cx="1955.28" cy="223.585" r="4.97246" fill="#7B5900" stroke="black"/>
<circle cx="1955.28" cy="201.695" r="4.97246" fill="#7B5900" stroke="black"/>
<circle cx="1955.28" cy="190.75" r="4.97246" fill="#7B5900" stroke="black"/>
<circle cx="1955.28" cy="179.805" r="4.97246" fill="#7B5900" stroke="black"/>
<path d="M1944.02 185.903H1923.07V210.139H1944.02V185.903Z" fill="#7B5900" stroke="black"/>
<rect x="1937.18" y="187.967" width="4.3161" height="20.2644" fill="#0099A4" stroke="black"/>
<rect x="1925.61" y="187.967" width="8.38135" height="4.94152" fill="#0099A4" stroke="black"/>
<rect x="1925.61" y="195.159" width="8.38135" height="13.072" fill="#0099A4" stroke="black"/>
<path d="M1920.26 185.903H1899.31V210.139H1920.26V185.903Z" fill="#7B5900" stroke="black"/>
<rect x="1913.41" y="187.967" width="4.3161" height="20.2644" fill="#0099A4" stroke="black"/>
<rect x="1901.84" y="187.967" width="8.38135" height="4.94152" fill="#0099A4" stroke="black"/>
<rect x="1901.84" y="195.159" width="8.38135" height="13.072" fill="#0099A4" stroke="black"/>
<path d="M1913.77 157.334L1921.35 153.019L1928.93 157.334L1936.76 161.79L1946.28 167.208L1958.19 173.989H1884.52L1896.43 167.208L1905.95 161.79L1913.77 157.334Z" fill="#9D7100" stroke="black"/>
<path d="M1943.71 149.316L2000 181.838H1994.88H1989.76H1984.64L1978.74 181.369L1919.63 145.407L1925.65 146.384L1931.67 147.362L1937.69 148.339L1943.71 149.316Z" fill="#7B5900"/>
<path d="M1931.67 147.362L1989.76 181.838M1931.67 147.362L1925.65 146.384M1931.67 147.362L1937.69 148.339M1989.76 181.838H1984.64M1989.76 181.838H1994.88M1984.64 181.838L1978.74 181.369L1919.63 145.407L1925.65 146.384M1984.64 181.838L1925.65 146.384M1937.69 148.339L1943.71 149.316L2000 181.838H1994.88M1937.69 148.339L1994.88 181.838" stroke="black"/>
<path d="M1909 144L1919.48 145.251L1978.89 181.525L1966.7 178.398L1921.51 152.6L1876.95 177.773L1861 181.525L1915.26 148.3L1909 144Z" fill="#7B5900"/>
<path d="M1921.51 152.6L1966.7 178.398L1978.89 181.525L1919.48 145.251L1909 144L1915.26 148.3M1921.51 152.6L1915.26 148.3M1921.51 152.6L1876.95 177.773L1861 181.525L1915.26 148.3" stroke="black"/>
<path d="M1948.64 189.333H2017.75V199.652V210.285V221.542V233.113V243.745H1948.64V233.113V221.542V210.285V199.652V189.333Z" fill="#9D7100"/>
<path d="M2017.75 199.652V189.333H1948.64V199.652M2017.75 199.652H1948.64M2017.75 199.652V210.285M1948.64 199.652V210.285M1948.64 210.285H2017.75M1948.64 210.285V221.542M2017.75 210.285V221.542M2017.75 221.542H1948.64M2017.75 221.542V233.113M1948.64 221.542V233.113M1948.64 233.113H2017.75M1948.64 233.113V243.745H2017.75V233.113" stroke="black"/>
<circle cx="1948.17" cy="227.64" r="4.97246" fill="#7B5900" stroke="black"/>
<circle cx="1948.17" cy="238.585" r="4.97246" fill="#7B5900" stroke="black"/>
<circle cx="1948.17" cy="216.695" r="4.97246" fill="#7B5900" stroke="black"/>
<circle cx="1948.17" cy="205.75" r="4.97246" fill="#7B5900" stroke="black"/>
<circle cx="1948.17" cy="194.805" r="4.97246" fill="#7B5900" stroke="black"/>
<path d="M2040.89 231.113L2017.75 243.432V233.296V221.756V210.216V200.235V190.255L2038.7 186.362L2040.89 192.75V201.483V212.087V221.756V231.113Z" fill="#9D7100"/>
<path d="M2017.75 233.296V243.432L2040.89 231.113V221.756M2017.75 233.296L2040.89 221.756M2017.75 233.296V221.756M2040.89 221.756V212.087M2017.75 221.756L2040.89 212.087M2017.75 221.756V210.216M2040.89 212.087V201.483M2017.75 210.216L2040.89 201.483M2017.75 210.216V200.235M2040.89 201.483V192.75M2017.75 200.235V190.255L2038.7 186.362L2040.89 192.75M2017.75 200.235L2040.89 192.75" stroke="black"/>
<circle cx="2017.28" cy="227.64" r="4.97246" fill="#7B5900" stroke="black"/>
<circle cx="2017.28" cy="238.585" r="4.97246" fill="#7B5900" stroke="black"/>
<circle cx="2017.28" cy="216.695" r="4.97246" fill="#7B5900" stroke="black"/>
<circle cx="2017.28" cy="205.75" r="4.97246" fill="#7B5900" stroke="black"/>
<circle cx="2017.28" cy="194.805" r="4.97246" fill="#7B5900" stroke="black"/>
<path d="M2006.02 200.903H1985.07V225.139H2006.02V200.903Z" fill="#7B5900" stroke="black"/>
<rect x="1999.18" y="202.967" width="4.3161" height="20.2644" fill="#0099A4" stroke="black"/>
<rect x="1987.61" y="202.967" width="8.38135" height="4.94152" fill="#0099A4" stroke="black"/>
<rect x="1987.61" y="210.159" width="8.38135" height="13.072" fill="#0099A4" stroke="black"/>
<path d="M1982.26 200.903H1961.31V225.139H1982.26V200.903Z" fill="#7B5900" stroke="black"/>
<rect x="1975.41" y="202.967" width="4.3161" height="20.2644" fill="#0099A4" stroke="black"/>
<rect x="1963.84" y="202.967" width="8.38135" height="4.94152" fill="#0099A4" stroke="black"/>
<rect x="1963.84" y="210.159" width="8.38135" height="13.072" fill="#0099A4" stroke="black"/>
<path d="M1975.77 172.334L1983.35 168.019L1990.93 172.334L1998.76 176.79L2008.28 182.208L2020.19 188.989H1946.52L1958.43 182.208L1967.95 176.79L1975.77 172.334Z" fill="#9D7100" stroke="black"/>
<path d="M2005.71 164.316L2062 196.838H2056.88H2051.76H2046.64L2040.74 196.369L1981.63 160.407L1987.65 161.384L1993.67 162.362L1999.69 163.339L2005.71 164.316Z" fill="#7B5900"/>
<path d="M1993.67 162.362L2051.76 196.838M1993.67 162.362L1987.65 161.384M1993.67 162.362L1999.69 163.339M2051.76 196.838H2046.64M2051.76 196.838H2056.88M2046.64 196.838L2040.74 196.369L1981.63 160.407L1987.65 161.384M2046.64 196.838L1987.65 161.384M1999.69 163.339L2005.71 164.316L2062 196.838H2056.88M1999.69 163.339L2056.88 196.838" stroke="black"/>
<path d="M1971 159L1981.48 160.251L2040.89 196.525L2028.7 193.398L1983.51 167.6L1938.95 192.773L1923 196.525L1977.26 163.3L1971 159Z" fill="#7B5900"/>
<path d="M1983.51 167.6L2028.7 193.398L2040.89 196.525L1981.48 160.251L1971 159L1977.26 163.3M1983.51 167.6L1977.26 163.3M1983.51 167.6L1938.95 192.773L1923 196.525L1977.26 163.3" stroke="black"/>
<path d="M1493.47 171.884H1632.18V192.597V213.938V236.534V259.758V281.099H1493.47V259.758V236.534V213.938V192.597V171.884Z" fill="#7B6E4B"/>
<path d="M1632.18 192.597V171.884H1493.47V192.597M1632.18 192.597H1493.47M1632.18 192.597V213.938M1493.47 192.597V213.938M1493.47 213.938H1632.18M1493.47 213.938V236.534M1632.18 213.938V236.534M1632.18 236.534H1493.47M1632.18 236.534V259.758M1493.47 236.534V259.758M1493.47 259.758H1632.18M1493.47 259.758V281.099H1632.18V259.758" stroke="black"/>
<circle cx="1492.53" cy="248.774" r="10.4843" fill="#7B5900" stroke="black"/>
<circle cx="1492.53" cy="270.742" r="10.4843" fill="#7B5900" stroke="black"/>
<circle cx="1492.53" cy="226.805" r="10.4843" fill="#7B5900" stroke="black"/>
<circle cx="1492.53" cy="204.837" r="10.4843" fill="#7B5900" stroke="black"/>
<circle cx="1492.53" cy="182.868" r="10.4843" fill="#7B5900" stroke="black"/>
<path d="M1678.63 255.743L1632.18 280.471V260.126V236.963V213.8V193.767V173.734L1674.24 165.921L1678.63 178.742V196.271V217.556V236.963V255.743Z" fill="#706444"/>
<path d="M1632.18 260.126V280.471L1678.63 255.743V236.963M1632.18 260.126L1678.63 236.963M1632.18 260.126V236.963M1678.63 236.963V217.556M1632.18 236.963L1678.63 217.556M1632.18 236.963V213.8M1678.63 217.556V196.271M1632.18 213.8L1678.63 196.271M1632.18 213.8V193.767M1678.63 196.271V178.742M1632.18 193.767V173.734L1674.24 165.921L1678.63 178.742M1632.18 193.767L1678.63 178.742" stroke="black"/>
<circle cx="1631.24" cy="248.774" r="10.4843" fill="#7B5900" stroke="black"/>
<circle cx="1631.24" cy="270.742" r="10.4843" fill="#7B5900" stroke="black"/>
<circle cx="1631.24" cy="226.805" r="10.4843" fill="#7B5900" stroke="black"/>
<circle cx="1631.24" cy="204.837" r="10.4843" fill="#7B5900" stroke="black"/>
<circle cx="1631.24" cy="182.868" r="10.4843" fill="#7B5900" stroke="black"/>
<path d="M1608.65 195.108H1566.59V243.753H1608.65V195.108Z" fill="#7B5900" stroke="black"/>
<rect x="1594.4" y="198.746" width="9.67042" height="41.6817" fill="#0099A4" stroke="black"/>
<rect x="1571.17" y="198.746" width="17.8301" height="10.9258" fill="#0099A4" stroke="black"/>
<rect x="1571.17" y="213.183" width="17.8301" height="27.2452" fill="#0099A4" stroke="black"/>
<path d="M1560.94 195.108H1518.89V243.753H1560.94V195.108Z" fill="#7B5900" stroke="black"/>
<rect x="1546.69" y="198.746" width="9.67042" height="41.6817" fill="#0099A4" stroke="black"/>
<rect x="1523.47" y="198.746" width="17.8301" height="10.9258" fill="#0099A4" stroke="black"/>
<rect x="1523.47" y="213.183" width="17.8301" height="27.2452" fill="#0099A4" stroke="black"/>
<path d="M1547.68 137.326L1563.14 128.522L1578.6 137.326L1594.32 146.27L1613.42 157.146L1638.98 171.698H1487.3L1512.86 157.146L1531.96 146.27L1547.68 137.326Z" fill="#7B6E4B" stroke="black"/>
<path d="M1608.02 121.67L1721 186.948H1710.72H1700.44H1690.17L1678.32 186.007L1559.69 113.824L1571.77 115.786L1583.85 117.747L1595.94 119.709L1608.02 121.67Z" fill="#5F4E22"/>
<path d="M1583.85 117.747L1700.44 186.948M1583.85 117.747L1571.77 115.786M1583.85 117.747L1595.94 119.709M1700.44 186.948H1690.17M1700.44 186.948H1710.72M1690.17 186.948L1678.32 186.007L1559.69 113.824L1571.77 115.786M1690.17 186.948L1571.77 115.786M1595.94 119.709L1608.02 121.67L1721 186.948H1710.72M1595.94 119.709L1710.72 186.948" stroke="black"/>
<path d="M1538.35 111L1559.37 113.511L1678.63 186.321L1654.15 180.044L1563.45 128.261L1474.01 178.789L1442 186.321L1550.9 119.63L1538.35 111Z" fill="#5A4A20"/>
<path d="M1563.45 128.261L1654.15 180.044L1678.63 186.321L1559.37 113.511L1538.35 111L1550.9 119.63M1563.45 128.261L1550.9 119.63M1563.45 128.261L1474.01 178.789L1442 186.321L1550.9 119.63" stroke="black"/>
</svg>
