<svg width="756" height="354" viewBox="0 0 756 354" fill="none" xmlns="http://www.w3.org/2000/svg">
<g filter="url(#filter0_f)">
<ellipse cx="387.649" cy="321.704" rx="363.985" ry="27.4927" fill="#C4C4C4" fill-opacity="0.18"/>
</g>
<path d="M570.478 77.2761L556.703 96.956V228.726H590.156C590.156 228.726 622.883 225.799 639.352 234.715C652.09 241.612 657.278 248.696 663.95 260.385C668.597 268.527 671.821 282.631 671.821 282.631L677.725 286.054H727.904V282.631H732.824V286.054H745.615L748.566 282.631L750.534 263.807L738.727 260.385L747.582 257.818C747.582 257.818 749.895 180.553 747.582 176.531C745.27 172.51 739.711 166.263 738.727 162.841C737.743 159.418 720.033 89.2552 720.033 89.2552C720.033 89.2552 715.113 80.6988 701.338 78.9874C687.564 77.276 570.478 77.2761 570.478 77.2761Z" fill="url(#paint0_linear)" stroke="black"/>
<path d="M589.966 88.0155C588.118 92.4061 589.966 229.775 589.966 229.775C589.966 229.775 619.061 226.905 636.156 232.352C643.331 234.639 647.733 235.741 653.708 240.085C660.814 245.251 663.249 249.903 667.566 257.268C672.154 265.095 675.88 278.746 675.88 278.746L731.308 276.169C731.308 276.169 738.192 227.511 736.851 196.268C735.261 159.231 720.223 102.621 720.223 102.621C720.223 102.621 717.451 90.5929 713.756 88.0155C710.061 85.438 702.67 82.8607 690.661 81.1423C678.651 79.4238 601.052 80.2831 597.356 81.1423C593.661 82.0014 591.814 83.6248 589.966 88.0155Z" fill="#DCDADA" stroke="black"/>
<path d="M696.205 88.8749C696.205 88.8749 608.443 86.2974 601.976 90.5932C595.509 94.889 601.976 148.156 605.671 151.593C609.367 155.029 624.46 153.231 636.157 155.888C645.357 157.978 650.301 159.888 659.253 162.762C682.495 170.224 711.91 183.381 717.453 185.099C722.996 186.818 724.844 185.099 724.844 185.099C724.844 185.099 724.844 143.86 721.148 130.973C717.453 118.086 713.758 102.621 709.139 96.6072C704.52 90.5933 696.205 88.8749 696.205 88.8749Z" fill="url(#paint1_linear)" stroke="black"/>
<path d="M599.203 188.536C599.203 188.536 598.279 188.536 598.279 190.255C598.279 191.973 597.355 214.311 597.355 214.311C597.355 214.311 597.355 216.029 599.203 216.029H613.062C614.91 216.029 614.91 215.17 614.91 215.17V190.255C614.91 188.536 613.062 188.536 613.062 188.536H599.203Z" fill="#141414" stroke="black"/>
<path d="M609.367 212.592H603.824V210.015L605.672 208.297V191.114L604.748 188.536H610.291L609.367 191.114V212.592Z" fill="#232323" stroke="black"/>
<path d="M526.222 1.24152L1.49219 1.24153V238.366H526.222V1.24152Z" fill="url(#paint2_linear)" stroke="black"/>
<path d="M536.385 187.677L526.223 194.234V231.397H22.8484V242.6L60.6186 237.445L55.0757 242.6L11.6562 251.191V258.923L6.11328 259.782V272.67L25.5135 269.233L34.7517 259.782V251.191L55.0757 247.754V263.219L85.5617 250.395V246.099H96.6475V252.113L99.419 261.564L88.3331 267.578L93.8761 272.732L105.886 267.578L135.448 271.014L143.762 276.169L148.381 290.775L156.696 288.197L247.23 294.211L262.011 284.761L524.376 290.775L534.538 292.493L547.471 290.775L568.719 282.183H676.806C676.806 282.183 672.183 266.31 666.644 257.268C661.428 248.753 658.762 242.971 650.015 237.507C641.868 232.418 625.996 230.634 625.996 230.634L568.719 228.916V199.705L536.385 187.677Z" fill="url(#paint3_linear)" stroke="black"/>
<path d="M429.223 258.127V235.789H436.614V258.127H523.453V294.211L510.52 296.789L263.859 289.915L260.164 277.028H269.402V265H260.164V252.972H267.555V233.212H274.945V252.972L429.223 258.127Z" fill="url(#paint4_linear)" stroke="black"/>
<path d="M429.221 269.296L274.943 264.141V277.028L429.221 283.901V269.296Z" fill="url(#paint5_linear)"/>
<path d="M436.612 283.901V269.296H509.594V283.901H436.612Z" fill="url(#paint6_linear)"/>
<path d="M429.221 269.296L274.943 264.141V277.028L429.221 283.901V269.296Z" stroke="black"/>
<path d="M436.612 283.901V269.296H509.594V283.901H436.612Z" stroke="black"/>
<path d="M559.48 290.775V308.817L545.623 290.775L573.337 248.676L578.88 228.057H589.966C589.966 228.057 621.917 225.081 639.852 232.353L639.862 232.357C648.024 235.666 652.954 237.664 659.252 243.521C665.553 249.381 667.777 253.937 671.262 261.564C674.616 268.903 676.805 281.324 676.805 281.324H671.262C671.262 281.324 669.75 275.515 668.49 271.873C665.72 263.863 661.1 253.831 659.252 252.113C657.405 250.395 650.014 240.944 644.471 239.226C638.928 237.507 629.327 236.844 619.528 236.648C611.945 236.497 607.493 235.821 600.128 237.507C596.028 238.446 597.357 237.507 589.966 240.944C582.576 244.381 569.642 281.324 569.642 281.324L563.176 290.775H559.48Z" fill="url(#paint7_linear)" stroke="black"/>
<path d="M510.517 18.4244L13.502 18.4244V228.916H510.517V18.4244Z" fill="url(#paint8_linear)" stroke="black"/>
<path d="M147.455 290.775L144.684 295.929L140.988 294.211C140.988 294.211 141.905 266.237 149.303 250.395C153.37 241.685 161.922 231.493 161.922 231.493L231.523 231.493L238.913 238.366C238.913 238.366 252.273 255.228 257.39 267.578C262.554 280.042 264.78 301.084 264.78 301.084C264.78 301.084 256.76 301.012 252.771 298.507C250.656 297.179 248.151 294.211 248.151 294.211C248.151 294.211 246.561 278.711 241.685 270.155C235.352 259.043 228.963 253.201 216.742 247.817C205.537 242.881 192.722 241.803 185.332 243.521C177.941 245.24 163.716 250.424 155.769 260.704C148.159 270.549 147.455 290.775 147.455 290.775Z" fill="url(#paint9_linear)" stroke="black"/>
<path d="M106.808 180.803H58.7695V203.141H106.808V180.803Z" fill="#898080" stroke="black"/>
<path d="M243.034 289.056C243.034 311.02 222.643 328.936 197.343 328.936C172.044 328.936 151.652 311.02 151.652 289.056C151.652 267.092 172.044 249.176 197.343 249.176C222.643 249.176 243.034 267.092 243.034 289.056Z" fill="url(#paint10_linear)" stroke="black"/>
<path d="M219.456 290.379C219.456 301.457 209.788 310.498 197.785 310.498C185.781 310.498 176.113 301.457 176.113 290.379C176.113 279.301 185.781 270.259 197.785 270.259C209.788 270.259 219.456 279.301 219.456 290.379Z" fill="url(#paint11_linear)" stroke="black"/>
<path d="M666.145 287.338C666.145 309.302 645.753 327.218 620.453 327.218C595.153 327.218 574.762 309.302 574.762 287.338C574.762 265.374 595.153 247.458 620.453 247.458C645.753 247.458 666.145 265.374 666.145 287.338Z" fill="url(#paint12_linear)" stroke="black"/>
<path d="M643.256 290.379C643.256 301.457 633.588 310.498 621.584 310.498C609.58 310.498 599.912 301.457 599.912 290.379C599.912 279.301 609.58 270.259 621.584 270.259C633.588 270.259 643.256 279.301 643.256 290.379Z" fill="url(#paint13_linear)" stroke="black"/>
<defs>
<filter id="filter0_f" x="19.6641" y="290.211" width="735.971" height="62.9854" filterUnits="userSpaceOnUse" color-interpolation-filters="sRGB">
<feFlood flood-opacity="0" result="BackgroundImageFix"/>
<feBlend mode="normal" in="SourceGraphic" in2="BackgroundImageFix" result="shape"/>
<feGaussianBlur stdDeviation="2" result="effect1_foregroundBlur"/>
</filter>
<linearGradient id="paint0_linear" x1="653.619" y1="77.2761" x2="653.619" y2="286.054" gradientUnits="userSpaceOnUse">
<stop stop-color="#E6E6E6" stop-opacity="0.99"/>
<stop offset="1" stop-color="#ADADAD"/>
</linearGradient>
<linearGradient id="paint1_linear" x1="662.033" y1="88.108" x2="662.033" y2="185.863" gradientUnits="userSpaceOnUse">
<stop stop-color="#5971AF"/>
<stop offset="1" stop-color="#B2E0FB"/>
</linearGradient>
<linearGradient id="paint2_linear" x1="266.167" y1="-13.364" x2="266.167" y2="238.366" gradientUnits="userSpaceOnUse">
<stop stop-color="#BABABA"/>
<stop offset="1" stop-color="#777777"/>
</linearGradient>
<linearGradient id="paint3_linear" x1="341.459" y1="187.677" x2="341.459" y2="294.211" gradientUnits="userSpaceOnUse">
<stop stop-color="#3C3C3C"/>
<stop offset="0.963542" stop-color="#737373"/>
</linearGradient>
<linearGradient id="paint4_linear" x1="391.809" y1="233.212" x2="391.809" y2="296.789" gradientUnits="userSpaceOnUse">
<stop stop-color="#696969"/>
<stop offset="1" stop-color="#A4A3A3"/>
<stop offset="1" stop-color="#AEAEAE"/>
</linearGradient>
<linearGradient id="paint5_linear" x1="392.269" y1="264.141" x2="392.269" y2="283.901" gradientUnits="userSpaceOnUse">
<stop stop-color="#656565"/>
<stop offset="1" stop-color="#707070"/>
</linearGradient>
<linearGradient id="paint6_linear" x1="392.269" y1="264.141" x2="392.269" y2="283.901" gradientUnits="userSpaceOnUse">
<stop stop-color="#656565"/>
<stop offset="1" stop-color="#707070"/>
</linearGradient>
<linearGradient id="paint7_linear" x1="611.214" y1="227.454" x2="611.214" y2="308.817" gradientUnits="userSpaceOnUse">
<stop stop-color="#2C2C2C"/>
<stop offset="0.973958"/>
</linearGradient>
<linearGradient id="paint8_linear" x1="262.009" y1="5.53721" x2="262.009" y2="228.916" gradientUnits="userSpaceOnUse">
<stop stop-color="#D5D4D4"/>
<stop offset="1" stop-color="#A9A9A9"/>
</linearGradient>
<linearGradient id="paint9_linear" x1="202.884" y1="229.775" x2="202.884" y2="301.084" gradientUnits="userSpaceOnUse">
<stop stop-color="#373737"/>
<stop offset="0.984375"/>
</linearGradient>
<linearGradient id="paint10_linear" x1="197.343" y1="248.676" x2="197.343" y2="329.436" gradientUnits="userSpaceOnUse">
<stop stop-color="#2A2A2A"/>
<stop offset="0.979167" stop-color="#282828"/>
</linearGradient>
<linearGradient id="paint11_linear" x1="197.785" y1="304.984" x2="204.209" y2="269.584" gradientUnits="userSpaceOnUse">
<stop stop-color="#C4C4C4"/>
<stop offset="1" stop-color="#4D4D4D"/>
</linearGradient>
<linearGradient id="paint12_linear" x1="620.453" y1="246.958" x2="620.453" y2="327.718" gradientUnits="userSpaceOnUse">
<stop stop-color="#2A2A2A"/>
<stop offset="0.979167" stop-color="#282828"/>
</linearGradient>
<linearGradient id="paint13_linear" x1="621.584" y1="304.984" x2="628.008" y2="269.584" gradientUnits="userSpaceOnUse">
<stop stop-color="#C4C4C4"/>
<stop offset="1" stop-color="#4D4D4D"/>
</linearGradient>
</defs>
</svg>
