<svg width="870" height="412" viewBox="0 0 870 412" fill="none" xmlns="http://www.w3.org/2000/svg">
<path d="M852.779 346.934V362.458V377.983V393.507V409.032H838.682H810.487H782.292H754.097H740V393.507V377.983V362.458V346.934V331.409V315.885V300.36V284.836H768.195H796.39H824.584H852.779V300.36V315.885V331.409V346.934Z" fill="#2E3E56"/>
<path d="M740 346.934V362.458M740 346.934V331.409M740 346.934H754.097M852.779 346.934V362.458M852.779 346.934V331.409M852.779 346.934H838.682M852.779 315.885V331.409M852.779 315.885V300.36M852.779 315.885H838.682M740 315.885V331.409M740 315.885V300.36M740 315.885H754.097M740 377.983V362.458M740 377.983V393.507M740 377.983H754.097M852.779 377.983V362.458M852.779 377.983V393.507M852.779 377.983H838.682M852.779 362.458H838.682M740 362.458H754.097M740 393.507V409.032H754.097M740 393.507H754.097M852.779 393.507V409.032H838.682M852.779 393.507H838.682M852.779 331.409H838.682M740 331.409H754.097M740 300.36V284.836H768.195M740 300.36H754.097M852.779 300.36V284.836H824.584M852.779 300.36H838.682M796.39 284.836V300.36M796.39 284.836H824.584M796.39 284.836H768.195M796.39 300.36H782.292M796.39 300.36H810.487M824.584 300.36V284.836M824.584 300.36H810.487M824.584 300.36H838.682M768.195 284.836V300.36M768.195 300.36H754.097M768.195 300.36H782.292M754.097 300.36V315.885M754.097 315.885H768.195M782.292 300.36V315.885M782.292 315.885H796.39M782.292 315.885H768.195M810.487 300.36V315.885M810.487 315.885H824.584M810.487 315.885H796.39M838.682 300.36V315.885M838.682 315.885H824.584M824.584 315.885V331.409M824.584 331.409H810.487M824.584 331.409H838.682M796.39 315.885V331.409M796.39 331.409H782.292M796.39 331.409H810.487M768.195 315.885V331.409M768.195 331.409H754.097M768.195 331.409H782.292M754.097 331.409V346.934M754.097 346.934H768.195M754.097 362.458V377.983M754.097 362.458H768.195M754.097 377.983H768.195M754.097 393.507V409.032M754.097 393.507H768.195M754.097 409.032H782.292M768.195 346.934V362.458M768.195 346.934H782.292M768.195 362.458H782.292M768.195 377.983V393.507M768.195 377.983H782.292M768.195 393.507H782.292M782.292 331.409V346.934M782.292 346.934H796.39M782.292 362.458V377.983M782.292 362.458H796.39M782.292 377.983H796.39M782.292 393.507V409.032M782.292 393.507H796.39M782.292 409.032H810.487M796.39 346.934V362.458M796.39 346.934H810.487M796.39 362.458H810.487M796.39 377.983V393.507M796.39 377.983H810.487M796.39 393.507H810.487M810.487 331.409V346.934M810.487 346.934H824.584M810.487 362.458V377.983M810.487 362.458H824.584M810.487 377.983H824.584M810.487 393.507V409.032M810.487 393.507H824.584M810.487 409.032H838.682M824.584 346.934V362.458M824.584 346.934H838.682M824.584 362.458H838.682M824.584 377.983V393.507M824.584 377.983H838.682M824.584 393.507H838.682M838.682 331.409V346.934M838.682 362.458V377.983M838.682 393.507V409.032" stroke="black"/>
<path d="M851.644 317.238V301.745V286.253L855.636 285.044L863.62 282.626L867.613 281.417V295.669V311.448V326.464V341.479V356.495V371.51V386.526V401.541L859.628 405.868L853.64 409.113L851.644 410.194V394.702V379.209V363.716V348.223V332.731V317.238Z" fill="#00112A" fill-opacity="0.77"/>
<path d="M851.644 348.223V332.731M851.644 348.223V363.716M851.644 348.223L853.64 347.38M867.613 341.479V326.464M867.613 341.479V356.495M867.613 341.479L865.617 342.322M851.644 317.238V301.745M851.644 317.238V332.731M851.644 317.238L853.64 316.514M867.613 311.448V295.669M867.613 311.448V326.464M867.613 311.448L865.617 312.172M851.644 301.745V286.253L855.636 285.044M851.644 301.745L853.64 300.986M867.613 295.669V281.417L863.62 282.626M867.613 295.669L865.617 296.429M851.644 332.731L853.64 331.947M867.613 326.464L865.617 327.247M851.644 379.209V363.716M851.644 379.209V394.702M851.644 379.209L853.64 378.246M867.613 371.51V356.495M867.613 371.51V386.526M867.613 371.51L865.617 372.473M851.644 363.716L853.64 362.813M867.613 356.495L865.617 357.397M851.644 394.702V410.194L853.64 409.113M851.644 394.702L853.64 393.68M867.613 386.526V401.541L859.628 405.868M867.613 386.526L865.617 387.548M859.628 405.868V390.614M859.628 405.868L853.64 409.113M859.628 390.614L855.636 392.658M859.628 390.614L863.62 388.57M859.628 375.36L859.734 360.058M859.628 375.36L855.636 377.284M859.628 375.36L863.62 373.435M859.628 344.851V329.597M859.628 344.851L855.636 346.537M859.628 344.851L863.62 343.165M859.628 329.597L855.636 331.164M859.628 329.597L863.62 328.03M859.628 314.343V298.707M859.628 314.343L855.636 315.79M859.628 314.343L863.62 312.896M859.628 298.707L855.636 300.226M859.628 298.707L863.62 297.188M855.636 300.226V285.044M855.636 300.226L853.64 300.986M855.636 285.044L863.62 282.626M855.636 315.79V331.164M855.636 315.79L853.64 316.514M855.636 331.164L853.64 331.947M855.636 346.537V361.911M855.636 346.537L853.64 347.38M855.636 361.911L863.62 358.3M855.636 361.911L853.64 362.813M855.636 377.284C855.636 383.09 855.636 394.293 855.636 392.658M855.636 377.284L853.64 378.246M855.636 392.658L853.64 393.68M863.62 388.57V373.435M863.62 388.57L865.617 387.548M863.62 373.435L865.617 372.473M863.62 358.3V343.165M863.62 358.3L865.617 357.397M863.62 343.165L865.617 342.322M863.62 328.03V312.896M863.62 328.03L865.617 327.247M863.62 312.896L865.617 312.172M863.62 297.188V282.626M863.62 297.188L865.617 296.429M853.64 347.38V331.947M853.64 316.514V300.986M865.617 296.429V312.172M865.617 327.247V342.322M853.64 362.813V378.246M865.617 357.397V372.473M853.64 393.68V409.113M865.617 387.548V402.559" stroke="black"/>
<path d="M808.613 331.41V300.615H833.565V331.41H808.613Z" fill="#000306" fill-opacity="0.77"/>
<path d="M808.613 383.328V352.533H833.565V383.328H808.613Z" fill="#000306" fill-opacity="0.77"/>
<path d="M755.218 331.41V300.615H780.169V331.41H755.218Z" fill="#000306" fill-opacity="0.77"/>
<path d="M755.218 383.328V352.533H780.169V383.328H755.218Z" fill="#000306" fill-opacity="0.77"/>
<path d="M808.613 331.41V300.615H833.565V331.41H808.613Z" stroke="black"/>
<path d="M808.613 383.328V352.533H833.565V383.328H808.613Z" stroke="black"/>
<path d="M755.218 331.41V300.615H780.169V331.41H755.218Z" stroke="black"/>
<path d="M755.218 383.328V352.533H780.169V383.328H755.218Z" stroke="black"/>
<path d="M869.001 280L853.033 284.836H740.503L757.719 280H869.001Z" fill="#00112A" fill-opacity="0.77" stroke="black"/>
<path d="M739.57 304.483V321.294V338.106V354.917V371.729H723.999H692.857H661.714H630.571H615V354.917V338.106V321.294V304.483V287.671V270.86V254.048V237.237H646.143H677.285H708.428H739.57V254.048V270.86V287.671V304.483Z" fill="#B8B8B8"/>
<path d="M615 304.483V321.294M615 304.483V287.671M615 304.483H630.571M739.57 304.483V321.294M739.57 304.483V287.671M739.57 304.483H723.999M739.57 270.86V287.671M739.57 270.86V254.048M739.57 270.86H723.999M615 270.86V287.671M615 270.86V254.048M615 270.86H630.571M615 338.106V321.294M615 338.106V354.917M615 338.106H630.571M739.57 338.106V321.294M739.57 338.106V354.917M739.57 338.106H723.999M739.57 321.294H723.999M615 321.294H630.571M615 354.917V371.729H630.571M615 354.917H630.571M739.57 354.917V371.729H723.999M739.57 354.917H723.999M739.57 287.671H723.999M615 287.671H630.571M615 254.048V237.237H646.143M615 254.048H630.571M739.57 254.048V237.237H708.428M739.57 254.048H723.999M677.285 237.237V254.048M677.285 237.237H708.428M677.285 237.237H646.143M677.285 254.048H661.714M677.285 254.048H692.857M708.428 254.048V237.237M708.428 254.048H692.857M708.428 254.048H723.999M646.143 237.237V254.048M646.143 254.048H630.571M646.143 254.048H661.714M630.571 254.048V270.86M630.571 270.86H646.143M661.714 254.048V270.86M661.714 270.86H677.285M661.714 270.86H646.143M692.857 254.048V270.86M692.857 270.86H708.428M692.857 270.86H677.285M723.999 254.048V270.86M723.999 270.86H708.428M708.428 270.86V287.671M708.428 287.671H692.857M708.428 287.671H723.999M677.285 270.86V287.671M677.285 287.671H661.714M677.285 287.671H692.857M646.143 270.86V287.671M646.143 287.671H630.571M646.143 287.671H661.714M630.571 287.671V304.483M630.571 304.483H646.143M630.571 321.294V338.106M630.571 321.294H646.143M630.571 338.106H646.143M630.571 354.917V371.729M630.571 354.917H646.143M630.571 371.729H661.714M646.143 304.483V321.294M646.143 304.483H661.714M646.143 321.294H661.714M646.143 338.106V354.917M646.143 338.106H661.714M646.143 354.917H661.714M661.714 287.671V304.483M661.714 304.483H677.285M661.714 321.294V338.106M661.714 321.294H677.285M661.714 338.106H677.285M661.714 354.917V371.729M661.714 354.917H677.285M661.714 371.729H692.857M677.285 304.483V321.294M677.285 304.483H692.857M677.285 321.294H692.857M677.285 338.106V354.917M677.285 338.106H692.857M677.285 354.917H692.857M692.857 287.671V304.483M692.857 304.483H708.428M692.857 321.294V338.106M692.857 321.294H708.428M692.857 338.106H708.428M692.857 354.917V371.729M692.857 354.917H708.428M692.857 371.729H723.999M708.428 304.483V321.294M708.428 304.483H723.999M708.428 321.294H723.999M708.428 338.106V354.917M708.428 338.106H723.999M708.428 354.917H723.999M723.999 287.671V304.483M723.999 321.294V338.106M723.999 354.917V371.729" stroke="black"/>
<path d="M739.847 271.066V254.289V237.512L744.256 236.203L753.075 233.585L757.485 232.276V247.709V264.796V281.057V297.317V313.577V329.837V346.098V362.358L748.666 367.043L742.051 370.557L739.847 371.728V354.951V338.174V321.397V304.62V287.843V271.066Z" fill="#8E8E8E"/>
<path d="M739.847 304.62V287.843M739.847 304.62V321.397M739.847 304.62L742.051 303.707M757.485 297.317V281.057M757.485 297.317V313.577M757.485 297.317L755.28 298.23M739.847 271.066V254.289M739.847 271.066V287.843M739.847 271.066L742.051 270.282M757.485 264.796V247.709M757.485 264.796V281.057M757.485 264.796L755.28 265.58M739.847 254.289V237.512L744.256 236.203M739.847 254.289L742.051 253.467M757.485 247.709V232.276L753.075 233.585M757.485 247.709L755.28 248.532M739.847 287.843L742.051 286.995M757.485 281.057L755.28 281.905M739.847 338.174V321.397M739.847 338.174V354.951M739.847 338.174L742.051 337.132M757.485 329.837V313.577M757.485 329.837V346.098M757.485 329.837L755.28 330.88M739.847 321.397L742.051 320.42M757.485 313.577L755.28 314.555M739.847 354.951V371.728L742.051 370.557M739.847 354.951L742.051 353.845M757.485 346.098V362.358L748.666 367.043M757.485 346.098L755.28 347.204M748.666 367.043V350.525M748.666 367.043L742.051 370.557M748.666 350.525L744.256 352.738M748.666 350.525L753.075 348.311M748.666 334.006L748.782 317.436M748.666 334.006L744.256 336.09M748.666 334.006L753.075 331.922M748.666 300.969V284.45M748.666 300.969L744.256 302.794M748.666 300.969L753.075 299.143M748.666 284.45L744.256 286.147M748.666 284.45L753.075 282.753M748.666 267.931V250.999M748.666 267.931L744.256 269.499M748.666 267.931L753.075 266.364M748.666 250.999L744.256 252.644M748.666 250.999L753.075 249.354M744.256 252.644V236.203M744.256 252.644L742.051 253.467M744.256 236.203L753.075 233.585M744.256 269.499V286.147M744.256 269.499L742.051 270.282M744.256 286.147L742.051 286.995M744.256 302.794V319.442M744.256 302.794L742.051 303.707M744.256 319.442L753.075 315.532M744.256 319.442L742.051 320.42M744.256 336.09C744.256 342.377 744.256 354.509 744.256 352.738M744.256 336.09L742.051 337.132M744.256 352.738L742.051 353.845M753.075 348.311V331.922M753.075 348.311L755.28 347.204M753.075 331.922L755.28 330.88M753.075 315.532V299.143M753.075 315.532L755.28 314.555M753.075 299.143L755.28 298.23M753.075 282.753V266.364M753.075 282.753L755.28 281.905M753.075 266.364L755.28 265.58M753.075 249.354V233.585M753.075 249.354L755.28 248.532M742.051 303.707V286.995M742.051 270.282V253.467M755.28 248.532V265.58M755.28 281.905V298.23M742.051 320.42V337.132M755.28 314.555V330.88M742.051 353.845V370.557M755.28 347.204V363.46" stroke="black"/>
<path d="M632.638 310.969V371.728H675.08V310.969H632.638Z" fill="#712F00" stroke="black"/>
<path d="M668.379 319.904H656.763V340.902H668.379V319.904Z" stroke="black"/>
<path d="M668.379 349.837H640.68V365.473H668.379V349.837Z" stroke="black"/>
<path d="M690.788 287.671V254.323H718.348V287.671H690.788Z" fill="#054580"/>
<path d="M690.788 343.893V310.546H718.348V343.893H690.788Z" fill="#054580"/>
<path d="M631.81 287.671V254.323H659.37V287.671H631.81Z" fill="#054580"/>
<path d="M690.788 287.671V254.323H718.348V287.671H690.788Z" stroke="black"/>
<path d="M690.788 343.893V310.546H718.348V343.893H690.788Z" stroke="black"/>
<path d="M631.81 287.671V254.323H659.37V287.671H631.81Z" stroke="black"/>
<path d="M757.485 232L739.847 237.236H615.552L634.568 232H757.485Z" fill="#B9B9B9" stroke="black"/>
<path d="M596.328 281.354V307.181V333.008V358.835V384.663H572.407H524.563H476.719H428.875H404.953V358.835V333.008V307.181V281.354V255.527V229.699V203.872V178.045H452.797H500.641H548.485H596.328V203.872V229.699V255.527V281.354Z" fill="#B8B8B8"/>
<path d="M404.953 281.354V307.181M404.953 281.354V255.527M404.953 281.354H428.875M596.328 281.354V307.181M596.328 281.354V255.527M596.328 281.354H572.407M596.328 229.699V255.527M596.328 229.699V203.872M596.328 229.699H572.407M404.953 229.699V255.527M404.953 229.699V203.872M404.953 229.699H428.875M404.953 333.008V307.181M404.953 333.008V358.835M404.953 333.008H428.875M596.328 333.008V307.181M596.328 333.008V358.835M596.328 333.008H572.407M596.328 307.181H572.407M404.953 307.181H428.875M404.953 358.835V384.663H428.875M404.953 358.835H428.875M596.328 358.835V384.663H572.407M596.328 358.835H572.407M596.328 255.527H572.407M404.953 255.527H428.875M404.953 203.872V178.045H452.797M404.953 203.872H428.875M596.328 203.872V178.045H548.485M596.328 203.872H572.407M500.641 178.045V203.872M500.641 178.045H548.485M500.641 178.045H452.797M500.641 203.872H476.719M500.641 203.872H524.563M548.485 203.872V178.045M548.485 203.872H524.563M548.485 203.872H572.407M452.797 178.045V203.872M452.797 203.872H428.875M452.797 203.872H476.719M428.875 203.872V229.699M428.875 229.699H452.797M476.719 203.872V229.699M476.719 229.699H500.641M476.719 229.699H452.797M524.563 203.872V229.699M524.563 229.699H548.485M524.563 229.699H500.641M572.407 203.872V229.699M572.407 229.699H548.485M548.485 229.699V255.527M548.485 255.527H524.563M548.485 255.527H572.407M500.641 229.699V255.527M500.641 255.527H476.719M500.641 255.527H524.563M452.797 229.699V255.527M452.797 255.527H428.875M452.797 255.527H476.719M428.875 255.527V281.354M428.875 281.354H452.797M428.875 307.181V333.008M428.875 307.181H452.797M428.875 333.008H452.797M428.875 358.835V384.663M428.875 358.835H452.797M428.875 384.663H476.719M452.797 281.354V307.181M452.797 281.354H476.719M452.797 307.181H476.719M452.797 333.008V358.835M452.797 333.008H476.719M452.797 358.835H476.719M476.719 255.527V281.354M476.719 281.354H500.641M476.719 307.181V333.008M476.719 307.181H500.641M476.719 333.008H500.641M476.719 358.835V384.663M476.719 358.835H500.641M476.719 384.663H524.563M500.641 281.354V307.181M500.641 281.354H524.563M500.641 307.181H524.563M500.641 333.008V358.835M500.641 333.008H524.563M500.641 358.835H524.563M524.563 255.527V281.354M524.563 281.354H548.485M524.563 307.181V333.008M524.563 307.181H548.485M524.563 333.008H548.485M524.563 358.835V384.663M524.563 358.835H548.485M524.563 384.663H572.407M548.485 281.354V307.181M548.485 281.354H572.407M548.485 307.181H572.407M548.485 333.008V358.835M548.485 333.008H572.407M548.485 358.835H572.407M572.407 255.527V281.354M572.407 307.181V333.008M572.407 358.835V384.663" stroke="black"/>
<path d="M596.753 230.016V204.242V178.468L603.527 176.456L617.076 172.434L623.85 170.423V194.133V220.384V245.364V270.345V295.325V320.305V345.286V370.266L610.302 377.464L600.14 382.862L596.753 384.662V358.887V333.113V307.339V281.565V255.79V230.016Z" fill="#8E8E8E"/>
<path d="M596.753 281.565V255.79M596.753 281.565V307.339M596.753 281.565L600.14 280.162M623.85 270.345V245.364M623.85 270.345V295.325M623.85 270.345L620.463 271.747M596.753 230.016V204.242M596.753 230.016V255.79M596.753 230.016L600.14 228.812M623.85 220.384V194.133M623.85 220.384V245.364M623.85 220.384L620.463 221.588M596.753 204.242V178.468L603.527 176.456M596.753 204.242L600.14 202.978M623.85 194.133V170.423L617.076 172.434M623.85 194.133L620.463 195.397M596.753 255.79L600.14 254.487M623.85 245.364L620.463 246.667M596.753 333.113V307.339M596.753 333.113V358.887M596.753 333.113L600.14 331.512M623.85 320.305V295.325M623.85 320.305V345.286M623.85 320.305L620.463 321.906M596.753 307.339L600.14 305.837M623.85 295.325L620.463 296.827M596.753 358.887V384.662L600.14 382.862M596.753 358.887L600.14 357.187M623.85 345.286V370.266L610.302 377.464M623.85 345.286L620.463 346.986M610.302 377.464V352.087M610.302 377.464L600.14 382.862M610.302 352.087L603.527 355.487M610.302 352.087L617.076 348.686M610.302 326.709L610.481 301.253M610.302 326.709L603.527 329.911M610.302 326.709L617.076 323.507M610.302 275.955V250.577M610.302 275.955L603.527 278.76M610.302 275.955L617.076 273.15M610.302 250.577L603.527 253.184M610.302 250.577L617.076 247.971M610.302 225.2V199.187M610.302 225.2L603.527 227.608M610.302 225.2L617.076 222.792M610.302 199.187L603.527 201.715M610.302 199.187L617.076 196.66M603.527 201.715V176.456M603.527 201.715L600.14 202.978M603.527 176.456L617.076 172.434M603.527 227.608V253.184M603.527 227.608L600.14 228.812M603.527 253.184L600.14 254.487M603.527 278.76V304.335M603.527 278.76L600.14 280.162M603.527 304.335L617.076 298.328M603.527 304.335L600.14 305.837M603.527 329.911C603.527 339.57 603.527 358.207 603.527 355.487M603.527 329.911L600.14 331.512M603.527 355.487L600.14 357.187M617.076 348.686V323.507M617.076 348.686L620.463 346.986M617.076 323.507L620.463 321.906M617.076 298.328V273.15M617.076 298.328L620.463 296.827M617.076 273.15L620.463 271.747M617.076 247.971V222.792M617.076 247.971L620.463 246.667M617.076 222.792L620.463 221.588M617.076 196.66V172.434M617.076 196.66L620.463 195.397M600.14 280.162V254.487M600.14 228.812V202.978M620.463 195.397V221.588M620.463 246.667V271.747M600.14 305.837V331.512M620.463 296.827V321.906M600.14 357.187V382.862M620.463 346.986V371.96" stroke="black"/>
<path d="M432.045 291.318V384.661H497.249V291.318H432.045Z" fill="#712F00" stroke="black"/>
<path d="M486.954 305.045H469.109V337.303H486.954V305.045Z" stroke="black"/>
<path d="M486.954 351.03H444.4V375.052H486.954V351.03Z" stroke="black"/>
<path d="M521.381 255.526V204.295H563.72V255.526H521.381Z" fill="#054580"/>
<path d="M521.381 341.899V290.668H563.72V341.899H521.381Z" fill="#054580"/>
<path d="M430.774 255.526V204.295H473.113V255.526H430.774Z" fill="#054580"/>
<path d="M521.381 255.526V204.295H563.72V255.526H521.381Z" stroke="black"/>
<path d="M521.381 341.899V290.668H563.72V341.899H521.381Z" stroke="black"/>
<path d="M430.774 255.526V204.295H473.113V255.526H430.774Z" stroke="black"/>
<path d="M623.855 170L596.758 178.045H405.806L435.02 170H623.855Z" fill="#B9B9B9" stroke="black"/>
<path d="M48.9248 330.886V337.353V343.821V350.289V356.756H42.9342H30.953H18.9718H6.9906H1V350.289V343.821V337.353V330.886V324.418V317.95V311.482V305.015H12.9812H24.9624H36.9436H48.9248V311.482V317.95V324.418V330.886Z" fill="#B8B8B8"/>
<path d="M1 330.886V337.353M1 330.886V324.418M1 330.886H6.9906M48.9248 330.886V337.353M48.9248 330.886V324.418M48.9248 330.886H42.9342M48.9248 317.95V324.418M48.9248 317.95V311.482M48.9248 317.95H42.9342M1 317.95V324.418M1 317.95V311.482M1 317.95H6.9906M1 343.821V337.353M1 343.821V350.289M1 343.821H6.9906M48.9248 343.821V337.353M48.9248 343.821V350.289M48.9248 343.821H42.9342M48.9248 337.353H42.9342M1 337.353H6.9906M1 350.289V356.756H6.9906M1 350.289H6.9906M48.9248 350.289V356.756H42.9342M48.9248 350.289H42.9342M48.9248 324.418H42.9342M1 324.418H6.9906M1 311.482V305.015H12.9812M1 311.482H6.9906M48.9248 311.482V305.015H36.9436M48.9248 311.482H42.9342M24.9624 305.015V311.482M24.9624 305.015H36.9436M24.9624 305.015H12.9812M24.9624 311.482H18.9718M24.9624 311.482H30.953M36.9436 311.482V305.015M36.9436 311.482H30.953M36.9436 311.482H42.9342M12.9812 305.015V311.482M12.9812 311.482H6.9906M12.9812 311.482H18.9718M6.9906 311.482V317.95M6.9906 317.95H12.9812M18.9718 311.482V317.95M18.9718 317.95H24.9624M18.9718 317.95H12.9812M30.953 311.482V317.95M30.953 317.95H36.9436M30.953 317.95H24.9624M42.9342 311.482V317.95M42.9342 317.95H36.9436M36.9436 317.95V324.418M36.9436 324.418H30.953M36.9436 324.418H42.9342M24.9624 317.95V324.418M24.9624 324.418H18.9718M24.9624 324.418H30.953M12.9812 317.95V324.418M12.9812 324.418H6.9906M12.9812 324.418H18.9718M6.9906 324.418V330.886M6.9906 330.886H12.9812M6.9906 337.353V343.821M6.9906 337.353H12.9812M6.9906 343.821H12.9812M6.9906 350.289V356.756M6.9906 350.289H12.9812M6.9906 356.756H18.9718M12.9812 330.886V337.353M12.9812 330.886H18.9718M12.9812 337.353H18.9718M12.9812 343.821V350.289M12.9812 343.821H18.9718M12.9812 350.289H18.9718M18.9718 324.418V330.886M18.9718 330.886H24.9624M18.9718 337.353V343.821M18.9718 337.353H24.9624M18.9718 343.821H24.9624M18.9718 350.289V356.756M18.9718 350.289H24.9624M18.9718 356.756H30.953M24.9624 330.886V337.353M24.9624 330.886H30.953M24.9624 337.353H30.953M24.9624 343.821V350.289M24.9624 343.821H30.953M24.9624 350.289H30.953M30.953 324.418V330.886M30.953 330.886H36.9436M30.953 337.353V343.821M30.953 337.353H36.9436M30.953 343.821H36.9436M30.953 350.289V356.756M30.953 350.289H36.9436M30.953 356.756H42.9342M36.9436 330.886V337.353M36.9436 330.886H42.9342M36.9436 337.353H42.9342M36.9436 343.821V350.289M36.9436 343.821H42.9342M36.9436 350.289H42.9342M42.9342 324.418V330.886M42.9342 337.353V343.821M42.9342 350.289V356.756" stroke="black"/>
<path d="M49.031 318.03V311.575V305.121L50.7275 304.617L54.1204 303.61L55.8168 303.106V309.044V315.617V321.873V328.129V334.384V340.64V346.896V353.151L52.4239 354.954L49.8792 356.306L49.031 356.756V350.302V343.847V337.393V330.938V324.484V318.03Z" fill="#8E8E8E"/>
<path d="M49.031 330.938V324.484M49.031 330.938V337.393M49.031 330.938L49.8792 330.587M55.8168 328.129V321.873M55.8168 328.129V334.384M55.8168 328.129L54.9686 328.48M49.031 318.03V311.575M49.031 318.03V324.484M49.031 318.03L49.8792 317.728M55.8168 315.617V309.044M55.8168 315.617V321.873M55.8168 315.617L54.9686 315.919M49.031 311.575V305.121L50.7275 304.617M49.031 311.575L49.8792 311.259M55.8168 309.044V303.106L54.1204 303.61M55.8168 309.044L54.9686 309.36M49.031 324.484L49.8792 324.158M55.8168 321.873L54.9686 322.199M49.031 343.847V337.393M49.031 343.847V350.302M49.031 343.847L49.8792 343.447M55.8168 340.64V334.384M55.8168 340.64V346.896M55.8168 340.64L54.9686 341.041M49.031 337.393L49.8792 337.017M55.8168 334.384L54.9686 334.76M49.031 350.302V356.756L49.8792 356.306M49.031 350.302L49.8792 349.876M55.8168 346.896V353.151L52.4239 354.954M55.8168 346.896L54.9686 347.322M52.4239 354.954V348.599M52.4239 354.954L49.8792 356.306M52.4239 348.599L50.7275 349.45M52.4239 348.599L54.1204 347.747M52.4239 342.244L52.4687 335.869M52.4239 342.244L50.7275 343.046M52.4239 342.244L54.1204 341.442M52.4239 329.534V323.179M52.4239 329.534L50.7275 330.236M52.4239 329.534L54.1204 328.831M52.4239 323.179L50.7275 323.831M52.4239 323.179L54.1204 322.526M52.4239 316.823V310.309M52.4239 316.823L50.7275 317.427M52.4239 316.823L54.1204 316.22M52.4239 310.309L50.7275 310.942M52.4239 310.309L54.1204 309.677M50.7275 310.942V304.617M50.7275 310.942L49.8792 311.259M50.7275 304.617L54.1204 303.61M50.7275 317.427V323.831M50.7275 317.427L49.8792 317.728M50.7275 323.831L49.8792 324.158M50.7275 330.236V336.641M50.7275 330.236L49.8792 330.587M50.7275 336.641L54.1204 335.137M50.7275 336.641L49.8792 337.017M50.7275 343.046C50.7275 345.464 50.7275 350.132 50.7275 349.45M50.7275 343.046L49.8792 343.447M50.7275 349.45L49.8792 349.876M54.1204 347.747V341.442M54.1204 347.747L54.9686 347.322M54.1204 341.442L54.9686 341.041M54.1204 335.137V328.831M54.1204 335.137L54.9686 334.76M54.1204 328.831L54.9686 328.48M54.1204 322.526V316.22M54.1204 322.526L54.9686 322.199M54.1204 316.22L54.9686 315.919M54.1204 309.677V303.61M54.1204 309.677L54.9686 309.36M49.8792 330.587V324.158M49.8792 317.728V311.259M54.9686 309.36V315.919M54.9686 322.199V328.48M49.8792 337.017V343.447M54.9686 334.76V341.041M49.8792 349.876V356.306M54.9686 347.322V353.576" stroke="black"/>
<path d="M7.78564 333.381V356.756H24.114V333.381H7.78564Z" fill="#712F00" stroke="black"/>
<path d="M21.5363 336.818H17.0675V344.897H21.5363V336.818Z" stroke="black"/>
<path d="M21.5363 348.334H10.8799V354.35H21.5363V348.334Z" stroke="black"/>
<path d="M30.1573 324.418V311.588H40.7601V324.418H30.1573Z" fill="#054580"/>
<path d="M30.1573 346.047V333.218H40.7601V346.047H30.1573Z" fill="#054580"/>
<path d="M7.46722 324.418V311.588H18.07V324.418H7.46722Z" fill="#054580"/>
<path d="M30.1573 324.418V311.588H40.7601V324.418H30.1573Z" stroke="black"/>
<path d="M30.1573 346.047V333.218H40.7601V346.047H30.1573Z" stroke="black"/>
<path d="M7.46722 324.418V311.588H18.07V324.418H7.46722Z" stroke="black"/>
<path d="M55.8168 303L49.031 305.015H1.21228L8.52823 303H55.8168Z" fill="#B9B9B9" stroke="black"/>
<path d="M404.893 200.049V246.217V292.384V338.551V384.718H362.132H276.609H191.086H105.563H62.8018V338.551V292.384V246.217V200.049V153.882V107.715V61.5477V15.3805H148.325H233.848H319.371H404.893V61.5477V107.715V153.882V200.049Z" fill="#B8B8B8"/>
<path d="M62.8018 200.049V246.217M62.8018 200.049V153.882M62.8018 200.049H105.563M404.893 200.049V246.217M404.893 200.049V153.882M404.893 200.049H362.132M404.893 107.715V153.882M404.893 107.715V61.5477M404.893 107.715H362.132M62.8018 107.715V153.882M62.8018 107.715V61.5477M62.8018 107.715H105.563M62.8018 292.384V246.217M62.8018 292.384V338.551M62.8018 292.384H105.563M404.893 292.384V246.217M404.893 292.384V338.551M404.893 292.384H362.132M404.893 246.217H362.132M62.8018 246.217H105.563M62.8018 338.551V384.718H105.563M62.8018 338.551H105.563M404.893 338.551V384.718H362.132M404.893 338.551H362.132M404.893 153.882H362.132M62.8018 153.882H105.563M62.8018 61.5477V15.3805H148.325M62.8018 61.5477H105.563M404.893 61.5477V15.3805H319.371M404.893 61.5477H362.132M233.848 15.3805V61.5477M233.848 15.3805H319.371M233.848 15.3805H148.325M233.848 61.5477H191.086M233.848 61.5477H276.609M319.371 61.5477V15.3805M319.371 61.5477H276.609M319.371 61.5477H362.132M148.325 15.3805V61.5477M148.325 61.5477H105.563M148.325 61.5477H191.086M105.563 61.5477V107.715M105.563 107.715H148.325M191.086 61.5477V107.715M191.086 107.715H233.848M191.086 107.715H148.325M276.609 61.5477V107.715M276.609 107.715H319.371M276.609 107.715H233.848M362.132 61.5477V107.715M362.132 107.715H319.371M319.371 107.715V153.882M319.371 153.882H276.609M319.371 153.882H362.132M233.848 107.715V153.882M233.848 153.882H191.086M233.848 153.882H276.609M148.325 107.715V153.882M148.325 153.882H105.563M148.325 153.882H191.086M105.563 153.882V200.049M105.563 200.049H148.325M105.563 246.217V292.384M105.563 246.217H148.325M105.563 292.384H148.325M105.563 338.551V384.718M105.563 338.551H148.325M105.563 384.718H191.086M148.325 200.049V246.217M148.325 200.049H191.086M148.325 246.217H191.086M148.325 292.384V338.551M148.325 292.384H191.086M148.325 338.551H191.086M191.086 153.882V200.049M191.086 200.049H233.848M191.086 246.217V292.384M191.086 246.217H233.848M191.086 292.384H233.848M191.086 338.551V384.718M191.086 338.551H233.848M191.086 384.718H276.609M233.848 200.049V246.217M233.848 200.049H276.609M233.848 246.217H276.609M233.848 292.384V338.551M233.848 292.384H276.609M233.848 338.551H276.609M276.609 153.882V200.049M276.609 200.049H319.371M276.609 246.217V292.384M276.609 246.217H319.371M276.609 292.384H319.371M276.609 338.551V384.718M276.609 338.551H319.371M276.609 384.718H362.132M319.371 200.049V246.217M319.371 200.049H362.132M319.371 246.217H362.132M319.371 292.384V338.551M319.371 292.384H362.132M319.371 338.551H362.132M362.132 153.882V200.049M362.132 246.217V292.384M362.132 338.551V384.718" stroke="black"/>
<path d="M405.65 108.282V62.2098V16.1372L417.759 12.5422L441.978 5.35219L454.087 1.7572V44.1402V91.0643V135.718V180.371V225.025V269.679V314.332V358.986L429.869 371.852L411.704 381.502L405.65 384.718V338.646V292.573V246.5V200.428V154.355V108.282Z" fill="#8E8E8E"/>
<path d="M405.65 200.428V154.355M405.65 200.428V246.5M405.65 200.428L411.704 197.921M454.087 180.371V135.718M454.087 180.371V225.025M454.087 180.371L448.033 182.878M405.65 108.282V62.2098M405.65 108.282V154.355M405.65 108.282L411.704 106.13M454.087 91.0643V44.1402M454.087 91.0643V135.718M454.087 91.0643L448.033 93.2166M405.65 62.2098V16.1372L417.759 12.5422M405.65 62.2098L411.704 59.9511M454.087 44.1402V1.7572L441.978 5.35219M454.087 44.1402L448.033 46.3989M405.65 154.355L411.704 152.025M454.087 135.718L448.033 138.048M405.65 292.573V246.5M405.65 292.573V338.646M405.65 292.573L411.704 289.711M454.087 269.679V225.025M454.087 269.679V314.332M454.087 269.679L448.033 272.54M405.65 246.5L411.704 243.816M454.087 225.025L448.033 227.709M405.65 338.646V384.718L411.704 381.502M405.65 338.646L411.704 335.606M454.087 314.332V358.986L429.869 371.852M454.087 314.332L448.033 317.371M429.869 371.852V326.489M429.869 371.852L411.704 381.502M429.869 326.489L417.759 332.567M429.869 326.489L441.978 320.41M429.869 281.126L430.189 235.621M429.869 281.126L417.759 286.849M429.869 281.126L441.978 275.402M429.869 190.4V145.036M429.869 190.4L417.759 195.414M429.869 190.4L441.978 185.386M429.869 145.036L417.759 149.696M429.869 145.036L441.978 140.377M429.869 99.6734V53.175M429.869 99.6734L417.759 103.978M429.869 99.6734L441.978 95.3688M429.869 53.175L417.759 57.6924M429.869 53.175L441.978 48.6576M417.759 57.6924V12.5422M417.759 57.6924L411.704 59.9511M417.759 12.5422L441.978 5.35219M417.759 103.978V149.696M417.759 103.978L411.704 106.13M417.759 149.696L411.704 152.025M417.759 195.414V241.132M417.759 195.414L411.704 197.921M417.759 241.132L441.978 230.394M417.759 241.132L411.704 243.816M417.759 286.849C417.759 304.115 417.759 337.43 417.759 332.567M417.759 286.849L411.704 289.711M417.759 332.567L411.704 335.606M441.978 320.41V275.402M441.978 320.41L448.033 317.371M441.978 275.402L448.033 272.54M441.978 230.394V185.386M441.978 230.394L448.033 227.709M441.978 185.386L448.033 182.878M441.978 140.377V95.3688M441.978 140.377L448.033 138.048M441.978 95.3688L448.033 93.2166M441.978 48.6576V5.35219M441.978 48.6576L448.033 46.3989M411.704 197.921V152.025M411.704 106.13V59.9511M448.033 46.3989V93.2166M448.033 138.048V182.878M411.704 243.816V289.711M448.033 227.709V272.54M411.704 335.606V381.502M448.033 317.371V362.013" stroke="black"/>
<path d="M111.242 217.862V384.718H227.795V217.862H111.242Z" fill="#712F00" stroke="black"/>
<path d="M209.392 242.4H177.494V300.063H209.392V242.4Z" stroke="black"/>
<path d="M209.392 324.601H133.326V367.542H209.392V324.601Z" stroke="black"/>
<path d="M270.93 153.881V62.3037H346.614V153.881H270.93Z" fill="#054580"/>
<path d="M270.93 308.277V216.699H346.614V308.277H270.93Z" fill="#054580"/>
<path d="M108.966 153.881V62.3037H184.65V153.881H108.966Z" fill="#054580"/>
<path d="M270.93 153.881V62.3037H346.614V153.881H270.93Z" stroke="black"/>
<path d="M270.93 308.277V216.699H346.614V308.277H270.93Z" stroke="black"/>
<path d="M108.966 153.881V62.3037H184.65V153.881H108.966Z" stroke="black"/>
<path d="M454.086 1L405.648 15.38H64.3134L116.535 1H454.086Z" fill="#B9B9B9" stroke="black"/>
</svg>
