<svg width="11830" height="486" viewBox="0 0 11830 486" fill="none" xmlns="http://www.w3.org/2000/svg">
<path d="M2943.25 185.017C3200.5 150.089 3336.27 159.549 3372 174.102V487H1657L1673 247.5C1705.98 249.926 1779.03 242.321 1871.38 236.5C1986.81 229.223 2061.01 185.017 2283.63 185.017C2506.25 185.017 2621.69 228.677 2943.25 185.017Z" fill="url(#paint0_linear)" stroke="black"/>
<path d="M2575.9 201.079L2564.55 234.24L2583 220.352L2564.55 240.476H2552.06L2539 214.967L2555.18 237.358L2552.06 211.85L2556.88 234.24V197.395L2559.72 231.973L2566.54 210.149L2562.56 229.705L2575.9 201.079Z" fill="#135E3E" stroke="black"/>
<path d="M2351.19 279.542L2341.9 306.534L2357 295.23L2341.9 311.609H2331.68L2321 290.846L2334.24 309.071L2331.68 288.309L2335.63 306.534V276.543L2337.95 304.688L2343.53 286.925L2340.28 302.843L2351.19 279.542Z" fill="#135E3E" stroke="black"/>
<path d="M3107.5 246.988L3087.5 305.598L3120 281.052L3087.5 316.618H3065.5L3042.5 271.534L3071 311.108L3065.5 266.024L3074 305.598V240.476L3079 301.59L3091 263.018L3084 297.583L3107.5 246.988Z" fill="#135E3E" stroke="black"/>
<path d="M2858.5 244.984L2838.5 303.594L2871 279.048L2838.5 314.615H2816.5L2793.5 269.53L2822 309.104L2816.5 264.02L2825 303.594V238.472L2830 299.586L2842 261.014L2835 295.579L2858.5 244.984Z" fill="#135E3E" stroke="black"/>
<path d="M3294.26 197.414L3281.87 233.66L3302 218.48L3281.87 240.476H3268.25L3254 212.594L3271.65 237.068L3268.25 209.187L3273.51 233.66V193.387L3276.61 231.182L3284.04 207.328L3279.7 228.703L3294.26 197.414Z" fill="#135E3E" stroke="black"/>
<path d="M3204 223.267L3190.04 238.943L3173.61 250.494L3158 233.993L3173.61 238.943V208.415L3181 238.943L3204 223.267Z" fill="#00742E" stroke="black"/>
<path d="M3130 186.374L3124.23 192.719L3117.45 197.395L3111 190.716L3117.45 192.719V180.363L3120.5 192.719L3130 186.374Z" fill="#00742E" stroke="black"/>
<path d="M3288 293.575L3282.23 299.92L3275.45 304.596L3269 297.917L3275.45 299.92V287.564L3278.5 299.92L3288 293.575Z" fill="#00742E" stroke="black"/>
<path d="M3223 182.367L3217.23 188.712L3210.45 193.387L3204 186.708L3210.45 188.712V176.355L3213.5 188.712L3223 182.367Z" fill="#00742E" stroke="black"/>
<path d="M1522.37 230.634C1597.89 217.161 1654.26 236.248 1673 247.476L1672 487H-8V292.386C40.8701 277.416 151.464 247.476 202.878 247.476C267.146 247.476 476.016 258.703 548.317 275.545C620.618 292.386 785.303 260.575 849.571 247.476C913.839 234.377 1094.59 260.575 1186.98 275.545C1279.36 290.515 1427.98 247.476 1522.37 230.634Z" fill="url(#paint1_linear)" stroke="black"/>
<path d="M4677 103.208C4808.2 119.571 4950.33 146.387 4989 157.75V485H4165V222.518C4175.67 211.155 4221.8 182.294 4321 157.75C4445 127.07 4513 82.7549 4677 103.208Z" fill="url(#paint2_linear)" stroke="black"/>
<path d="M4631.5 160.5V151.5L4627.5 157.5L4624.5 142C4624.5 150.167 4624.5 165.9 4624.5 163.5C4624.5 161.1 4621.17 154.5 4619.5 151.5V160.5M4531 190.5L4537.5 182.5L4525.5 190.5L4523.5 184L4520.5 190.5L4513 174.5L4518 190.5M4737.5 199C4738.5 196.333 4738.9 191.5 4732.5 193.5C4726.1 195.5 4726.5 199.667 4727.5 201.5C4727.67 195.5 4727.1 184.5 4723.5 188.5C4719.9 192.5 4720 198.833 4720.5 201.5C4720.67 197 4719.8 189.1 4715 193.5C4710.2 197.9 4710.67 200.667 4711.5 201.5M4471.5 217.5L4474.5 208L4465.5 215V210.5L4459 217.5L4455 198.5V217.5M4570.5 223V210.5L4565.5 217.5L4560.5 210.5V226.5M4410.5 170L4421 158.5L4406.5 170V158.5L4402.5 170M4347 209L4359.5 194L4343 205.5L4339.5 194V209L4330 202L4336.5 214.5M4406.5 221.5L4417 210.5L4406.5 215V210.5L4398 221.5L4394 210.5V221.5M4482 164V155L4478 164L4474.5 133V164M4563.5 149.5L4570.5 142L4558 149.5L4552.5 133V149.5H4547.5L4552.5 155" stroke="black"/>
<path d="M4772.24 225.452C4891.4 208.329 5017.73 149.349 5066 122V485H3366V172C3450 173.5 3626.18 174.083 3758.58 154.106C3924.08 129.135 4039.92 186.212 4118.53 200.481C4197.15 214.75 4623.3 246.856 4772.24 225.452Z" fill="url(#paint3_linear)" stroke="black"/>
<path d="M4417.88 302L4405.73 319.5L4399.15 322.5L4395.11 296L4402.19 316.5L4405.73 302V316.5L4417.88 302Z" fill="#117102" stroke="black"/>
<path d="M4602.55 276L4590.4 293.5L4583.83 296.5L4579.78 270L4586.86 290.5L4590.4 276V290.5L4602.55 276Z" fill="#117102" stroke="black"/>
<path d="M4227.13 329L4214.99 346.5L4208.41 349.5L4204.36 323L4211.45 343.5L4214.99 329V343.5L4227.13 329Z" fill="#117102" stroke="black"/>
<path d="M4306.06 273L4293.92 290.5L4287.34 293.5L4283.29 267L4290.38 287.5L4293.92 273V287.5L4306.06 273Z" fill="#117102" stroke="black"/>
<path d="M3779.87 225.5L3759.63 284L3792.52 259.5L3759.63 295H3737.37L3714.09 250L3742.93 289.5L3737.37 244.5L3745.97 284V219L3751.03 280L3763.17 241.5L3756.09 276L3779.87 225.5Z" fill="#135E3E" stroke="black"/>
<path d="M3387.51 349.454L3383.07 362.539L3390.29 357.059L3383.07 365H3378.19L3373.08 354.934L3379.41 363.77L3378.19 353.704L3380.08 362.539V348L3381.19 361.645L3383.85 353.033L3382.29 360.75L3387.51 349.454Z" fill="#135E3E" stroke="black"/>
<path d="M3635.43 279.454L3630.99 292.539L3638.2 287.059L3630.99 295H3626.1L3621 284.934L3627.33 293.77L3626.1 283.704L3627.99 292.539V278L3629.1 291.645L3631.77 283.033L3630.21 290.75L3635.43 279.454Z" fill="#135E3E" stroke="black"/>
<path d="M3504.89 299.02L3492.36 335.197L3512.73 320.046L3492.36 342H3478.57L3464.15 314.171L3482.02 338.599L3478.57 310.77L3483.9 335.197V295L3487.03 332.724L3494.55 308.914L3490.16 330.25L3504.89 299.02Z" fill="#135E3E" stroke="black"/>
<path d="M3937.99 176.02L3925.45 212.197L3945.82 197.046L3925.45 219H3911.66L3897.25 191.171L3915.11 215.599L3911.66 187.77L3916.99 212.197V172L3920.13 209.724L3927.65 185.914L3923.26 207.25L3937.99 176.02Z" fill="#135E3E" stroke="black"/>
<path d="M4002.75 287.02L3990.21 323.197L4010.58 308.046L3990.21 330H3976.43L3962.01 302.171L3979.87 326.599L3976.43 298.77L3981.75 323.197V283L3984.89 320.724L3992.41 296.914L3988.02 318.25L4002.75 287.02Z" fill="#135E3E" stroke="black"/>
<path d="M4124.18 237.02L4111.64 273.197L4132.01 258.046L4111.64 280H4097.86L4083.44 252.171L4101.3 276.599L4097.86 248.77L4103.18 273.197V233L4106.32 270.724L4113.84 246.914L4109.45 268.25L4124.18 237.02Z" fill="#135E3E" stroke="black"/>
<path d="M3638.2 332L3621 351L3600.76 365L3581.54 345L3600.76 351V314L3609.87 351L3638.2 332Z" fill="#00742E" stroke="black"/>
<path d="M3737.37 328.824L3723.24 344.471L3706.61 356L3690.82 339.529L3706.61 344.471V314L3714.1 344.471L3737.37 328.824Z" fill="#00742E" stroke="black"/>
<path d="M3573.44 267.824L3559.31 283.471L3542.69 295L3526.89 278.529L3542.69 283.471V253L3550.17 283.471L3573.44 267.824Z" fill="#00742E" stroke="black"/>
<path d="M3684.75 250L3678.91 256.333L3672.05 261L3665.52 254.333L3672.05 256.333V244L3675.14 256.333L3684.75 250Z" fill="#00742E" stroke="black"/>
<path d="M3600.76 225L3594.93 231.333L3588.06 236L3581.54 229.333L3588.06 231.333V219L3591.15 231.333L3600.76 225Z" fill="#00742E" stroke="black"/>
<path d="M3675.64 201.765L3672.57 203.627L3668.96 205L3665.52 203.039L3668.96 203.627V200L3670.58 203.627L3675.64 201.765Z" fill="#00742E" stroke="black"/>
<path d="M3435.82 304.765L3432.75 306.627L3429.14 308L3425.7 306.039L3429.14 306.627V303L3430.76 306.627L3435.82 304.765Z" fill="#00742E" stroke="black"/>
<path d="M3517.79 215.765L3514.71 217.627L3511.1 219L3507.67 217.039L3511.1 217.627V214L3512.73 217.627L3517.79 215.765Z" fill="#00742E" stroke="black"/>
<path d="M3873.98 291.765L3870.9 293.627L3867.29 295L3863.86 293.039L3867.29 293.627V290L3868.92 293.627L3873.98 291.765Z" fill="#00742E" stroke="black"/>
<path d="M4010.58 234.765L4007.51 236.627L4003.9 238L4000.46 236.039L4003.9 236.627V233L4005.52 236.627L4010.58 234.765Z" fill="#00742E" stroke="black"/>
<path d="M4203.86 281.765L4200.79 283.627L4197.17 285L4193.74 283.039L4197.17 283.627V280L4198.8 283.627L4203.86 281.765Z" fill="#00742E" stroke="black"/>
<path d="M3560.29 329L3554.45 335.333L3547.58 340L3541.06 333.333L3547.58 335.333V323L3550.67 335.333L3560.29 329Z" fill="#00742E" stroke="black"/>
<path d="M3855.76 216L3849.93 222.333L3843.06 227L3836.54 220.333L3843.06 222.333V210L3846.15 222.333L3855.76 216Z" fill="#00742E" stroke="black"/>
<path d="M3811.24 345L3805.4 351.333L3798.54 356L3792.01 349.333L3798.54 351.333V339L3801.63 351.333L3811.24 345Z" fill="#00742E" stroke="black"/>
<path d="M3772.79 168L3766.95 174.333L3760.08 179L3753.56 172.333L3760.08 174.333V162L3763.17 174.333L3772.79 168Z" fill="#00742E" stroke="black"/>
<path d="M3444.93 233L3439.09 239.333L3432.23 244L3425.7 237.333L3432.23 239.333V227L3435.32 239.333L3444.93 233Z" fill="#00742E" stroke="black"/>
<path d="M3373.5 175L3358.5 172L3352.5 348H3373.5V175Z" fill="#3A7251"/>
<path d="M6497 47.3522C6548.69 36.7668 6717.89 65.3481 6765 156.5V486.5H5066V115.67C5066 168.562 5125 170.766 5189 47.3522C5230.8 -33.2584 5256.62 7.65696 5349.5 47.3522C5442.38 87.0473 5538.46 212.419 5599.03 190.366C5659.6 168.314 5826.24 66.8703 5907 84.5126C5987.76 102.155 6166 258.936 6218.5 232.472C6271 206.009 6432.39 60.5839 6497 47.3522Z" fill="#D3CA9F" stroke="black"/>
<path d="M5052.5 91C5045.3 88.2 5035.17 122.833 5031 140.5L5040 191.5L5073 148.5L5065.5 105C5064.17 101.5 5059.7 93.8 5052.5 91Z" fill="#D3CA9F" stroke="black"/>
<path d="M5035 139L5013.5 150.5L5027.61 472.146L5074 487L5075 145L5068.92 136L5035 139Z" fill="#D3CA9F"/>
<path d="M7136 180.185C7004.8 193.334 6894.67 214.885 6856 224.016L6824 487H7648V276.065C7637.33 266.933 7591.2 243.74 7492 224.016C7368 199.361 7300 163.749 7136 180.185Z" fill="url(#paint4_linear)" stroke="black"/>
<path d="M7158.5 207.846V201.682L7162.5 205.791L7165.5 195.176C7165.5 200.769 7165.5 211.544 7165.5 209.9C7165.5 208.257 7168.83 203.737 7170.5 201.682V207.846M7259 228.391L7252.5 222.913L7264.5 228.391L7266.5 223.94L7269.5 228.391L7277 217.434L7272 228.391M7052.5 234.213C7051.5 232.386 7051.1 229.076 7057.5 230.446C7063.9 231.816 7063.5 234.669 7062.5 235.925C7062.33 231.816 7062.9 224.282 7066.5 227.022C7070.1 229.761 7070 234.098 7069.5 235.925C7069.33 232.843 7070.2 227.433 7075 230.446C7079.8 233.459 7079.33 235.354 7078.5 235.925M7318.5 246.882L7315.5 240.376L7324.5 245.17V242.088L7331 246.882L7335 233.87V246.882M7219.5 250.649V242.088L7224.5 246.882L7229.5 242.088V253.046M7379.5 214.352L7369 206.476L7383.5 214.352V206.476L7387.5 214.352M7443 241.061L7430.5 230.788L7447 238.664L7450.5 230.788V241.061L7460 236.267L7453.5 244.828M7383.5 249.622L7373 242.088L7383.5 245.17V242.088L7392 249.622L7396 242.088V249.622M7308 210.243V204.079L7312 210.243L7315.5 189.012V210.243M7226.5 200.312L7219.5 195.176L7232 200.312L7237.5 189.012V200.312H7242.5L7237.5 204.079" stroke="black"/>
<path d="M7046.62 286.962C6929.14 274.223 6803.09 160.846 6755.5 140.5L6757 486H8458V268.385C8375.06 263.077 8176.54 248.746 8046.01 233.885C7882.84 215.308 7768.63 257.769 7691.12 268.385C7613.62 279 7193.47 302.885 7046.62 286.962Z" fill="url(#paint5_linear)" stroke="black"/>
<path d="M7385.23 360L7397.25 377.5L7403.75 380.5L7407.76 354L7400.75 374.5L7397.25 360V374.5L7385.23 360Z" fill="#117102" stroke="black"/>
<path d="M7202.52 334L7214.53 351.5L7221.04 354.5L7225.05 328L7218.04 348.5L7214.53 334V348.5L7202.52 334Z" fill="#117102" stroke="black"/>
<path d="M7573.95 387L7585.97 404.5L7592.47 407.5L7596.48 381L7589.47 401.5L7585.97 387V401.5L7573.95 387Z" fill="#117102" stroke="black"/>
<path d="M7495.86 331L7507.87 348.5L7514.38 351.5L7518.39 325L7511.38 345.5L7507.87 331V345.5L7495.86 331Z" fill="#117102" stroke="black"/>
<path d="M8016.47 283.5L8036.49 342L8003.95 317.5L8036.49 353H8058.52L8081.54 308L8053.01 347.5L8058.52 302.5L8050.01 342V277L8045 338L8032.99 299.5L8039.99 334L8016.47 283.5Z" fill="#135E3E" stroke="black"/>
<path d="M8159.38 337.454L8163.77 350.539L8156.63 345.059L8163.77 353H8168.6L8173.65 342.934L8167.39 351.77L8168.6 341.704L8166.73 350.539V336L8165.63 349.645L8163 341.033L8164.54 348.75L8159.38 337.454Z" fill="#135E3E" stroke="black"/>
<path d="M8288.53 357.02L8300.93 393.197L8280.77 378.046L8300.93 400H8314.57L8328.83 372.171L8311.16 396.599L8314.57 368.77L8309.3 393.197V353L8306.2 390.724L8298.76 366.914L8303.1 388.25L8288.53 357.02Z" fill="#135E3E" stroke="black"/>
<path d="M7860.03 234.02L7872.43 270.197L7852.28 255.046L7872.43 277H7886.07L7900.33 249.171L7882.66 273.599L7886.07 245.77L7880.8 270.197V230L7877.7 267.724L7870.26 243.914L7874.6 265.25L7860.03 234.02Z" fill="#135E3E" stroke="black"/>
<path d="M7795.95 345.02L7808.35 381.197L7788.2 366.046L7808.35 388H7822L7836.26 360.171L7818.58 384.599L7822 356.77L7816.72 381.197V341L7813.62 378.724L7806.18 354.914L7810.52 376.25L7795.95 345.02Z" fill="#135E3E" stroke="black"/>
<path d="M7675.81 295.02L7688.21 331.197L7668.06 316.046L7688.21 338H7701.86L7716.12 310.171L7698.44 334.599L7701.86 306.77L7696.58 331.197V291L7693.48 328.724L7686.04 304.914L7690.38 326.25L7675.81 295.02Z" fill="#135E3E" stroke="black"/>
<path d="M8156.63 390L8173.65 409L8193.67 423L8212.7 403L8193.67 409V372L8184.66 409L8156.63 390Z" fill="#00742E" stroke="black"/>
<path d="M8058.52 386.824L8072.5 402.471L8088.94 414L8104.57 397.529L8088.94 402.471V372L8081.54 402.471L8058.52 386.824Z" fill="#00742E" stroke="black"/>
<path d="M8220.7 325.824L8234.69 341.471L8251.13 353L8266.76 336.529L8251.13 341.471V311L8243.73 341.471L8220.7 325.824Z" fill="#00742E" stroke="black"/>
<path d="M8110.58 308L8116.35 314.333L8123.14 319L8129.6 312.333L8123.14 314.333V302L8120.09 314.333L8110.58 308Z" fill="#00742E" stroke="black"/>
<path d="M8193.67 283L8199.45 289.333L8206.24 294L8212.7 287.333L8206.24 289.333V277L8203.18 289.333L8193.67 283Z" fill="#00742E" stroke="black"/>
<path d="M8119.59 259.765L8122.63 261.627L8126.2 263L8129.6 261.039L8126.2 261.627V258L8124.59 261.627L8119.59 259.765Z" fill="#00742E" stroke="black"/>
<path d="M8356.86 362.765L8359.9 364.627L8363.48 366L8366.88 364.039L8363.48 364.627V361L8361.87 364.627L8356.86 362.765Z" fill="#00742E" stroke="black"/>
<path d="M8275.77 273.765L8278.81 275.627L8282.38 277L8285.78 275.039L8282.38 275.627V272L8280.77 275.627L8275.77 273.765Z" fill="#00742E" stroke="black"/>
<path d="M7923.36 349.765L7926.4 351.627L7929.97 353L7933.37 351.039L7929.97 351.627V348L7928.36 351.627L7923.36 349.765Z" fill="#00742E" stroke="black"/>
<path d="M7788.2 292.765L7791.24 294.627L7794.82 296L7798.21 294.039L7794.82 294.627V291L7793.21 294.627L7788.2 292.765Z" fill="#00742E" stroke="black"/>
<path d="M7596.98 339.765L7600.02 341.627L7603.59 343L7606.99 341.039L7603.59 341.627V338L7601.98 341.627L7596.98 339.765Z" fill="#00742E" stroke="black"/>
<path d="M8233.72 387L8239.49 393.333L8246.29 398L8252.74 391.333L8246.29 393.333V381L8243.23 393.333L8233.72 387Z" fill="#00742E" stroke="black"/>
<path d="M7941.38 274L7947.15 280.333L7953.95 285L7960.4 278.333L7953.95 280.333V268L7950.89 280.333L7941.38 274Z" fill="#00742E" stroke="black"/>
<path d="M7985.43 403L7991.21 409.333L7998 414L8004.45 407.333L7998 409.333V397L7994.94 409.333L7985.43 403Z" fill="#00742E" stroke="black"/>
<path d="M8023.48 226L8029.25 232.333L8036.04 237L8042.5 230.333L8036.04 232.333V220L8032.99 232.333L8023.48 226Z" fill="#00742E" stroke="black"/>
<path d="M8347.85 291L8353.63 297.333L8360.42 302L8366.88 295.333L8360.42 297.333V285L8357.36 297.333L8347.85 291Z" fill="#00742E" stroke="black"/>
<path d="M6806 419H6734L6751 138.5L6762.5 144.5L6806 419Z" fill="#CFCA9A"/>
<path d="M8741.49 274.771C8712.79 280.611 8457 268 8457 268V486H10151V279.5C10127.7 269.462 10078.4 235.713 10052.8 247.394C10021 261.995 9915.33 247.394 9885.44 247.394C9855.55 247.394 9724.01 263.82 9668.21 258.344C9612.41 252.869 9494.82 274.771 9460.94 274.771C9427.06 274.771 9303.5 236.443 9231.76 247.394C9160.01 258.344 9064.35 230.967 9012.53 247.394C8960.72 263.82 8777.37 267.47 8741.49 274.771Z" fill="url(#paint6_linear)" style="mix-blend-mode:darken"/>
<path d="M8741.49 274.771C8712.79 280.611 8457 268 8457 268V486H10151V279.5C10127.7 269.462 10078.4 235.713 10052.8 247.394C10021 261.995 9915.33 247.394 9885.44 247.394C9855.55 247.394 9724.01 263.82 9668.21 258.344C9612.41 252.869 9494.82 274.771 9460.94 274.771C9427.06 274.771 9303.5 236.443 9231.76 247.394C9160.01 258.344 9064.35 230.967 9012.53 247.394C8960.72 263.82 8777.37 267.47 8741.49 274.771Z" stroke="black"/>
<path d="M8464 268.5H8447.5L8445 484L8458.5 485L8464 268.5Z" fill="#3A7251"/>
<path d="M10323 312.5C10246.8 311.3 10170.4 288.833 10149.5 278.5V484.5H11829V288C11812.9 293 11790.4 301 11787.4 301C11756 301 11596.2 300 11546.1 289.5C11495.9 279 11260.1 305.5 11145.2 319.5C11030.4 333.5 10838.7 322 10777.5 312.5C10716.3 303 10418.4 314 10323 312.5Z" fill="url(#paint7_linear)" stroke="black"/>
<path d="M10138 274L10163 285.5L10158 486C10151.6 484.946 10139.3 483.188 10138.5 484.183C10138.5 484.322 10138.5 484.377 10138.5 484.344C10138.5 484.284 10138.5 484.23 10138.5 484.183C10138.9 478.713 10138.3 342.913 10138 274Z" fill="url(#paint8_linear)"/>
<path d="M1681 251L1669 246L1666 344H1681V251Z" fill="#093215"/>
<defs>
<linearGradient id="paint0_linear" x1="3372" y1="324.184" x2="1657" y2="323.962" gradientUnits="userSpaceOnUse">
<stop stop-color="#3A7251"/>
<stop offset="0.41954" stop-color="#6EA785"/>
<stop offset="0.578125" stop-color="#2C8C53"/>
<stop offset="1" stop-color="#072E12"/>
</linearGradient>
<linearGradient id="paint1_linear" x1="832.5" y1="226" x2="832.5" y2="487" gradientUnits="userSpaceOnUse">
<stop stop-color="#004A15"/>
<stop offset="0.0001" stop-color="#093114"/>
</linearGradient>
<linearGradient id="paint2_linear" x1="4941" y1="171.385" x2="4269.01" y2="166.692" gradientUnits="userSpaceOnUse">
<stop offset="0.015625" stop-color="#998E63"/>
<stop offset="0.989583" stop-color="#24513B"/>
</linearGradient>
<linearGradient id="paint3_linear" x1="5066" y1="79.1924" x2="3895.84" y2="136.74" gradientUnits="userSpaceOnUse">
<stop stop-color="#D3CA9F"/>
<stop offset="0.0760415" stop-color="#D3CA9F"/>
<stop offset="0.130208" stop-color="#BEC786"/>
<stop offset="0.213542" stop-color="#9CAD86"/>
<stop offset="0.395833" stop-color="#60856F"/>
<stop offset="0.536458" stop-color="#3A7250"/>
</linearGradient>
<linearGradient id="paint4_linear" x1="6872" y1="234.974" x2="7543.97" y2="229.133" gradientUnits="userSpaceOnUse">
<stop offset="0.015625" stop-color="#998E63"/>
<stop offset="0.989583" stop-color="#24513B"/>
</linearGradient>
<linearGradient id="paint5_linear" x1="6757" y1="178.154" x2="7908.58" y2="253.209" gradientUnits="userSpaceOnUse">
<stop stop-color="#D3CA9F"/>
<stop offset="0.130208" stop-color="#BEC786"/>
<stop offset="0.213542" stop-color="#9CAD86"/>
<stop offset="0.395833" stop-color="#60856F"/>
<stop offset="0.536458" stop-color="#3A7250"/>
</linearGradient>
<linearGradient id="paint6_linear" x1="8474.44" y1="395.23" x2="10036.5" y2="398.455" gradientUnits="userSpaceOnUse">
<stop stop-color="#3A7250"/>
<stop offset="0.430208" stop-color="#4A9167"/>
<stop offset="0.852083" stop-color="#36473F"/>
<stop offset="1" stop-color="#00281F"/>
</linearGradient>
<linearGradient id="paint7_linear" x1="11829" y1="382" x2="10150" y2="382" gradientUnits="userSpaceOnUse">
<stop stop-color="#001B15"/>
<stop offset="1" stop-color="#00281F"/>
</linearGradient>
<linearGradient id="paint8_linear" x1="10149.5" y1="476.5" x2="10052.8" y2="344.978" gradientUnits="userSpaceOnUse">
<stop stop-color="#00281F"/>
<stop offset="0.982292" stop-color="#00281F"/>
</linearGradient>
</defs>
</svg>
