<svg width="1301" height="409" viewBox="0 0 1301 409" fill="none" xmlns="http://www.w3.org/2000/svg">
<path d="M146.26 219.583C146.26 203.882 157.897 179.397 163.716 169.117C140.1 161.329 95.1264 150.426 104.162 169.117C115.457 192.481 104.162 200.892 112.376 219.583C120.591 238.274 111.35 276.59 104.162 308.364C98.4121 333.784 67.1978 351.354 55.9032 356.961H203.76C200.68 354.78 191.439 347.615 179.117 336.401C163.716 322.383 146.26 303.692 146.26 284.066V219.583Z" fill="url(#paint0_linear)" stroke="black"/>
<path d="M136.762 162.575L126.238 164.444L119.564 183.135C118.195 188.587 114.841 200.892 112.376 206.499C109.296 213.508 119.564 215.844 122.131 221.452C124.698 227.059 123.671 234.068 122.131 240.143C120.591 246.217 119.564 256.03 119.564 262.572C119.564 269.114 119.564 273.319 119.564 280.795C119.564 288.272 112.376 292.477 112.376 301.823C112.376 311.168 111.863 316.775 112.376 321.448C112.89 326.121 110.323 332.663 104.162 337.803C99.2335 341.915 97.3168 351.665 96.9746 356.026H104.162M136.762 162.575L147.287 160.706V179.864C146.089 181.889 143.282 187.154 141.64 192.013C139.586 198.088 138.046 206.966 136.506 213.508C134.966 220.05 136.506 219.583 136.506 227.526C136.506 235.47 141.64 236.404 141.64 243.413C141.64 250.423 146.774 251.357 141.64 259.301C136.506 267.244 136.506 273.786 136.506 280.795C136.506 287.804 139.073 296.215 141.64 304.159C144.207 312.103 145.233 310.234 151.394 321.448C157.555 332.663 154.474 331.261 162.175 337.803C169.876 344.344 172.957 346.681 178.091 350.886C182.198 354.251 179.802 355.715 178.091 356.026H167.823M136.762 162.575C136.848 166.002 136.968 174.257 136.762 179.864C136.506 186.873 132.399 192.481 129.318 198.088C126.238 203.695 123.158 204.163 126.238 211.172C129.318 218.181 129.318 218.181 129.318 227.526C129.318 236.872 136.506 234.535 129.318 243.413C122.131 252.292 122.131 256.03 122.131 262.572C122.131 269.114 126.238 270.048 126.238 274.254C126.238 278.459 124.698 275.655 122.131 286.403C119.564 297.15 119.564 294.346 119.564 304.159C119.564 313.972 119.564 309.766 119.564 321.448C119.564 333.13 116.484 330.326 112.376 337.803C108.269 345.279 101.595 327.523 101.595 350.886C101.595 369.577 103.306 362.101 104.162 356.026M104.162 356.026H115.457M115.457 356.026C115.457 354.936 115.457 351.727 115.457 347.615C115.457 342.475 118.024 345.279 122.131 337.803C126.238 330.326 126.238 329.392 124.184 323.317M115.457 356.026H129.318M124.184 323.317C122.131 317.243 124.184 314.439 124.184 309.299C124.184 305.187 124.184 316.931 124.184 323.317ZM129.318 356.026C129.318 356.494 129.318 355.466 129.318 347.615C129.318 337.803 127.008 346.681 131.885 334.064C131.885 312.57 127.265 313.972 131.885 304.159C136.506 294.346 131.885 292.01 131.885 286.403C131.885 280.795 125.406 276.123 131.885 270.983C138.365 265.843 131.885 271.45 136.762 259.301C141.64 247.152 136.762 246.684 136.762 243.413C136.762 240.797 133.511 231.732 131.885 227.526M129.318 356.026H144.207M167.823 356.026C165.769 354.001 160.635 348.737 156.528 343.877C151.394 337.803 146.517 332.663 141.64 327.055C136.762 321.448 136.762 312.103 136.762 309.299M167.823 356.026H156.015M144.207 356.026C141.64 350.886 136.506 353.69 136.506 343.877C136.506 334.064 136.506 332.663 136.506 327.055M144.207 356.026H156.015M156.015 356.026C154.132 352.911 149.751 346.12 147.287 343.877M188.358 356.026C186.989 351.821 183.019 342.849 178.091 340.606C171.93 337.803 165.256 332.663 162.175 329.859C159.711 327.616 153.961 315.218 151.394 309.299M141.64 270.983C142.495 274.254 144.207 281.917 144.207 286.403C144.207 292.01 147.287 296.215 147.287 299.019M196.573 356.026L188.358 347.615M83.6264 356.026C84.6532 354.469 87.1174 350.606 88.7603 347.615C90.8139 343.877 92.3541 341.074 96.9746 334.064C101.595 327.055 104.162 322.85 104.162 318.644C104.162 314.439 108.783 312.103 108.783 309.299C108.783 306.495 108.783 298.084 108.783 294.346C108.783 290.608 115.457 285.001 115.457 280.795C115.457 276.59 115.457 276.123 115.457 270.983M131.885 246.217C131.03 246.684 129.318 248.273 129.318 250.89C129.318 254.161 126.238 256.03 126.238 259.301M134.452 249.021C133.597 250.267 131.885 253.413 131.885 256.03M90.8139 335.466C89.4448 335.934 85.5773 338.27 81.0594 343.877C76.5416 349.484 73.3585 354.313 72.3317 356.026M129.318 177.528C128.292 180.332 125.827 187.154 124.184 192.013C122.131 198.088 116.997 208.835 119.564 211.172M151.394 179.864C152.763 181.11 154.68 184.724 151.394 189.21C147.287 194.817 141.64 201.826 141.64 206.499C141.64 211.172 141.64 215.377 141.64 221.452C141.64 226.311 143.351 233.133 144.207 235.937" stroke="black"/>
<path d="M225.323 102.297C234.222 92.9515 246.68 75.1016 225.323 69.1205C198.627 61.6442 215.055 50.4296 204.788 35.4769C196.111 22.8422 176.805 15.5455 167.311 27.1183C168.533 18.3698 167.265 8.44884 157.555 6.03867C120.591 6.03867 115.201 -7.51222 108.27 9.30958C93.484 45.1961 91.8412 37.969 92.8679 29.8696C83.6271 14.9169 78.6983 8.93578 63.0912 14.9169C43.5822 22.3932 40.5019 31.7387 43.5822 43.8878C46.6626 56.0369 45.6358 56.0369 50.7697 69.1205C55.9037 82.2042 43.5822 56.0369 30.234 62.5787C16.8858 69.1205 -5.70345 80.3351 3.53763 92.4842C12.7787 104.633 -2.62309 111.175 30.234 119.586C43.5822 123.003 37.5927 122.39 21.5064 119.586C16.0302 120.832 -0.569519 125.941 3.53763 136.408C8.67155 149.492 9.69833 156.968 30.234 157.902C50.7697 158.837 54.8769 163.51 63.0912 168.182C71.3055 172.855 77.4662 179.397 92.8679 181.266C108.27 183.135 135.993 187.808 133.939 172.855C133.815 171.947 133.686 171.163 133.559 170.492C135.388 173.935 139.834 179.103 149.341 181.266C169.877 185.939 186.305 187.808 190.413 172.855C194.52 157.902 206.841 185.004 225.323 168.182C243.805 151.361 249.966 142.95 232.511 136.408C215.055 129.866 249.966 140.146 247.912 119.586C246.27 103.138 232.169 100.428 225.323 102.297Z" fill="url(#paint1_linear)" stroke="black"/>
<path d="M608.218 339.95C636.884 349.969 692.218 356.782 684.218 303.882C674.218 237.758 676.216 215.717 642.217 229.743C608.218 243.77 642.217 229.743 642.217 199.687C642.217 169.631 630.217 139.574 592.217 157.608C554.217 175.642 574.217 179.649 564.217 199.687C554.217 219.724 544.217 141.578 502.217 161.615C460.217 181.653 434.217 201.691 468.217 229.743C473.762 234.319 477.871 237.295 480.709 239.142C474.153 236.861 461.656 234.891 446.217 241.766C410.217 257.796 360.217 339.95 414.217 339.95C468.217 339.95 484.217 376.018 502.217 365.999C520.217 355.98 542.217 365.999 582.217 365.999C614.217 365.999 612.884 348.633 608.218 339.95Z" fill="#467E4F" stroke="black"/>
<path d="M322.659 337.36C348.547 346.439 398.518 352.612 391.294 304.676C382.263 244.756 384.067 224.783 353.363 237.493C322.659 250.203 353.363 237.493 353.363 210.256C353.363 183.02 342.526 155.783 308.208 172.125C273.891 188.467 291.953 192.099 282.922 210.256C273.891 228.414 264.86 157.599 226.93 175.757C189 193.915 165.52 212.072 196.225 237.493C201.233 241.639 204.944 244.336 207.506 246.01C201.586 243.943 190.3 242.158 176.357 248.388C143.845 262.914 98.6909 337.36 147.458 337.36C196.225 337.36 210.674 370.044 226.93 360.965C243.186 351.886 263.054 360.965 299.177 360.965C328.076 360.965 326.873 345.228 322.659 337.36Z" fill="#1C4D24" stroke="black"/>
<path d="M186.569 364.96C210.998 373.48 258.151 379.273 251.333 334.287C242.812 278.054 244.514 259.31 215.542 271.238C186.569 283.166 215.542 271.238 215.542 245.678C215.542 220.117 205.316 194.557 172.933 209.893C140.551 225.229 157.594 228.638 149.073 245.678C140.551 262.718 132.029 196.261 96.2384 213.301C60.4474 230.341 38.2911 247.382 67.2648 271.238C71.9906 275.129 75.4921 277.66 77.91 279.231C72.3232 277.292 61.6741 275.616 48.5171 281.462C17.8391 295.095 -24.7691 364.96 21.2478 364.96C67.2648 364.96 80.8994 395.632 96.2384 387.112C111.577 378.592 130.325 387.112 164.412 387.112C191.681 387.112 190.545 372.344 186.569 364.96Z" fill="#517757" stroke="black"/>
<path d="M433.817 390.586C451.432 396.731 485.435 400.91 480.519 368.461C474.374 327.9 475.602 314.379 454.709 322.983C433.817 331.587 454.709 322.983 454.709 304.546C454.709 286.109 447.335 267.672 423.984 278.734C400.632 289.797 412.923 292.255 406.778 304.546C400.632 316.838 394.487 268.901 368.678 281.193C342.868 293.484 326.891 305.775 347.785 322.983C351.192 325.79 353.717 327.616 355.461 328.748C351.432 327.35 343.753 326.141 334.265 330.358C312.143 340.191 281.417 390.586 314.601 390.586C347.785 390.586 357.617 412.71 368.678 406.564C379.739 400.419 393.258 406.564 417.839 406.564C437.503 406.564 436.684 395.912 433.817 390.586Z" fill="#689C70" stroke="black"/>
<path d="M1268.98 360.333C1280.56 364.383 1302.92 367.138 1299.68 345.751C1295.64 319.017 1296.45 310.106 1282.71 315.777C1268.98 321.448 1282.71 315.777 1282.71 303.625C1282.71 291.473 1277.87 279.322 1262.51 286.613C1247.16 293.904 1255.24 295.524 1251.2 303.625C1247.16 311.726 1243.12 280.132 1226.15 288.233C1209.18 296.334 1198.68 304.435 1212.42 315.777C1214.66 317.627 1216.32 318.83 1217.46 319.577C1214.81 318.655 1209.77 317.858 1203.53 320.637C1188.98 327.118 1168.78 360.333 1190.6 360.333C1212.42 360.333 1218.88 374.915 1226.15 370.864C1233.43 366.814 1242.31 370.864 1258.47 370.864C1271.4 370.864 1270.86 363.843 1268.98 360.333Z" fill="#467C4F" stroke="black"/>
<path d="M1081.43 328.179C1100.31 334.79 1136.75 339.286 1131.48 304.378C1124.9 260.744 1126.21 246.199 1103.82 255.455C1081.43 264.711 1103.82 255.455 1103.82 235.621C1103.82 215.787 1095.92 195.954 1070.89 207.854C1045.86 219.754 1059.03 222.399 1052.45 235.621C1045.86 248.844 1039.27 197.276 1011.61 210.498C983.947 223.721 966.823 236.943 989.217 255.455C992.869 258.474 995.576 260.438 997.444 261.657C993.126 260.152 984.895 258.852 974.726 263.388C951.015 273.966 918.083 328.179 953.65 328.179C989.217 328.179 999.755 351.979 1011.61 345.368C1023.47 338.757 1037.96 345.368 1064.3 345.368C1085.38 345.368 1084.5 333.908 1081.43 328.179Z" fill="#467C4F" stroke="black"/>
<path d="M818.817 375.557C836.432 381.703 870.435 385.882 865.519 353.433C859.374 312.872 860.602 299.351 839.709 307.955C818.817 316.559 839.709 307.955 839.709 289.518C839.709 271.081 832.335 252.644 808.984 263.706C785.632 274.768 797.923 277.227 791.778 289.518C785.632 301.809 779.487 253.873 753.678 266.164C727.868 278.456 711.891 290.747 732.785 307.955C736.192 310.762 738.717 312.588 740.461 313.72C736.432 312.321 728.753 311.113 719.265 315.33C697.143 325.163 666.417 375.557 699.601 375.557C732.785 375.557 742.617 397.682 753.678 391.536C764.739 385.391 778.258 391.536 802.839 391.536C822.503 391.536 821.684 380.884 818.817 375.557Z" fill="#689C70" stroke="black"/>
<defs>
<linearGradient id="paint0_linear" x1="129.832" y1="158.797" x2="129.832" y2="356.961" gradientUnits="userSpaceOnUse">
<stop stop-color="#7B4B04"/>
<stop offset="1" stop-color="#261701"/>
</linearGradient>
<linearGradient id="paint1_linear" x1="124.689" y1="0.879639" x2="124.689" y2="184.634" gradientUnits="userSpaceOnUse">
<stop offset="0.333333" stop-color="#3F502A"/>
<stop offset="0.96875" stop-color="#162600"/>
</linearGradient>
</defs>
</svg>
