<svg width="451" height="645" viewBox="0 0 451 645" fill="none" xmlns="http://www.w3.org/2000/svg">
<path d="M182 215.774V356.717V644H109V151L145.5 183.387L182 215.774Z" fill="#00022F" fill-opacity="0.78" stroke="black"/>
<path d="M117 253.096C111.75 278.538 110.699 307.602 111.123 323.843V356.818C101.112 369.808 79.7278 398.506 74.2817 409.378C67.4741 422.967 52.6576 436.957 63.4697 433.36C72.1193 430.482 74.4022 429.688 74.4625 429.651C103.785 411.531 111.123 410.18 111.123 411.776V527.888C89.9423 553.802 47.3151 617.7 75.0826 598.834C89.819 592.439 105.25 587.576 111.123 585.944V644H1V598.435C4.07009 603.764 19.821 592.759 58.2639 506.104C96.7067 419.45 36.1058 475.061 1 526.489V448.548C6.87322 444.018 21.3427 430.322 32.2348 411.776C94.3841 292.506 37.3071 333.568 1 369.008V281.075C4.07009 273.614 11.8921 255.255 18.6196 241.505C25.3471 227.755 9.67634 215.791 1 211.528V116H117V211.528L93.5031 241.505C64.9914 266.766 97.2878 259.758 117 253.096Z" fill="#00034E"/>
<path d="M74.2817 429.762C74.3421 429.725 74.4023 429.688 74.4625 429.651M74.4625 429.651C103.785 411.531 111.123 410.18 111.123 411.776V527.888C89.9423 553.802 47.3151 617.7 75.0826 598.834C89.819 592.439 105.25 587.576 111.123 585.944V644H1V598.435C4.07009 603.764 19.821 592.759 58.2639 506.104C96.7067 419.45 36.1058 475.061 1 526.489V448.548C6.87322 444.018 21.3427 430.322 32.2348 411.776C94.3841 292.506 37.3071 333.569 1 369.008V281.075C4.07009 273.614 11.8921 255.254 18.6196 241.505C25.3471 227.755 9.67634 215.791 1 211.528V116H117V211.528L93.5031 241.505C64.9914 266.766 97.2878 259.758 117 253.096C111.75 278.538 110.699 307.602 111.123 323.843V356.818C101.112 369.808 79.7278 398.506 74.2817 409.378C67.4741 422.967 52.6576 436.957 63.4697 433.36C72.1193 430.482 74.4022 429.688 74.4625 429.651Z" stroke="black"/>
<path d="M297 151C284.519 162.195 255.207 190.824 237.814 215.774C231.463 224.884 227.03 238.322 223.994 252.959C218.715 278.409 217.659 307.484 218.085 323.73V356.717V527.847V585.924V644H269.621H297V151Z" fill="#00034E" stroke="black"/>
<path d="M275 253H177V644H204.2H247.8H275V253Z" fill="#00022F" fill-opacity="0.78"/>
<path d="M204.2 644H177M177 644V253H275V644H247.8H177Z" stroke="black"/>
<path d="M450 389.758V644H379.292H342.141H297V101.938V2L378.394 101.938V183.487L414.646 215.867V356.779L450 389.758Z" fill="#00022F" fill-opacity="0.78"/>
<path d="M379.292 644H450V389.758L414.646 356.779M379.292 644V323.8L414.646 356.779M379.292 644H342.141M414.646 356.779V215.867L378.394 183.487M342.141 644V151.107L378.394 183.487M342.141 644H297V101.938V2L378.394 101.938V183.487" stroke="black"/>
</svg>
